<svg width="18" height="18" viewBox="0 0 18 18" fill="none" xmlns="http://www.w3.org/2000/svg">
<g clip-path="url(#clip0_6263_18748)">
<path d="M15.9857 2.01426C14.0604 0.0889968 10.925 0.0889968 8.99974 2.01426L7.07448 3.93952C6.02934 4.98466 5.58928 6.41486 5.86432 7.84506L6.41439 10.7605C6.52441 11.3655 7.07448 11.7506 7.67956 11.6406C8.28465 11.5306 8.6697 10.9805 8.55968 10.3754L8.00961 7.46C7.89959 6.74491 8.11962 6.02981 8.61469 5.53474L10.54 3.60948C11.6401 2.50933 13.3453 2.50933 14.4455 3.60948C15.5456 4.70963 15.5456 6.41486 14.4455 7.51501L14.0054 7.95507C13.5654 8.39513 13.5654 9.05522 14.0054 9.49528C14.4455 9.93534 15.1056 9.93534 15.5456 9.49528L15.9857 9.05522C17.911 7.07495 17.911 3.93952 15.9857 2.01426Z" fill="#05050A"/>
<path d="M11.6406 7.23967C11.5306 6.63459 10.9805 6.24954 10.3754 6.35955C9.77031 6.46957 9.38526 7.01964 9.49527 7.62472L10.0453 10.5401C10.1554 11.2552 9.93533 11.9703 9.44027 12.4654L7.51501 14.3906C6.41486 15.4908 4.70962 15.4908 3.60947 14.3906C2.50933 13.2905 2.50933 11.5853 3.60947 10.4851L4.04953 10.0451C4.48959 9.60499 4.48959 8.9449 4.04953 8.50484C3.60948 8.06478 2.94939 8.06478 2.50933 8.50484L2.01426 8.99991C0.0889971 10.9252 0.0889971 14.0606 2.01426 15.9859C3.93952 17.9111 7.07495 17.9111 9.00021 15.9859L10.9255 14.0606C11.9706 13.0155 12.4107 11.5853 12.1356 10.1551L11.6406 7.23967Z" fill="#05050A"/>
</g>
<defs>
<clipPath id="clip0_6263_18748">
<rect width="18" height="18" fill="white"/>
</clipPath>
</defs>
</svg>
