<svg width="164" height="36" viewBox="0 0 164 36" fill="none" xmlns="http://www.w3.org/2000/svg">
<g clip-path="url(#clip0_5236_60271)">
<path d="M93.5053 13.6527C96.6726 13.6527 100.27 14.8697 100.486 18.7643H96.0576C95.9654 17.6385 94.9198 17.1213 93.5361 17.1213C92.2445 17.1213 91.6603 17.6081 91.6603 18.1862C91.6603 18.673 92.0293 19.1294 93.1978 19.3424L95.9961 19.7988C98.7944 20.316 100.639 21.6548 100.639 24.2714C100.639 27.6792 97.5336 29.2613 93.6591 29.2613C89.7538 29.2613 86.5865 27.6488 86.279 23.7238L90.707 23.7542C90.9223 25.0321 91.9985 25.6102 93.5668 25.6102C94.8891 25.6102 95.6886 25.2147 95.6886 24.5757C95.6886 24.0889 95.2273 23.6933 94.2433 23.5412L91.2298 23.024C88.6467 22.598 86.8632 21.168 86.8632 18.5817C86.8632 15.4783 89.5385 13.6527 93.5053 13.6527ZM74.8397 13.7101C76.4666 13.7101 77.8173 14.1356 78.9224 14.8346V14.0444H83.8952V28.7853H78.9224V27.9646C77.8173 28.6637 76.4666 29.0892 74.8397 29.0892C70.8184 29.0892 67.4417 25.7763 67.4417 21.3996C67.4417 16.9926 70.8184 13.7101 74.8397 13.7101ZM45.7119 8.08636L53.1685 19.145L60.5943 8.08636H64.4766V28.8023H59.2693V18.4138L54.6167 25.5121V25.5426H51.7203V25.5121L47.0368 18.3529L47.0676 28.8023H41.8604V8.08636H45.7119ZM108.36 7.22559V19.5942L113.564 14.0633H119.507L113.841 20.0804L120 28.8023H114.026L110.454 23.6968L108.36 25.9152V28.8023H103.372V7.22559H108.36ZM75.822 17.722C73.796 17.722 72.3225 19.3633 72.3225 21.3996C72.3225 23.436 73.796 25.0469 75.822 25.0469C76.9271 25.0469 78.0014 24.7429 78.9224 23.6791V19.1201C78.0014 18.0563 76.9271 17.722 75.822 17.722Z" fill="white"/>
<path fill-rule="evenodd" clip-rule="evenodd" d="M17.28 34.3197C26.2933 34.3197 33.6 27.013 33.6 17.9997C33.6 8.98644 26.2933 1.67973 17.28 1.67973C8.26671 1.67973 0.96 8.98644 0.96 17.9997C0.96 27.013 8.26671 34.3197 17.28 34.3197ZM34.56 17.9997C34.56 27.5432 26.8235 35.2797 17.28 35.2797C7.73652 35.2797 0 27.5432 0 17.9997C0 8.45625 7.73652 0.719727 17.28 0.719727C26.8235 0.719727 34.56 8.45625 34.56 17.9997Z" fill="white"/>
<path fill-rule="evenodd" clip-rule="evenodd" d="M27.7096 13.7518V19.4903H10.218L9.46547 19.4903C10.262 22.9722 13.4231 25.573 17.2014 25.573C20.325 25.573 23.0268 23.7954 24.3194 21.2119L27.7096 21.2119V26.0321C27.7096 27.1731 26.7698 28.098 25.6106 28.098H8.81871C7.65947 28.098 6.71973 27.1731 6.71973 26.0321V13.7518H27.7096ZM22.3062 21.2119C21.1931 22.8137 19.3219 23.8648 17.2014 23.8648C15.0808 23.8648 13.2097 22.8137 12.0965 21.2119H22.3062ZM12.7252 15.129C11.0803 15.129 9.71945 16.3262 9.49313 17.8835L11.2823 17.8835C11.479 17.2841 12.0507 16.8506 12.7252 16.8506C13.3996 16.8506 13.9713 17.2841 14.168 17.8835L15.9572 17.8835C15.7308 16.3262 14.37 15.129 12.7252 15.129ZM21.7041 15.129C20.0592 15.129 18.6984 16.3262 18.4721 17.8835L20.2613 17.8835C20.458 17.2841 21.0296 16.8506 21.7041 16.8506C22.3786 16.8506 22.9502 17.2841 23.147 17.8835L24.9362 17.8835C24.7098 16.3262 23.349 15.129 21.7041 15.129ZM25.6106 7.43945C26.7698 7.43945 27.7096 8.36437 27.7096 9.50531V12.0302H6.71973V9.50531C6.71973 8.36437 7.65947 7.43945 8.81871 7.43945H25.6106Z" fill="white"/>
</g>
<path d="M124 12.7197C124 6.09231 129.373 0.719727 136 0.719727H164V8.71973C164 15.3471 158.627 20.7197 152 20.7197H124V12.7197Z" fill="url(#paint0_linear_5236_60271)"/>
<path d="M133.69 7.43973C134.53 7.43973 135.19 7.60973 135.66 7.95973C136.16 8.32973 136.45 8.90973 136.52 9.68973H135.36C135.26 9.24973 135.07 8.92973 134.81 8.73973C134.55 8.53973 134.15 8.44973 133.63 8.44973C133.18 8.44973 132.84 8.50973 132.6 8.63973C132.3 8.78973 132.16 9.03973 132.16 9.37973C132.16 9.67973 132.32 9.92973 132.66 10.1097C132.81 10.1897 133.22 10.3397 133.88 10.5497C134.85 10.8497 135.47 11.0897 135.75 11.2497C136.37 11.6197 136.68 12.1297 136.68 12.7897C136.68 13.4297 136.43 13.9397 135.93 14.3097C135.43 14.6697 134.72 14.8597 133.81 14.8597C132.93 14.8597 132.24 14.6897 131.75 14.3497C131.15 13.9297 130.82 13.2697 130.77 12.3597H131.93C132.01 12.8997 132.2 13.2897 132.51 13.5197C132.79 13.7197 133.22 13.8297 133.81 13.8297C134.33 13.8297 134.75 13.7397 135.05 13.5697C135.35 13.3897 135.51 13.1597 135.51 12.8597C135.51 12.4797 135.28 12.1797 134.84 11.9597C134.7 11.8897 134.24 11.7297 133.45 11.4897C132.57 11.2097 132.02 11.0097 131.81 10.8897C131.26 10.5597 130.99 10.0797 130.99 9.44973C130.99 8.81973 131.25 8.31973 131.79 7.95973C132.29 7.60973 132.92 7.43973 133.69 7.43973ZM139.203 7.87973V9.54973H140.353V10.4897H139.203V13.4097C139.203 13.5297 139.223 13.6197 139.283 13.6897C139.343 13.7497 139.423 13.7797 139.543 13.7797H140.223V14.7197H139.353C138.903 14.7197 138.573 14.5997 138.363 14.3597C138.163 14.1397 138.063 13.8297 138.063 13.4097V10.4897H137.133V9.54973H138.063V8.34973L139.203 7.87973ZM143.556 9.40973C144.316 9.40973 144.886 9.59973 145.246 9.97973C145.566 10.3097 145.726 10.7897 145.726 11.4197V14.7197H144.666V14.0397C144.466 14.2997 144.216 14.4897 143.926 14.6297C143.596 14.7797 143.206 14.8597 142.756 14.8597C142.216 14.8597 141.796 14.7197 141.486 14.4497C141.166 14.1697 141.006 13.8197 141.006 13.3897C141.006 12.8097 141.226 12.3597 141.686 12.0497C142.106 11.7497 142.696 11.5897 143.456 11.5697L144.586 11.5397V11.3397C144.586 10.6597 144.216 10.3297 143.476 10.3297C143.156 10.3297 142.906 10.3797 142.716 10.4997C142.496 10.6297 142.346 10.8297 142.286 11.0997L141.156 11.0097C141.266 10.4397 141.546 10.0197 141.996 9.75973C142.376 9.51973 142.896 9.40973 143.556 9.40973ZM144.586 12.3597L143.536 12.3897C142.626 12.4097 142.176 12.7297 142.176 13.3497C142.176 13.5297 142.246 13.6797 142.406 13.7997C142.566 13.9197 142.766 13.9897 143.016 13.9897C143.456 13.9897 143.826 13.8597 144.126 13.6097C144.426 13.3497 144.586 13.0197 144.586 12.6197V12.3597ZM146.929 7.43973H148.069V11.5997L150.189 9.54973H151.659L149.369 11.6897L151.859 14.7197H150.399L148.589 12.4197L148.069 12.9097V14.7197H146.929V7.43973ZM154.656 9.40973C155.506 9.40973 156.156 9.68973 156.606 10.2697C157.016 10.7897 157.226 11.5197 157.226 12.4497H153.356C153.396 12.9297 153.526 13.2997 153.746 13.5497C153.966 13.7997 154.286 13.9297 154.696 13.9297C155.046 13.9297 155.326 13.8497 155.546 13.6897C155.716 13.5597 155.866 13.3497 156.006 13.0597H157.146C157.026 13.5397 156.786 13.9497 156.426 14.2697C155.966 14.6597 155.396 14.8597 154.706 14.8597C153.936 14.8597 153.326 14.6197 152.876 14.1497C152.396 13.6597 152.156 12.9897 152.156 12.1297C152.156 11.3597 152.376 10.7197 152.836 10.1997C153.276 9.66973 153.886 9.40973 154.656 9.40973ZM154.686 10.3397C154.306 10.3397 154.016 10.4397 153.796 10.6597C153.586 10.8697 153.446 11.1797 153.376 11.5897H156.036C155.936 10.7497 155.486 10.3397 154.686 10.3397Z" fill="#141414"/>
<defs>
<linearGradient id="paint0_linear_5236_60271" x1="144" y1="0.719727" x2="144" y2="20.7197" gradientUnits="userSpaceOnUse">
<stop stop-color="#00E577"/>
<stop offset="1" stop-color="#00E5AC"/>
</linearGradient>
<clipPath id="clip0_5236_60271">
<rect width="120" height="34.56" fill="white" transform="translate(0 0.719727)"/>
</clipPath>
</defs>
</svg>
