<svg width="164" height="36" viewBox="0 0 164 36" fill="none" xmlns="http://www.w3.org/2000/svg">
<g clip-path="url(#clip0_6989_16435)">
<path d="M93.5053 13.6537C96.6726 13.6537 100.27 14.8707 100.486 18.7653H96.0576C95.9654 17.6395 94.9198 17.1223 93.5361 17.1223C92.2445 17.1223 91.6603 17.6091 91.6603 18.1872C91.6603 18.674 92.0293 19.1304 93.1978 19.3434L95.9961 19.7998C98.7944 20.317 100.639 21.6558 100.639 24.2724C100.639 27.6802 97.5336 29.2623 93.6591 29.2623C89.7538 29.2623 86.5865 27.6497 86.279 23.7247L90.707 23.7552C90.9223 25.0331 91.9985 25.6112 93.5668 25.6112C94.8891 25.6112 95.6886 25.2156 95.6886 24.5767C95.6886 24.0899 95.2273 23.6943 94.2433 23.5422L91.2298 23.0249C88.6467 22.599 86.8632 21.1689 86.8632 18.5827C86.8632 15.4792 89.5385 13.6537 93.5053 13.6537ZM74.8397 13.711C76.4666 13.711 77.8173 14.1366 78.9224 14.8356V14.0454H83.8952V28.7862H78.9224V27.9656C77.8173 28.6647 76.4666 29.0902 74.8397 29.0902C70.8184 29.0902 67.4417 25.7773 67.4417 21.4006C67.4417 16.9935 70.8184 13.711 74.8397 13.711ZM45.7119 8.08733L53.1685 19.146L60.5943 8.08733H64.4766V28.8032H59.2693V18.4148L54.6167 25.5131V25.5435H51.7203V25.5131L47.0368 18.3539L47.0676 28.8032H41.8604V8.08733H45.7119ZM108.36 7.22656V19.5952L113.564 14.0642H119.507L113.841 20.0814L120 28.8032H114.026L110.454 23.6978L108.36 25.9162V28.8032H103.372V7.22656H108.36ZM75.822 17.723C73.796 17.723 72.3225 19.3642 72.3225 21.4006C72.3225 23.437 73.796 25.0478 75.822 25.0478C76.9271 25.0478 78.0014 24.7439 78.9224 23.6801V19.1211C78.0014 18.0573 76.9271 17.723 75.822 17.723Z" fill="#FCFCFD"/>
<path fill-rule="evenodd" clip-rule="evenodd" d="M17.28 34.3207C26.2933 34.3207 33.6 27.014 33.6 18.0007C33.6 8.98742 26.2933 1.6807 17.28 1.6807C8.26671 1.6807 0.96 8.98742 0.96 18.0007C0.96 27.014 8.26671 34.3207 17.28 34.3207ZM34.56 18.0007C34.56 27.5442 26.8235 35.2807 17.28 35.2807C7.73652 35.2807 0 27.5442 0 18.0007C0 8.45722 7.73652 0.720703 17.28 0.720703C26.8235 0.720703 34.56 8.45722 34.56 18.0007Z" fill="#FCFCFD"/>
<path fill-rule="evenodd" clip-rule="evenodd" d="M27.7096 13.7537V19.4922H10.218L9.46547 19.4923C10.262 22.9742 13.4231 25.575 17.2014 25.575C20.325 25.575 23.0268 23.7974 24.3194 21.2139L27.7096 21.2138V26.0341C27.7096 27.175 26.7698 28.0999 25.6106 28.0999H8.81871C7.65947 28.0999 6.71973 27.175 6.71973 26.0341V13.7537H27.7096ZM22.3062 21.2139C21.1931 22.8156 19.3219 23.8667 17.2014 23.8667C15.0808 23.8667 13.2097 22.8156 12.0965 21.2139H22.3062ZM12.7252 15.131C11.0803 15.131 9.71945 16.3281 9.49313 17.8855L11.2823 17.8855C11.479 17.2861 12.0507 16.8525 12.7252 16.8525C13.3996 16.8525 13.9713 17.2861 14.168 17.8855L15.9572 17.8855C15.7308 16.3281 14.37 15.131 12.7252 15.131ZM21.7041 15.131C20.0592 15.131 18.6984 16.3281 18.4721 17.8855L20.2613 17.8855C20.458 17.2861 21.0296 16.8525 21.7041 16.8525C22.3786 16.8525 22.9502 17.2861 23.147 17.8855L24.9362 17.8855C24.7098 16.3281 23.349 15.131 21.7041 15.131ZM25.6106 7.44141C26.7698 7.44141 27.7096 8.36632 27.7096 9.50726V12.0322H6.71973V9.50726C6.71973 8.36632 7.65947 7.44141 8.81871 7.44141H25.6106Z" fill="#FCFCFD"/>
</g>
<path d="M124 12.7207C124 6.09329 129.373 0.720703 136 0.720703H164V8.7207C164 15.3481 158.627 20.7207 152 20.7207H124V12.7207Z" fill="#05050A"/>
<path d="M133.69 7.4407C134.53 7.4407 135.19 7.6107 135.66 7.9607C136.16 8.3307 136.45 8.9107 136.52 9.6907H135.36C135.26 9.2507 135.07 8.9307 134.81 8.7407C134.55 8.5407 134.15 8.4507 133.63 8.4507C133.18 8.4507 132.84 8.5107 132.6 8.6407C132.3 8.7907 132.16 9.0407 132.16 9.3807C132.16 9.6807 132.32 9.9307 132.66 10.1107C132.81 10.1907 133.22 10.3407 133.88 10.5507C134.85 10.8507 135.47 11.0907 135.75 11.2507C136.37 11.6207 136.68 12.1307 136.68 12.7907C136.68 13.4307 136.43 13.9407 135.93 14.3107C135.43 14.6707 134.72 14.8607 133.81 14.8607C132.93 14.8607 132.24 14.6907 131.75 14.3507C131.15 13.9307 130.82 13.2707 130.77 12.3607H131.93C132.01 12.9007 132.2 13.2907 132.51 13.5207C132.79 13.7207 133.22 13.8307 133.81 13.8307C134.33 13.8307 134.75 13.7407 135.05 13.5707C135.35 13.3907 135.51 13.1607 135.51 12.8607C135.51 12.4807 135.28 12.1807 134.84 11.9607C134.7 11.8907 134.24 11.7307 133.45 11.4907C132.57 11.2107 132.02 11.0107 131.81 10.8907C131.26 10.5607 130.99 10.0807 130.99 9.4507C130.99 8.8207 131.25 8.3207 131.79 7.9607C132.29 7.6107 132.92 7.4407 133.69 7.4407ZM139.203 7.8807V9.5507H140.353V10.4907H139.203V13.4107C139.203 13.5307 139.223 13.6207 139.283 13.6907C139.343 13.7507 139.423 13.7807 139.543 13.7807H140.223V14.7207H139.353C138.903 14.7207 138.573 14.6007 138.363 14.3607C138.163 14.1407 138.063 13.8307 138.063 13.4107V10.4907H137.133V9.5507H138.063V8.3507L139.203 7.8807ZM143.556 9.4107C144.316 9.4107 144.886 9.6007 145.246 9.9807C145.566 10.3107 145.726 10.7907 145.726 11.4207V14.7207H144.666V14.0407C144.466 14.3007 144.216 14.4907 143.926 14.6307C143.596 14.7807 143.206 14.8607 142.756 14.8607C142.216 14.8607 141.796 14.7207 141.486 14.4507C141.166 14.1707 141.006 13.8207 141.006 13.3907C141.006 12.8107 141.226 12.3607 141.686 12.0507C142.106 11.7507 142.696 11.5907 143.456 11.5707L144.586 11.5407V11.3407C144.586 10.6607 144.216 10.3307 143.476 10.3307C143.156 10.3307 142.906 10.3807 142.716 10.5007C142.496 10.6307 142.346 10.8307 142.286 11.1007L141.156 11.0107C141.266 10.4407 141.546 10.0207 141.996 9.7607C142.376 9.5207 142.896 9.4107 143.556 9.4107ZM144.586 12.3607L143.536 12.3907C142.626 12.4107 142.176 12.7307 142.176 13.3507C142.176 13.5307 142.246 13.6807 142.406 13.8007C142.566 13.9207 142.766 13.9907 143.016 13.9907C143.456 13.9907 143.826 13.8607 144.126 13.6107C144.426 13.3507 144.586 13.0207 144.586 12.6207V12.3607ZM146.929 7.4407H148.069V11.6007L150.189 9.5507H151.659L149.369 11.6907L151.859 14.7207H150.399L148.589 12.4207L148.069 12.9107V14.7207H146.929V7.4407ZM154.656 9.4107C155.506 9.4107 156.156 9.6907 156.606 10.2707C157.016 10.7907 157.226 11.5207 157.226 12.4507H153.356C153.396 12.9307 153.526 13.3007 153.746 13.5507C153.966 13.8007 154.286 13.9307 154.696 13.9307C155.046 13.9307 155.326 13.8507 155.546 13.6907C155.716 13.5607 155.866 13.3507 156.006 13.0607H157.146C157.026 13.5407 156.786 13.9507 156.426 14.2707C155.966 14.6607 155.396 14.8607 154.706 14.8607C153.936 14.8607 153.326 14.6207 152.876 14.1507C152.396 13.6607 152.156 12.9907 152.156 12.1307C152.156 11.3607 152.376 10.7207 152.836 10.2007C153.276 9.6707 153.886 9.4107 154.656 9.4107ZM154.686 10.3407C154.306 10.3407 154.016 10.4407 153.796 10.6607C153.586 10.8707 153.446 11.1807 153.376 11.5907H156.036C155.936 10.7507 155.486 10.3407 154.686 10.3407Z" fill="url(#paint0_linear_6989_16435)"/>
<defs>
<linearGradient id="paint0_linear_6989_16435" x1="153.055" y1="-11.2052" x2="122.563" y2="-2.58886" gradientUnits="userSpaceOnUse">
<stop stop-color="#D0D0FF"/>
<stop offset="0.303907" stop-color="#A996F7"/>
<stop offset="0.505226" stop-color="#7280FE"/>
<stop offset="1" stop-color="#D3D6FE"/>
</linearGradient>
<clipPath id="clip0_6989_16435">
<rect width="120" height="34.56" fill="white" transform="translate(0 0.720703)"/>
</clipPath>
</defs>
</svg>
