<svg width="28" height="12" viewBox="0 0 28 12" fill="none" xmlns="http://www.w3.org/2000/svg">
<path d="M9.40128 0.818182V11H7.5419L3.11222 4.59162H3.03764V11H0.884943V0.818182H2.77415L7.16903 7.22159H7.25852V0.818182H9.40128ZM14.5904 11.1491C13.8181 11.1491 13.1503 10.9851 12.5868 10.657C12.0267 10.3255 11.5942 9.86482 11.2892 9.27486C10.9843 8.68158 10.8319 7.99384 10.8319 7.21165C10.8319 6.42282 10.9843 5.73343 11.2892 5.14347C11.5942 4.55019 12.0267 4.08949 12.5868 3.76136C13.1503 3.42992 13.8181 3.2642 14.5904 3.2642C15.3626 3.2642 16.0288 3.42992 16.589 3.76136C17.1524 4.08949 17.5866 4.55019 17.8915 5.14347C18.1964 5.73343 18.3489 6.42282 18.3489 7.21165C18.3489 7.99384 18.1964 8.68158 17.8915 9.27486C17.5866 9.86482 17.1524 10.3255 16.589 10.657C16.0288 10.9851 15.3626 11.1491 14.5904 11.1491ZM14.6003 9.50852C14.9516 9.50852 15.245 9.40909 15.4803 9.21023C15.7156 9.00805 15.8929 8.73295 16.0123 8.38494C16.1349 8.03693 16.1962 7.64086 16.1962 7.19673C16.1962 6.7526 16.1349 6.35653 16.0123 6.00852C15.8929 5.66051 15.7156 5.38542 15.4803 5.18324C15.245 4.98106 14.9516 4.87997 14.6003 4.87997C14.2457 4.87997 13.9474 4.98106 13.7054 5.18324C13.4668 5.38542 13.2862 5.66051 13.1635 6.00852C13.0442 6.35653 12.9846 6.7526 12.9846 7.19673C12.9846 7.64086 13.0442 8.03693 13.1635 8.38494C13.2862 8.73295 13.4668 9.00805 13.7054 9.21023C13.9474 9.40909 14.2457 9.50852 14.6003 9.50852ZM20.964 11.1293C20.6358 11.1293 20.3541 11.0133 20.1188 10.7812C19.8868 10.5459 19.7708 10.2642 19.7708 9.93608C19.7708 9.61127 19.8868 9.33286 20.1188 9.10085C20.3541 8.86884 20.6358 8.75284 20.964 8.75284C21.2821 8.75284 21.5605 8.86884 21.7992 9.10085C22.0378 9.33286 22.1571 9.61127 22.1571 9.93608C22.1571 10.1548 22.1008 10.3554 21.9881 10.5376C21.8787 10.7166 21.7346 10.8608 21.5556 10.9702C21.3766 11.0762 21.1794 11.1293 20.964 11.1293ZM27.0343 0.818182V11H24.8816V2.86151H24.8219L22.4902 4.32315V2.41406L25.0108 0.818182H27.0343Z" fill="url(#paint0_linear_7094_5828)"/>
<defs>
<linearGradient id="paint0_linear_7094_5828" x1="23.8787" y1="-13.1852" x2="-6.79282" y2="-2.92624" gradientUnits="userSpaceOnUse">
<stop stop-color="#D0D0FF"/>
<stop offset="0.303907" stop-color="#A996F7"/>
<stop offset="0.505226" stop-color="#7280FE"/>
<stop offset="1" stop-color="#D3D6FE"/>
</linearGradient>
</defs>
</svg>
