<svg width="16" height="16" viewBox="0 0 16 16" fill="none" xmlns="http://www.w3.org/2000/svg">
<path fill-rule="evenodd" clip-rule="evenodd" d="M12.6666 3.33333H3.33329C2.59691 3.33333 1.99996 3.93029 1.99996 4.66667V11.3333C1.99996 12.0697 2.59691 12.6667 3.33329 12.6667H12.6666C13.403 12.6667 14 12.0697 14 11.3333V4.66667C14 3.93029 13.403 3.33333 12.6666 3.33333ZM3.33329 2C1.86053 2 0.666626 3.19391 0.666626 4.66667V11.3333C0.666626 12.8061 1.86053 14 3.33329 14H12.6666C14.1394 14 15.3333 12.8061 15.3333 11.3333V4.66667C15.3333 3.19391 14.1394 2 12.6666 2H3.33329Z" fill="black"/>
<path fill-rule="evenodd" clip-rule="evenodd" d="M8.66663 7.99996C8.66663 6.15901 10.159 4.66663 12 4.66663H14.6666C15.0348 4.66663 15.3333 4.9651 15.3333 5.33329C15.3333 5.70148 15.0348 5.99996 14.6666 5.99996H12C10.8954 5.99996 9.99996 6.89539 9.99996 7.99996C9.99996 9.10453 10.8954 9.99996 12 9.99996H14.6666C15.0348 9.99996 15.3333 10.2984 15.3333 10.6666C15.3333 11.0348 15.0348 11.3333 14.6666 11.3333H12C10.159 11.3333 8.66663 9.84091 8.66663 7.99996Z" fill="black"/>
<path d="M12.6667 8.00004C12.6667 8.36823 12.3682 8.66671 12 8.66671C11.6319 8.66671 11.3334 8.36823 11.3334 8.00004C11.3334 7.63185 11.6319 7.33337 12 7.33337C12.3682 7.33337 12.6667 7.63185 12.6667 8.00004Z" fill="black"/>
</svg>
