<svg width="41" height="41" viewBox="0 0 41 41" fill="none" xmlns="http://www.w3.org/2000/svg">
<path d="M18.2201 18.748C17.5361 18.748 16.9961 19.348 16.9961 20.08C16.9961 20.812 17.5481 21.412 18.2201 21.412C18.9041 21.412 19.4441 20.812 19.4441 20.08C19.4561 19.348 18.9041 18.748 18.2201 18.748ZM22.6001 18.748C21.9161 18.748 21.3761 19.348 21.3761 20.08C21.3761 20.812 21.9281 21.412 22.6001 21.412C23.2841 21.412 23.8241 20.812 23.8241 20.08C23.8241 19.348 23.2841 18.748 22.6001 18.748Z" fill="url(#paint0_radial_5130_143905)"/>
<path d="M28.4326 8.67969H12.3526C10.9966 8.67969 9.89258 9.78369 9.89258 11.1517V27.3757C9.89258 28.7437 10.9966 29.8477 12.3526 29.8477H25.9606L25.3246 27.6277L26.8606 29.0557L28.3126 30.3997L30.8926 32.6797V11.1517C30.8926 9.78369 29.7886 8.67969 28.4326 8.67969ZM23.8006 24.3517C23.8006 24.3517 23.3686 23.8357 23.0086 23.3797C24.5806 22.9357 25.1806 21.9517 25.1806 21.9517C24.6886 22.2757 24.2206 22.5037 23.8006 22.6597C23.2006 22.9117 22.6246 23.0797 22.0606 23.1757C20.9086 23.3917 19.8526 23.3317 18.9526 23.1637C18.2686 23.0317 17.6806 22.8397 17.1886 22.6477C16.9126 22.5397 16.6126 22.4077 16.3126 22.2397C16.2766 22.2157 16.2406 22.2037 16.2046 22.1797C16.1806 22.1677 16.1686 22.1557 16.1566 22.1437C15.9406 22.0237 15.8206 21.9397 15.8206 21.9397C15.8206 21.9397 16.3966 22.8997 17.9206 23.3557C17.5606 23.8117 17.1166 24.3517 17.1166 24.3517C14.4646 24.2677 13.4566 22.5277 13.4566 22.5277C13.4566 18.6637 15.1846 15.5317 15.1846 15.5317C16.9126 14.2357 18.5566 14.2717 18.5566 14.2717L18.6766 14.4157C16.5166 15.0397 15.5206 15.9877 15.5206 15.9877C15.5206 15.9877 15.7846 15.8437 16.2286 15.6397C17.5126 15.0757 18.5326 14.9197 18.9526 14.8837C19.0246 14.8717 19.0846 14.8597 19.1566 14.8597C19.8886 14.7637 20.7166 14.7397 21.5806 14.8357C22.7206 14.9677 23.9446 15.3037 25.1926 15.9877C25.1926 15.9877 24.2446 15.0877 22.2046 14.4637L22.3726 14.2717C22.3726 14.2717 24.0166 14.2357 25.7446 15.5317C25.7446 15.5317 27.4726 18.6637 27.4726 22.5277C27.4726 22.5277 26.4526 24.2677 23.8006 24.3517Z" fill="url(#paint1_radial_5130_143905)"/>
<defs>
<radialGradient id="paint0_radial_5130_143905" cx="0" cy="0" r="1" gradientUnits="userSpaceOnUse" gradientTransform="translate(20.4101 18.748) rotate(90) scale(2.664 6.828)">
<stop stop-color="white"/>
<stop offset="1" stop-color="white" stop-opacity="0.3"/>
</radialGradient>
<radialGradient id="paint1_radial_5130_143905" cx="0" cy="0" r="1" gradientUnits="userSpaceOnUse" gradientTransform="translate(20.3926 8.67969) rotate(90) scale(24 21)">
<stop stop-color="white"/>
<stop offset="1" stop-color="white" stop-opacity="0.3"/>
</radialGradient>
</defs>
</svg>
