<svg width="26" height="26" viewBox="0 0 26 26" fill="none" xmlns="http://www.w3.org/2000/svg">
<g clip-path="url(#clip0_6777_19245)">
<path d="M0 13C0 5.82021 5.82292 0 13 0C20.1771 0 26 5.82021 26 13C26 20.1798 20.1771 26 13 26C5.82292 26 0 20.1798 0 13Z" fill="white"/>
<path d="M13.0219 5.20001L12.9136 5.55535V15.8681L13.0219 15.9727L17.8102 13.143L13.0219 5.20001Z" fill="#343434"/>
<path d="M13.0217 5.20001L8.2334 13.143L13.0217 15.9727V10.9671V5.20001Z" fill="#8C8C8C"/>
<path d="M13.022 16.8783L12.9624 16.9503V20.6239L13.022 20.7961L17.8103 14.0502L13.022 16.8783Z" fill="#3C3C3B"/>
<path d="M13.0217 20.7956V16.8783L8.2334 14.0502L13.0217 20.7956Z" fill="#8C8C8C"/>
<path d="M13.0215 15.9719L17.8098 13.1422L13.0215 10.9664V15.9719Z" fill="#141414"/>
<path d="M8.2334 13.1422L13.0217 15.9719V10.9664L8.2334 13.1422Z" fill="#393939"/>
</g>
<defs>
<clipPath id="clip0_6777_19245">
<rect width="26" height="26" fill="white"/>
</clipPath>
</defs>
</svg>
