<svg width="41" height="41" viewBox="0 0 41 41" fill="none" xmlns="http://www.w3.org/2000/svg">
<path d="M28.3852 13.7626C29.2201 12.2121 28.266 10.1846 28.266 10.1846C26.1192 10.1846 24.5687 11.6158 24.5687 11.6158C23.7338 11.1387 20.9907 11.1387 20.9907 11.1387C20.9907 11.1387 18.2476 11.1387 17.4127 11.6158C17.4127 11.6158 15.8623 10.1846 13.7155 10.1846C13.7155 10.1846 12.7613 12.2121 13.5962 13.7626C13.5962 13.7626 11.6879 15.5516 12.4035 19.3681C13.076 22.9544 16.22 23.9002 18.2476 23.9002C18.2476 23.9002 17.4127 24.6158 17.532 25.8085C17.532 25.8085 16.3393 26.5241 15.1466 26.047C13.954 25.5699 13.3576 24.3773 13.3576 24.3773C13.3576 24.3773 12.165 22.8268 10.9723 23.4231C10.9723 23.4231 10.6145 23.7809 11.9264 24.3773C11.9264 24.3773 12.8806 25.8085 13.2384 26.6433C13.5962 27.4782 15.5044 28.1938 17.4127 27.7167V30.4598C17.4127 30.4598 17.4127 30.6984 16.9356 30.8176C16.4586 30.9369 16.4586 31.1754 16.6971 31.1754H25.2843C25.5228 31.1754 25.5228 30.9369 25.0458 30.8176C24.5687 30.6984 24.5687 30.4598 24.5687 30.4598V27.7167C24.5687 27.7167 24.5792 26.2863 24.5687 25.8085C24.5425 24.6101 23.7338 23.9002 23.7338 23.9002C25.7614 23.9002 28.9054 22.9544 29.5779 19.3681C30.2935 15.5516 28.3852 13.7626 28.3852 13.7626Z" fill="url(#paint0_radial_5130_143911)"/>
<defs>
<radialGradient id="paint0_radial_5130_143911" cx="0" cy="0" r="1" gradientUnits="userSpaceOnUse" gradientTransform="translate(20.3331 10.1846) rotate(90) scale(20.9909 18.8107)">
<stop stop-color="white"/>
<stop offset="1" stop-color="white" stop-opacity="0.3"/>
</radialGradient>
</defs>
</svg>
