<svg width="51" height="49" viewBox="0 0 51 49" fill="none" xmlns="http://www.w3.org/2000/svg">
<rect x="0.411377" width="48" height="48" rx="24" fill="#0072FF"/>
<path d="M32.4716 24.891C31.9089 24.0556 30.5518 23.6107 29.5807 23.3486C29.4675 23.3188 29.3497 23.289 29.2245 23.2579H29.2146C28.6916 23.1255 28.0978 22.9792 27.6358 22.7283C27.1062 22.4383 26.8467 22.0623 26.8467 21.579C26.8461 21.5006 26.8534 21.4223 26.8685 21.3454V21.3314C26.876 21.2959 26.8853 21.2608 26.8963 21.2262C26.8975 21.2215 26.8991 21.2168 26.9009 21.2123V21.207C26.9694 21.0066 27.0842 20.8251 27.2359 20.6774C27.6285 20.2802 28.2547 20.0571 28.9571 20.0571H28.9789C29.4961 20.0685 30.0051 20.1883 30.4731 20.4086C30.9406 20.6209 31.3633 20.9206 31.7183 21.2917L31.7269 22.2986V22.3092H32.6007V19.2773H31.7289V19.9644C31.7289 19.9695 31.7276 19.9744 31.7251 19.9788C31.7227 19.9832 31.7192 19.9869 31.715 19.9896C31.707 19.9896 31.6964 19.9843 31.6911 19.979C31.3219 19.6983 30.9112 19.477 30.4737 19.323C30.0046 19.1624 29.5131 19.077 29.0173 19.0701C28.4487 19.0701 27.984 19.1363 27.596 19.2627C27.2734 19.3702 26.9737 19.5371 26.7123 19.7546C26.4281 19.9766 26.1998 20.262 26.0456 20.588C25.8966 20.9022 25.8184 21.2452 25.8166 21.5929C25.8123 21.7988 25.838 22.0042 25.8927 22.2026C25.9603 22.4224 26.0607 22.6306 26.1906 22.8203C26.2019 22.8382 26.2151 22.8554 26.227 22.8726C26.2389 22.8898 26.2396 22.8891 26.2456 22.8977L26.2535 22.9083C26.8261 23.6994 28.1044 24.0496 29.0372 24.3071L29.063 24.3137L29.2702 24.3713L29.4946 24.4316C29.9807 24.5506 30.4563 24.7091 30.9166 24.9056C31.1568 25.0114 31.3689 25.1721 31.5356 25.3749C31.6898 25.5629 31.7943 25.7867 31.8394 26.0257C31.8832 26.2639 31.8652 26.5094 31.7871 26.7386C31.6956 27.0026 31.544 27.2417 31.3442 27.437C31.1252 27.6321 30.8679 27.7795 30.5889 27.87C30.3176 27.9575 30.0357 28.0081 29.7508 28.0203C29.2949 28.0423 28.8385 27.9906 28.399 27.8673C27.6543 27.6317 26.9744 27.1769 26.5335 26.6215C26.5188 26.6035 26.5078 26.5828 26.5011 26.5606L26.4925 25.6947V25.6834H25.6187V28.8531H26.4931V27.9263C26.8583 28.2477 27.2817 28.4962 27.7403 28.6584C28.2766 28.8562 28.8418 28.964 29.4132 28.9775H29.484C29.9693 28.9775 31.1046 28.9775 31.995 28.2235C32.2415 28.0102 32.4456 27.7524 32.5967 27.4635C32.742 27.1854 32.8368 26.8837 32.8768 26.5725C32.9175 26.2743 32.9036 25.9713 32.8357 25.6781C32.7717 25.3929 32.6476 25.1245 32.4716 24.891Z" fill="white"/>
<path d="M23.8413 24.8912C23.2899 24.0598 21.9275 23.6129 20.9504 23.3494C20.8392 23.3203 20.724 23.2919 20.6015 23.2614C19.5423 22.9999 18.2236 22.6736 18.2084 21.5766C18.2084 21.4114 18.2433 21.2481 18.311 21.0973C18.384 20.939 18.4854 20.7954 18.6102 20.6737C19.0074 20.2818 19.6304 20.0567 20.3274 20.0567H20.3493C20.866 20.0679 21.3746 20.1876 21.8421 20.4082C22.3078 20.6201 22.7281 20.92 23.08 21.2913L23.0972 22.2982V22.3095H23.9711V19.2775H23.0992V19.9647C23.0992 19.9696 23.0979 19.9745 23.0956 19.9788C23.0933 19.9832 23.09 19.987 23.086 19.9898C23.0794 19.9898 23.0714 19.9898 23.0615 19.9792C22.6923 19.6986 22.2815 19.4772 21.8441 19.3232C21.375 19.1626 20.8834 19.0773 20.3877 19.0703C19.8157 19.0703 19.3497 19.1365 18.9631 19.263C18.6416 19.3707 18.343 19.5376 18.0826 19.7548C17.7985 19.9769 17.5702 20.2623 17.416 20.5883C17.2661 20.9031 17.1875 21.2471 17.1856 21.5958C17.1814 21.8014 17.2066 22.0064 17.2604 22.2049C17.3265 22.4231 17.4241 22.6306 17.5504 22.8205C18.0992 23.6758 19.4417 24.0432 20.4221 24.312L20.4453 24.3179L20.6399 24.3716L20.8451 24.4265L20.8643 24.4318C21.3505 24.5507 21.826 24.7092 22.2863 24.9058C22.5274 25.0133 22.7403 25.175 22.9086 25.3785C23.0635 25.5685 23.1684 25.7942 23.2137 26.0352C23.2569 26.2738 23.2382 26.5195 23.1595 26.7488C23.0671 27.0126 22.9146 27.2513 22.7139 27.4459C22.4963 27.6404 22.24 27.7868 21.9619 27.8755C21.6899 27.9626 21.4073 28.012 21.1218 28.0225C21.0629 28.0225 21.0014 28.0264 20.9391 28.0264C20.5401 28.0274 20.143 27.9733 19.7588 27.8656C19.7144 27.8517 19.6694 27.8364 19.6264 27.8206H19.6198C19.5304 27.7888 19.441 27.7544 19.355 27.714C18.923 27.5246 18.5279 27.2604 18.1879 26.9335L18.1707 26.9169C18.1177 26.864 18.0641 26.8077 18.0124 26.7488L17.9727 26.7031C17.9496 26.676 17.9271 26.6495 17.9065 26.6217C17.8923 26.6038 17.8815 26.5833 17.8748 26.5614L17.8661 25.6956V25.6843H16.9797V28.8539H17.8628V27.9271C18.228 28.2486 18.6514 28.4971 19.11 28.6593C19.6463 28.8571 20.2115 28.9649 20.7829 28.9784H20.8537C21.3363 28.9784 22.4663 28.9784 23.3647 28.2244C23.6112 28.0111 23.8153 27.7533 23.9664 27.4644C24.1117 27.1881 24.2069 26.8882 24.2478 26.5787C24.2885 26.2805 24.2746 25.9775 24.2067 25.6843C24.1429 25.3969 24.0183 25.1265 23.8413 24.8912Z" fill="white"/>
<path d="M14.8794 28.0984L12.4909 24.4872C12.8956 24.5027 13.2984 24.4246 13.6679 24.2588C14.1902 23.9941 14.6099 23.6584 14.8675 23.1619C15.0767 22.752 15.1852 22.2981 15.1839 21.8379C15.1834 21.114 14.898 20.4194 14.3895 19.9042C13.8374 19.4038 13.1483 19.1602 12.2817 19.1602H7.65369V20.1591H8.63609V28.1103H7.56763V28.9458H10.6691V28.1103H9.67013V24.5018H11.3417L13.6818 28.1103H12.6187V28.9458H15.9564V28.1103H14.9125C14.9064 28.1107 14.9004 28.1099 14.8947 28.1078C14.889 28.1058 14.8838 28.1026 14.8794 28.0984ZM9.67013 20.1141H12.2301C13.0165 20.1141 13.6203 20.4266 13.9261 20.9634C14.0734 21.233 14.1482 21.5361 14.1434 21.8433C14.1385 22.1504 14.0541 22.451 13.8983 22.7157C13.5845 23.2453 13.2138 23.5379 12.3916 23.5379H9.67013V20.1141Z" fill="white"/>
<path d="M40.8512 26.0532C40.8512 24.8544 40.2455 23.9885 39.2406 23.6171C40.0925 23.1696 40.4686 22.4335 40.4686 21.6755C40.4686 19.9258 39.0009 18.999 37.0871 18.999C36.0425 19.007 34.929 19.3545 34.1684 20.4223L34.9628 20.9407C35.3884 20.368 35.9948 19.9258 37.0871 19.9258C38.4773 19.9258 39.4637 20.4905 39.4637 21.5656C39.4637 22.5956 38.4746 23.1696 37.4618 23.1696H36.0822V24.1626H37.5419C38.8334 24.1626 39.8542 24.8583 39.8225 26.042C39.7503 27.2998 38.6421 27.9757 37.191 27.9757C36.2576 27.9757 35.221 27.6818 34.4471 26.8543L34.4074 26.839L33.7295 27.5811L33.7613 27.5891C34.7344 28.502 35.8909 28.974 37.191 28.974C39.1929 28.97 40.8512 27.887 40.8512 26.0532Z" fill="white"/>
<path d="M6.92564 23.533H4.41138V24.5597H6.92564V23.533Z" fill="white"/>
<path d="M44.412 23.5332H41.8977V24.56H44.412V23.5332Z" fill="white"/>
<g clip-path="url(#clip0_7240_2029)">
<path d="M41.4129 32.0062C45.8299 32.0062 49.4098 35.5861 49.4098 40.0031C49.4098 44.4201 45.8299 48 41.4129 48C36.9959 48 33.416 44.4201 33.416 40.0031C33.416 35.5861 36.9974 32.0062 41.4129 32.0062Z" fill="#214CFF"/>
<path d="M41.4142 34.3007V42.2694L44.916 40.1702L41.4142 34.3007ZM41.4142 45.7056L44.916 40.6779L41.4142 42.7958V45.7056ZM41.4142 34.3007V42.2694L37.9109 40.1702L41.4142 34.3007Z" fill="white"/>
<path d="M41.4142 42.7959V45.7057L37.9109 40.678L41.4142 42.7959Z" fill="white"/>
</g>
<rect x="32.9114" y="31.5" width="17" height="17" rx="8.5" stroke="#B9BEFE"/>
<defs>
<clipPath id="clip0_7240_2029">
<rect x="33.4114" y="32" width="16" height="16" rx="8" fill="white"/>
</clipPath>
</defs>
</svg>
