<svg width="49" height="48" viewBox="0 0 49 48" fill="none" xmlns="http://www.w3.org/2000/svg">
<rect width="48" height="48" rx="24" fill="#001AFF"/>
<path d="M40.3202 30.9322L24.0002 21.4121L7.68018 30.9322L24.0002 40.4521L40.3202 30.9322Z" fill="white"/>
<path d="M9.56592 24.4375L24.0002 16.0176L38.4343 24.4375L24.0002 32.8575L9.56592 24.4375Z" fill="#3268FF" stroke="white" stroke-width="1.67048" stroke-linecap="round"/>
<path d="M40.3202 17.0669L24.0002 7.54688L7.68018 17.0669L24.0002 26.5868L40.3202 17.0669Z" fill="white"/>
<g clip-path="url(#clip0_6588_12804)">
<path d="M41.0018 31.0059C45.4188 31.0059 48.9986 34.5857 48.9986 39.0027C48.9986 43.4198 45.4188 46.9996 41.0018 46.9996C36.5847 46.9996 33.0049 43.4198 33.0049 39.0027C33.0049 34.5857 36.5863 31.0059 41.0018 31.0059Z" fill="#708CFF"/>
<path d="M41.0028 33.3008V41.2695L44.5046 39.1704L41.0028 33.3008ZM41.0028 44.7057L44.5046 39.678L41.0028 41.7959V44.7057ZM41.0028 33.3008V41.2695L37.4995 39.1704L41.0028 33.3008Z" fill="white"/>
<path d="M41.0028 41.7957V44.7055L37.4995 39.6777L41.0028 41.7957Z" fill="white"/>
</g>
<defs>
<clipPath id="clip0_6588_12804">
<rect width="16" height="16" fill="white" transform="translate(33 31)"/>
</clipPath>
</defs>
</svg>
