<svg width="41" height="41" viewBox="0 0 41 41" fill="none" xmlns="http://www.w3.org/2000/svg">
<path fill-rule="evenodd" clip-rule="evenodd" d="M11.6621 19.5676C16.8518 17.3096 20.3125 15.821 22.044 15.1018C26.9879 13.0483 28.0152 12.6916 28.6848 12.6798C28.832 12.6772 29.1613 12.7137 29.3746 12.8865C29.5547 13.0324 29.6043 13.2296 29.628 13.3679C29.6517 13.5063 29.6812 13.8215 29.6577 14.0678C29.3898 16.8789 28.2306 23.7007 27.6408 26.8491C27.3913 28.1814 26.8999 28.628 26.4242 28.6718C25.3904 28.7668 24.6054 27.9895 23.6041 27.334C22.0372 26.3084 21.1521 25.6699 19.6312 24.669C17.8735 23.5124 19.0129 22.8766 20.0146 21.8377C20.2768 21.5658 24.8318 17.4284 24.9199 17.053C24.931 17.0061 24.9412 16.8311 24.8371 16.7387C24.733 16.6463 24.5794 16.6779 24.4685 16.7031C24.3114 16.7387 21.8083 18.3908 16.9594 21.6595C16.2489 22.1467 15.6054 22.384 15.0288 22.3716C14.3931 22.3579 13.1704 22.0127 12.2615 21.7176C11.1466 21.3557 10.2605 21.1644 10.3377 20.5498C10.3779 20.2296 10.8193 19.9022 11.6621 19.5676Z" fill="url(#paint0_radial_5130_143903)"/>
<defs>
<radialGradient id="paint0_radial_5130_143903" cx="0" cy="0" r="1" gradientUnits="userSpaceOnUse" gradientTransform="translate(19.9997 12.6797) rotate(90) scale(16 19.3333)">
<stop stop-color="white"/>
<stop offset="1" stop-color="white" stop-opacity="0.3"/>
</radialGradient>
</defs>
</svg>
