<svg width="41" height="41" viewBox="0 0 41 41" fill="none" xmlns="http://www.w3.org/2000/svg">
<path d="M21.8704 20.6795C21.8704 24.4434 18.84 27.4946 15.1018 27.4946C11.3637 27.4946 8.33301 24.4427 8.33301 20.6795C8.33301 16.9164 11.3635 13.8643 15.1018 13.8643C18.8402 13.8643 21.8704 16.9157 21.8704 20.6795ZM29.2958 20.6795C29.2958 24.2224 27.7806 27.0956 25.9114 27.0956C24.0423 27.0956 22.527 24.2224 22.527 20.6795C22.527 17.1367 24.042 14.2635 25.9112 14.2635C27.7804 14.2635 29.2956 17.1358 29.2956 20.6795M32.333 20.6795C32.333 23.8531 31.8002 26.4273 31.1427 26.4273C30.4852 26.4273 29.9526 23.8538 29.9526 20.6795C29.9526 17.5053 30.4855 14.9318 31.1427 14.9318C31.7999 14.9318 32.333 17.5051 32.333 20.6795Z" fill="url(#paint0_radial_5130_143899)"/>
<defs>
<radialGradient id="paint0_radial_5130_143899" cx="0" cy="0" r="1" gradientUnits="userSpaceOnUse" gradientTransform="translate(20.333 13.8643) rotate(90) scale(13.6303 24)">
<stop stop-color="white"/>
<stop offset="1" stop-color="white" stop-opacity="0.3"/>
</radialGradient>
</defs>
</svg>
