<svg width="41" height="41" viewBox="0 0 41 41" fill="none" xmlns="http://www.w3.org/2000/svg">
<g clip-path="url(#clip0_5130_143909)">
<path d="M32.333 20.0955C32.333 18.4155 31.013 17.0955 29.333 17.0955C28.613 17.0955 27.893 17.3355 27.413 17.8155C25.613 16.7355 23.453 16.0155 20.933 15.8955L22.253 11.0955L26.333 12.2955C26.333 13.6155 27.413 14.6955 28.733 14.6955C30.053 14.6955 31.133 13.6155 31.133 12.2955C31.133 10.9755 30.053 9.89547 28.733 9.89547C27.893 9.89547 27.053 10.3755 26.693 11.0955L21.893 9.89547C21.533 9.77547 21.293 10.0155 21.173 10.3755L19.733 15.8955C17.333 16.0155 15.053 16.7355 13.253 17.8155C12.773 17.3355 12.053 17.0955 11.333 17.0955C9.65301 17.0955 8.33301 18.4155 8.33301 20.0955C8.33301 21.1755 8.81301 22.0155 9.65301 22.6155L9.53301 23.6955C9.53301 28.0155 14.333 31.4955 20.333 31.4955C26.333 31.4955 31.133 28.0155 31.133 23.6955L31.013 22.6155C31.853 22.0155 32.333 21.1755 32.333 20.0955ZM16.733 20.4555C17.573 20.4555 18.173 21.1755 18.173 21.8955C18.173 22.6155 17.573 23.3355 16.733 23.3355C15.893 23.3355 15.293 22.7355 15.293 21.8955C15.293 21.0555 15.893 20.4555 16.733 20.4555ZM24.893 26.9355C22.733 28.2555 17.933 28.2555 15.773 26.9355C15.533 26.6955 15.413 26.3355 15.653 26.0955C15.893 25.8555 16.253 25.7355 16.493 25.9755C17.933 27.0555 22.733 27.0555 24.173 25.9755C24.413 25.7355 24.773 25.8555 25.013 26.0955C25.253 26.3355 25.133 26.6955 24.893 26.9355ZM23.933 23.3355C23.093 23.3355 22.493 22.6155 22.493 21.8955C22.493 21.0555 23.213 20.4555 23.933 20.4555C24.773 20.4555 25.373 21.1755 25.373 21.8955C25.373 22.7355 24.773 23.3355 23.933 23.3355Z" fill="url(#paint0_radial_5130_143909)"/>
</g>
<defs>
<radialGradient id="paint0_radial_5130_143909" cx="0" cy="0" r="1" gradientUnits="userSpaceOnUse" gradientTransform="translate(20.333 9.86426) rotate(90) scale(21.6312 24)">
<stop stop-color="white"/>
<stop offset="1" stop-color="white" stop-opacity="0.3"/>
</radialGradient>
<clipPath id="clip0_5130_143909">
<rect width="24" height="24" fill="white" transform="translate(8.33301 8.67969)"/>
</clipPath>
</defs>
</svg>
