<svg width="41" height="41" viewBox="0 0 41 41" fill="none" xmlns="http://www.w3.org/2000/svg">
<g clip-path="url(#clip0_5130_143897)">
<path d="M29.3862 15.9333C29.4011 16.1346 29.4011 16.3359 29.4011 16.5372C29.4011 22.6767 24.5622 29.7508 15.718 29.7508C12.9933 29.7508 10.4622 28.9887 8.33301 27.666C8.72014 27.7091 9.09233 27.7234 9.49436 27.7234C11.7426 27.7234 13.8122 26.9902 15.4649 25.7393C13.3506 25.6961 11.5788 24.359 10.9684 22.5185C11.2662 22.5616 11.5639 22.5904 11.8766 22.5904C12.3084 22.5904 12.7402 22.5329 13.1422 22.4323C10.9386 22.0009 9.28587 20.1317 9.28587 17.8744V17.8169C9.92608 18.162 10.6706 18.3776 11.4597 18.4064C10.1643 17.5724 9.31566 16.149 9.31566 14.5386C9.31566 13.6759 9.55385 12.8851 9.97077 12.195C12.3382 15.0131 15.8967 16.8535 19.8869 17.0548C19.8125 16.7097 19.7678 16.3503 19.7678 15.9908C19.7678 13.4315 21.9119 11.3467 24.577 11.3467C25.9617 11.3467 27.2124 11.9074 28.0908 12.8133C29.1777 12.612 30.2199 12.2237 31.1431 11.6918C30.7857 12.7701 30.0264 13.676 29.0289 14.2511C29.9967 14.1505 30.9347 13.8916 31.7982 13.5322C31.1432 14.4523 30.3243 15.2719 29.3862 15.9333Z" fill="url(#paint0_radial_5130_143897)"/>
</g>
<defs>
<radialGradient id="paint0_radial_5130_143897" cx="0" cy="0" r="1" gradientUnits="userSpaceOnUse" gradientTransform="translate(20.0656 11.3467) rotate(90) scale(18.4041 23.4652)">
<stop stop-color="white"/>
<stop offset="1" stop-color="white" stop-opacity="0.3"/>
</radialGradient>
<clipPath id="clip0_5130_143897">
<rect width="24" height="24" fill="white" transform="translate(8.33301 8.67969)"/>
</clipPath>
</defs>
</svg>
