<svg width="41" height="41" viewBox="0 0 41 41" fill="none" xmlns="http://www.w3.org/2000/svg">
<g clip-path="url(#clip0_5130_143913)">
<path d="M31.8281 14.8849C31.6891 14.3867 31.4238 13.9327 31.0581 13.567C30.6923 13.2012 30.2383 12.936 29.7401 12.7969C27.8701 12.2959 20.3441 12.2959 20.3441 12.2959C20.3441 12.2959 12.8371 12.2859 10.9481 12.7969C10.4499 12.936 9.99593 13.2012 9.63016 13.567C9.26439 13.9327 8.99916 14.3867 8.86011 14.8849C8.50563 16.7994 8.33087 18.7429 8.33811 20.6899C8.33224 22.6296 8.50699 24.5656 8.86011 26.4729C8.99916 26.9712 9.26439 27.4251 9.63016 27.7909C9.99593 28.1566 10.4499 28.4219 10.9481 28.5609C12.8161 29.0629 20.3441 29.0629 20.3441 29.0629C20.3441 29.0629 27.8501 29.0629 29.7401 28.5609C30.2383 28.4219 30.6923 28.1566 31.0581 27.7909C31.4238 27.4251 31.6891 26.9712 31.8281 26.4729C32.1738 24.5649 32.3412 22.6289 32.3281 20.6899C32.3426 18.7436 32.1752 16.8001 31.8281 14.8849ZM17.9421 24.2809V17.0879L24.2061 20.6899L17.9421 24.2809Z" fill="url(#paint0_radial_5130_143913)"/>
</g>
<defs>
<radialGradient id="paint0_radial_5130_143913" cx="0" cy="0" r="1" gradientUnits="userSpaceOnUse" gradientTransform="translate(20.3334 12.2959) rotate(90) scale(16.767 23.9911)">
<stop stop-color="white"/>
<stop offset="1" stop-color="white" stop-opacity="0.3"/>
</radialGradient>
<clipPath id="clip0_5130_143913">
<rect width="24" height="24" fill="white" transform="translate(8.33301 8.67969)"/>
</clipPath>
</defs>
</svg>
