<svg fill="none" height="24" viewBox="0 0 25 24" width="25" xmlns="http://www.w3.org/2000/svg" xmlns:xlink="http://www.w3.org/1999/xlink"><linearGradient id="a"><stop offset="0" stop-color="#fff"/><stop offset="1" stop-color="#fff" stop-opacity=".3"/></linearGradient><radialGradient id="b" cx="0" cy="0" gradientTransform="matrix(0 2.664 -6.828 0 12.4113 10.068)" gradientUnits="userSpaceOnUse" r="1" xlink:href="#a"/><radialGradient id="c" cx="0" cy="0" gradientTransform="matrix(0 24 -21 0 12.3934 0)" gradientUnits="userSpaceOnUse" r="1" xlink:href="#a"/><path d="m10.2213 10.068c-.68395 0-1.22396.6-1.22396 1.332s.55201 1.332 1.22396 1.332c.684 0 1.224-.6 1.224-1.332.012-.732-.54-1.332-1.224-1.332zm4.38 0c-.684 0-1.224.6-1.224 1.332s.552 1.332 1.224 1.332c.684 0 1.224-.6 1.224-1.332s-.54-1.332-1.224-1.332z" fill="url(#b)"/><path d="m20.4334 0h-16.08004c-1.356 0-2.46 1.104-2.46 2.472v16.224c0 1.368 1.104 2.472 2.46 2.472h13.60804l-.636-2.22 1.536 1.428 1.452 1.344 2.58 2.28v-21.528c0-1.368-1.104-2.472-2.46-2.472zm-4.632 15.672s-.432-.516-.792-.972c1.572-.444 2.172-1.428 2.172-1.428-.492.324-.96.552-1.38.708-.6.252-1.176.42-1.74.516-1.152.216-2.208.156-3.108-.012-.684-.132-1.27204-.324-1.76404-.516-.276-.108-.576-.24-.876-.408-.036-.024-.072-.036-.108-.06-.024-.012-.036-.024-.048-.036-.216-.12-.336-.204-.336-.204s.576.96 2.1 1.416c-.36.456-.804.996-.804.996-2.652-.084-3.66-1.824-3.66-1.824 0-3.864 1.728-6.996 1.728-6.996 1.728-1.296 3.37204-1.26 3.37204-1.26l.12.144c-2.16004.624-3.15604 1.572-3.15604 1.572s.264-.144.708-.348c1.284-.564 2.30404-.72 2.72404-.756.072-.012.132-.024.204-.024.732-.096 1.56-.12 2.424-.024 1.14.132 2.364.468 3.612 1.152 0 0-.948-.9-2.988-1.524l.168-.192s1.644-.036 3.372 1.26c0 0 1.728 3.132 1.728 6.996 0 0-1.02 1.74-3.672 1.824z" fill="url(#c)"/></svg>