<svg fill="none" height="24" viewBox="0 0 25 24" width="25" xmlns="http://www.w3.org/2000/svg" xmlns:xlink="http://www.w3.org/1999/xlink"><radialGradient id="a" cx="0" cy="0" gradientTransform="matrix(0 20.9909 -18.8107 0 12.3334 1.50452)" gradientUnits="userSpaceOnUse" r="1"><stop offset="0" stop-color="#fff"/><stop offset="1" stop-color="#fff" stop-opacity=".3"/></radialGradient><path d="m20.3855 5.08251c.8349-1.55046-.1192-3.57799-.1192-3.57799-2.1468 0-3.6973 1.43118-3.6973 1.43118-.8349-.47707-3.578-.47707-3.578-.47707s-2.7431 0-3.57798.47707c0 0-1.55046-1.43118-3.69726-1.43118 0 0-.95414 2.02753-.11928 3.57799 0 0-1.90825 1.78901-1.19266 5.60549.67245 3.5864 3.81652 4.5322 5.84408 4.5322 0 0-.8349.7156-.71563 1.9082 0 0-1.19266.7156-2.38533.2385-1.19266-.477-1.789-1.6697-1.789-1.6697s-1.19267-1.5505-2.38533-.9541c0 0-.3578.3578.95414.9541 0 0 .95414 1.4312 1.31194 2.2661.35779.8348 2.26605 1.5504 4.17433 1.0734v2.7431s0 .2385-.47707.3578-.47707.3578-.23852.3578h8.58717c.2385 0 .2385-.2385-.2385-.3578-.4771-.1193-.4771-.3578-.4771-.3578v-2.7431s.0105-1.4304 0-1.9083c-.0262-1.1983-.8349-1.9083-.8349-1.9083 2.0276 0 5.1716-.9457 5.8441-4.5321.7156-3.81648-1.1927-5.60549-1.1927-5.60549z" fill="url(#a)"/></svg>