<svg fill="none" height="14" viewBox="0 0 25 14" width="25" xmlns="http://www.w3.org/2000/svg" xmlns:xlink="http://www.w3.org/1999/xlink"><radialGradient id="a" cx="0" cy="0" gradientTransform="matrix(0 13.6303 -24 0 12.3334 .184814)" gradientUnits="userSpaceOnUse" r="1"><stop offset="0" stop-color="#fff"/><stop offset="1" stop-color="#fff" stop-opacity=".3"/></radialGradient><path d="m13.8708 7.0001c0 3.7639-3.0305 6.8151-6.76859 6.8151-3.73811 0-6.768836-3.0519-6.768836-6.8151 0-3.76317 3.030496-6.815286 6.768836-6.815286 3.73829 0 6.76859 3.051426 6.76859 6.815286zm7.4254 0c0 3.5429-1.5152 6.4161-3.3844 6.4161s-3.3844-2.8732-3.3844-6.4161c0-3.54286 1.515-6.416064 3.3842-6.416064 1.8691 0 3.3844 2.872284 3.3844 6.416064m3.0374 0c0 3.1735-.5329 5.7478-1.1903 5.7478-.6575 0-1.1901-2.5736-1.1901-5.7478 0-3.17423.5328-5.74778 1.1901-5.74778.6572 0 1.1903 2.57332 1.1903 5.74778z" fill="url(#a)"/></svg>