<svg fill="none" height="24" viewBox="0 0 25 24" width="25" xmlns="http://www.w3.org/2000/svg" xmlns:xlink="http://www.w3.org/1999/xlink"><radialGradient id="a" cx="0" cy="0" gradientTransform="matrix(0 21.6312 -24 0 12.3334 1.18445)" gradientUnits="userSpaceOnUse" r="1"><stop offset="0" stop-color="#fff"/><stop offset="1" stop-color="#fff" stop-opacity=".3"/></radialGradient><clipPath id="b"><path d="m.333374 0h24v24h-24z"/></clipPath><g clip-path="url(#b)"><path d="m24.3334 11.4157c0-1.68004-1.32-3.00004-3-3.00004-.72 0-1.44.24-1.92.72-1.8-1.08-3.96-1.8-6.48-1.92l1.32-4.8 4.08 1.2c0 1.32 1.08 2.4 2.4 2.4s2.4-1.08 2.4-2.4-1.08-2.4-2.4-2.4c-.84 0-1.68.48-2.04 1.2l-4.8-1.2c-.36-.12-.6.12-.72.48l-1.44 5.52c-2.40003.12-4.68003.84-6.48003 1.92-.48-.48-1.2-.72-1.92-.72-1.68 0-2.999996 1.32-2.999996 3.00004 0 1.08.48 1.92 1.319996 2.52l-.12 1.08c0 4.32 4.8 7.8 10.80003 7.8 6 0 10.8-3.48 10.8-7.8l-.12-1.08c.84-.6 1.32-1.44 1.32-2.52zm-15.60003.36c.84 0 1.44003.72 1.44003 1.44s-.60003 1.44-1.44003 1.44-1.44-.6-1.44-1.44.6-1.44 1.44-1.44zm8.16003 6.48c-2.16 1.32-6.96003 1.32-9.12003 0-.24-.24-.36-.6-.12-.84s.6-.36.84-.12c1.44 1.08 6.24003 1.08 7.68003 0 .24-.24.6-.12.84.12s.12.6-.12.84zm-.96-3.6c-.84 0-1.44-.72-1.44-1.44 0-.84.72-1.44 1.44-1.44.84 0 1.44.72 1.44 1.44 0 .84-.6 1.44-1.44 1.44z" fill="url(#a)"/></g></svg>