<svg fill="none" height="24" viewBox="0 0 25 24" width="25" xmlns="http://www.w3.org/2000/svg" xmlns:xlink="http://www.w3.org/1999/xlink"><radialGradient id="a" cx="0" cy="0" gradientTransform="matrix(0 16 -19.3333 0 12 4)" gradientUnits="userSpaceOnUse" r="1"><stop offset="0" stop-color="#fff"/><stop offset="1" stop-color="#fff" stop-opacity=".3"/></radialGradient><path clip-rule="evenodd" d="m3.66244 10.8879c5.18974-2.25797 8.65036-3.74656 10.38196-4.46578 4.9439-2.0535 5.9712-2.41022 6.6407-2.42199.1473-.0026.4766.03385.6899.20669.1801.14593.2296.34308.2533.48144.0238.13837.0533.45357.0298.69985-.2679 2.81109-1.4271 9.63289-2.0169 12.78129-.2496 1.3323-.7409 1.779-1.2166 1.8227-1.0338.095-1.8189-.6823-2.8202-1.3378-1.5668-1.0256-2.452-1.6641-3.9729-2.665-1.75761-1.1566-.6182-1.7924.3835-2.8313.2621-.2719 4.8171-4.40933 4.9053-4.78465.011-.04694.0213-.22192-.0828-.31431-.1041-.0924-.2578-.0608-.3686-.03567-.1572.03561-2.6602 1.68775-7.50916 4.95643-.71048.4872-1.35401.7246-1.93059.7121-.63563-.0137-1.85834-.3589-2.7673-.6539-1.11487-.3619-2.00095-.5533-1.92379-1.1679.04019-.3201.48165-.6475 1.32438-.9822z" fill="url(#a)" fill-rule="evenodd"/></svg>