<svg xmlns="http://www.w3.org/2000/svg" width="25" height="24" fill="none" viewBox="0 0 25 24">
    <g clip-path="url(#clip0_7462_3938)">
        <path fill="url(#paint0_radial_7462_3938)" d="M21.3866 7.25325C21.4015 7.45454 21.4015 7.65587 21.4015 7.85715C21.4015 13.9966 16.5626 21.0707 7.71839 21.0707C4.99367 21.0707 2.46253 20.3086 0.333374 18.9859C0.720506 19.029 1.0927 19.0434 1.49472 19.0434C3.74295 19.0434 5.81257 18.3101 7.46527 17.0592C5.35101 17.0161 3.57919 15.6789 2.96873 13.8385C3.26654 13.8816 3.5643 13.9104 3.877 13.9104C4.30877 13.9104 4.74059 13.8528 5.14257 13.7522C2.93898 13.3208 1.28624 11.4517 1.28624 9.19432V9.13683C1.92645 9.48191 2.67097 9.69757 3.46003 9.7263C2.16468 8.89235 1.31603 7.46892 1.31603 5.85855C1.31603 4.99588 1.55421 4.20508 1.97113 3.51492C4.33852 6.33304 7.89704 8.17342 11.8873 8.37475C11.8129 8.02967 11.7682 7.67025 11.7682 7.31079C11.7682 4.75144 13.9122 2.66663 16.5774 2.66663C17.962 2.66663 19.2127 3.22737 20.0912 4.1332C21.1781 3.93192 22.2203 3.54369 23.1435 3.01171C22.7861 4.09009 22.0268 4.99592 21.0292 5.57101C21.997 5.47041 22.935 5.21155 23.7986 4.85213C23.1436 5.77229 22.3246 6.59182 21.3866 7.25325Z"/>
    </g>
    <defs>
        <radialGradient id="paint0_radial_7462_3938" cx="0" cy="0" r="1" gradientTransform="translate(12.066 2.66663) rotate(90) scale(18.4041 23.4652)" gradientUnits="userSpaceOnUse">
            <stop stop-color="white"/>
            <stop offset="1" stop-color="white" stop-opacity="0.3"/>
        </radialGradient>
        <clipPath id="clip0_7462_3938">
            <rect width="24" height="24" fill="white" transform="translate(0.333374)"/>
        </clipPath>
    </defs>
</svg>
