<svg fill="none" height="24" viewBox="0 0 25 24" width="25" xmlns="http://www.w3.org/2000/svg" xmlns:xlink="http://www.w3.org/1999/xlink"><radialGradient id="a" cx="0" cy="0" gradientTransform="matrix(0 16.767 -23.9911 0 12.3336 3.61597)" gradientUnits="userSpaceOnUse" r="1"><stop offset="0" stop-color="#fff"/><stop offset="1" stop-color="#fff" stop-opacity=".3"/></radialGradient><clipPath id="b"><path d="m.333374 0h24v24h-24z"/></clipPath><g clip-path="url(#b)"><path d="m23.8283 6.20498c-.1391-.49824-.4043-.95218-.7701-1.31795-.3657-.36577-.8197-.631-1.3179-.77005-1.87-.501-9.396-.501-9.396-.501s-7.50703-.01-9.39603.501c-.49823.13905-.95218.40428-1.31795.77005s-.630995.81971-.770046 1.31795c-.354479 1.91451-.529239 3.85792-.522 5.80502-.00587 1.9397.168884 3.8757.522 5.783.139051.4982.404276.9522.770046 1.3179.36577.3658.81972.631 1.31795.7701 1.868.502 9.39603.502 9.39603.502s7.506 0 9.396-.502c.4982-.1391.9522-.4043 1.3179-.7701.3658-.3657.631-.8197.7701-1.3179.3457-1.908.5131-3.844.5-5.783.0145-1.9464-.1529-3.88981-.5-5.80502zm-13.88603 9.39602v-7.19302l6.26403 3.60202z" fill="url(#a)"/></g></svg>