<svg fill="none" height="36" viewBox="0 0 36 36" width="36" xmlns="http://www.w3.org/2000/svg"><path d="m32 18c0 7.732-6.268 14-14 14s-14-6.268-14-14 6.268-14 14-14 14 6.268 14 14zm-16.7322-6.2678c-.9763-.9763-2.5593-.9763-3.5356 0s-.9763 2.5593 0 3.5356l2.7323 2.7322-2.7323 2.7322c-.9763.9763-.9763 2.5593 0 3.5356s2.5593.9763 3.5356 0l2.7322-2.7323 2.7322 2.7323c.9763.9763 2.5593.9763 3.5356 0s.9763-2.5593 0-3.5356l-2.7323-2.7322 2.7323-2.7322c.9763-.9763.9763-2.5593 0-3.5356s-2.5593-.9763-3.5356 0l-2.7322 2.7323z" fill="#eb2f45" stroke="#eb2f45" stroke-width="2"/></svg>