<svg fill="none" height="36" viewBox="0 0 36 36" width="36" xmlns="http://www.w3.org/2000/svg" xmlns:xlink="http://www.w3.org/1999/xlink"><linearGradient id="a" gradientUnits="userSpaceOnUse" x1="29.6426" x2="-11.6164" y1="-31.3333" y2="-24.6712"><stop offset="0" stop-color="#d0d0ff"/><stop offset=".303907" stop-color="#a996f7"/><stop offset=".505226" stop-color="#7280fe"/><stop offset="1" stop-color="#d3d6fe"/></linearGradient><clipPath id="b"><rect height="36" rx="18" width="36"/></clipPath><g clip-path="url(#b)"><path d="m34.0425 15.7464c.9844-.1383 1.6793-1.0517 1.4435-2.0174-.6413-2.6252-1.8675-5.08031-3.596-7.17751-2.1114-2.56162-4.89-4.48948-8.0287-5.570444-3.1386-1.0809605-6.5151-1.27291-9.7561-.554627-3.2409.718281-6.22014 2.318821-8.60821 4.624651-2.38807 2.30584-4.09198 5.22713-4.923355 8.44093-.831371 3.2138-.757814 6.595.212538 9.7696.970347 3.1746 2.799697 6.019 5.285787 8.2188 2.03536 1.801 4.44604 3.1124 7.04714 3.8452.9568.2696 1.8941-.3929 2.0668-1.3719s-.4861-1.9017-1.4359-2.1951c-1.9489-.6021-3.75457-1.6135-5.29243-2.9743-1.98887-1.7598-3.45235-4.0354-4.22863-6.575-.77628-2.5397-.83513-5.2446-.17003-7.8157.66509-2.571 2.02822-4.90807 3.93868-6.75274s4.29381-3.1251 6.88661-3.69973c2.5928-.57462 5.2939-.42106 7.8049.44371 2.5109.86476 4.7338 2.40706 6.4229 4.45635 1.306 1.58461 2.2536 3.42461 2.787 5.39341.2599.9595 1.159 1.6501 2.1435 1.5118z" fill="#b1b5c4"/><path d="m34.2 18c.9941 0 1.8093.8079 1.7101 1.797-.1753 1.7473-.6058 3.4629-1.2803 5.0913-.9046 2.1839-2.2304 4.1682-3.9019 5.8396-1.6714 1.6715-3.6557 2.9973-5.8396 3.9019-1.6284.6745-3.344 1.105-5.0913 1.2803-.9891.0992-1.797-.716-1.797-1.7101s.809-1.7884 1.7953-1.9124c1.2742-.1601 2.5239-.4902 3.7153-.9837 1.7471-.7237 3.3346-1.7844 4.6717-3.1216 1.3372-1.3371 2.3979-2.9246 3.1216-4.6717.4935-1.1914.8236-2.4411.9837-3.7153.124-.9863.9183-1.7953 1.9124-1.7953z" fill="url(#a)"/></g></svg>