<svg width="29" height="12" viewBox="0 0 29 12" fill="none" xmlns="http://www.w3.org/2000/svg">
<mask id="path-1-outside-1_6544_19046" maskUnits="userSpaceOnUse" x="-1.33301" y="-1" width="32" height="14" fill="black">
<rect fill="white" x="-1.33301" y="-1" width="32" height="14"/>
<path d="M0.818992 2.488C1.48033 2.392 2.07766 2.19467 2.61099 1.896C3.15499 1.59733 3.58699 1.24533 3.90699 0.839999H6.35499L4.17899 11H0.722992L2.30699 3.56H0.578992L0.818992 2.488ZM9.27437 9.592C9.27437 9.83733 9.22103 10.056 9.11437 10.248C9.01837 10.44 8.88503 10.6 8.71437 10.728C8.55437 10.856 8.3677 10.952 8.15437 11.016C7.94103 11.0907 7.71703 11.128 7.48237 11.128C7.07703 11.128 6.73037 11.0213 6.44237 10.808C6.16503 10.584 6.02637 10.2373 6.02637 9.768C6.02637 9.52267 6.07437 9.304 6.17037 9.112C6.26637 8.92 6.39437 8.76 6.55437 8.632C6.71437 8.504 6.8957 8.408 7.09837 8.344C7.3117 8.26933 7.53037 8.232 7.75437 8.232C8.1917 8.232 8.55437 8.344 8.84237 8.568C9.13037 8.78133 9.27437 9.12267 9.27437 9.592ZM10.721 9.432C11.457 9.19733 12.1717 8.904 12.865 8.552C13.5583 8.18933 14.177 7.75733 14.721 7.256C15.265 6.744 15.697 6.152 16.017 5.48C16.3477 4.808 16.513 4.03467 16.513 3.16C16.513 2.73333 16.4703 2.40267 16.385 2.168C16.2997 1.93333 16.1503 1.816 15.937 1.816C15.745 1.816 15.5637 1.90667 15.393 2.088C15.233 2.26933 15.0837 2.49867 14.945 2.776C14.817 3.05333 14.6943 3.36267 14.577 3.704C14.4703 4.04533 14.3797 4.376 14.305 4.696H11.409L11.937 2.296C12.5343 1.784 13.1637 1.38933 13.825 1.112C14.4863 0.823999 15.233 0.679999 16.065 0.679999C16.577 0.679999 17.057 0.738666 17.505 0.856C17.9637 0.973333 18.3583 1.16 18.689 1.416C19.0303 1.66133 19.297 1.976 19.489 2.36C19.6917 2.73333 19.793 3.18133 19.793 3.704C19.793 4.09867 19.7237 4.488 19.585 4.872C19.457 5.256 19.2223 5.656 18.881 6.072C18.5503 6.47733 18.097 6.904 17.521 7.352C16.9557 7.78933 16.2357 8.264 15.361 8.776H18.929L18.609 11H10.369L10.721 9.432ZM24.7654 5.928L26.4454 4.12H28.2854L25.3894 7.096L27.4534 11H24.0614L22.9414 8.888L20.8294 11H18.9894L22.3334 7.736L20.4294 4.12H23.8054L24.7654 5.928Z"/>
</mask>
<path d="M0.818992 2.488C1.48033 2.392 2.07766 2.19467 2.61099 1.896C3.15499 1.59733 3.58699 1.24533 3.90699 0.839999H6.35499L4.17899 11H0.722992L2.30699 3.56H0.578992L0.818992 2.488ZM9.27437 9.592C9.27437 9.83733 9.22103 10.056 9.11437 10.248C9.01837 10.44 8.88503 10.6 8.71437 10.728C8.55437 10.856 8.3677 10.952 8.15437 11.016C7.94103 11.0907 7.71703 11.128 7.48237 11.128C7.07703 11.128 6.73037 11.0213 6.44237 10.808C6.16503 10.584 6.02637 10.2373 6.02637 9.768C6.02637 9.52267 6.07437 9.304 6.17037 9.112C6.26637 8.92 6.39437 8.76 6.55437 8.632C6.71437 8.504 6.8957 8.408 7.09837 8.344C7.3117 8.26933 7.53037 8.232 7.75437 8.232C8.1917 8.232 8.55437 8.344 8.84237 8.568C9.13037 8.78133 9.27437 9.12267 9.27437 9.592ZM10.721 9.432C11.457 9.19733 12.1717 8.904 12.865 8.552C13.5583 8.18933 14.177 7.75733 14.721 7.256C15.265 6.744 15.697 6.152 16.017 5.48C16.3477 4.808 16.513 4.03467 16.513 3.16C16.513 2.73333 16.4703 2.40267 16.385 2.168C16.2997 1.93333 16.1503 1.816 15.937 1.816C15.745 1.816 15.5637 1.90667 15.393 2.088C15.233 2.26933 15.0837 2.49867 14.945 2.776C14.817 3.05333 14.6943 3.36267 14.577 3.704C14.4703 4.04533 14.3797 4.376 14.305 4.696H11.409L11.937 2.296C12.5343 1.784 13.1637 1.38933 13.825 1.112C14.4863 0.823999 15.233 0.679999 16.065 0.679999C16.577 0.679999 17.057 0.738666 17.505 0.856C17.9637 0.973333 18.3583 1.16 18.689 1.416C19.0303 1.66133 19.297 1.976 19.489 2.36C19.6917 2.73333 19.793 3.18133 19.793 3.704C19.793 4.09867 19.7237 4.488 19.585 4.872C19.457 5.256 19.2223 5.656 18.881 6.072C18.5503 6.47733 18.097 6.904 17.521 7.352C16.9557 7.78933 16.2357 8.264 15.361 8.776H18.929L18.609 11H10.369L10.721 9.432ZM24.7654 5.928L26.4454 4.12H28.2854L25.3894 7.096L27.4534 11H24.0614L22.9414 8.888L20.8294 11H18.9894L22.3334 7.736L20.4294 4.12H23.8054L24.7654 5.928Z" fill="white"/>
<path d="M0.818992 2.488L0.675337 1.49837L-0.00635836 1.59733L-0.156851 2.26953L0.818992 2.488ZM2.61099 1.896L2.12972 1.01939L2.12239 1.02349L2.61099 1.896ZM3.90699 0.839999V-0.160001H3.42239L3.12211 0.220355L3.90699 0.839999ZM6.35499 0.839999L7.33282 1.04942L7.59184 -0.160001H6.35499V0.839999ZM4.17899 11V12H4.9875L5.15682 11.2094L4.17899 11ZM0.722992 11L-0.255086 10.7918L-0.512324 12H0.722992V11ZM2.30699 3.56L3.28507 3.76824L3.54231 2.56H2.30699V3.56ZM0.578992 3.56L-0.396851 3.34153L-0.669643 4.56H0.578992V3.56ZM0.962648 3.47763C1.73384 3.36568 2.44988 3.13235 3.0996 2.76851L2.12239 1.02349C1.70544 1.25698 1.22681 1.41832 0.675337 1.49837L0.962648 3.47763ZM3.09225 2.77258C3.73046 2.42219 4.27394 1.98903 4.69188 1.45964L3.12211 0.220355C2.90004 0.501638 2.57953 0.772477 2.12973 1.01942L3.09225 2.77258ZM3.90699 1.84H6.35499V-0.160001H3.90699V1.84ZM5.37717 0.630575L3.20117 10.7906L5.15682 11.2094L7.33282 1.04942L5.37717 0.630575ZM4.17899 10H0.722992V12H4.17899V10ZM1.70107 11.2082L3.28507 3.76824L1.32891 3.35176L-0.255086 10.7918L1.70107 11.2082ZM2.30699 2.56H0.578992V4.56H2.30699V2.56ZM1.55484 3.77847L1.79484 2.70647L-0.156851 2.26953L-0.396851 3.34153L1.55484 3.77847ZM9.11437 10.248L8.24021 9.76236L8.22966 9.78135L8.21994 9.80079L9.11437 10.248ZM8.71437 10.728L8.11437 9.928L8.10187 9.93737L8.08967 9.94713L8.71437 10.728ZM8.15437 11.016L7.86702 10.0582L7.84536 10.0647L7.82402 10.0721L8.15437 11.016ZM6.44237 10.808L5.81403 11.5859L5.83032 11.5991L5.84714 11.6116L6.44237 10.808ZM6.17037 9.112L5.27594 8.66479L6.17037 9.112ZM6.55437 8.632L7.17906 9.41287H7.17906L6.55437 8.632ZM7.09837 8.344L7.3995 9.29758L7.41418 9.29295L7.42872 9.28786L7.09837 8.344ZM8.84237 8.568L8.22843 9.35735L8.2377 9.36456L8.24714 9.37156L8.84237 8.568ZM8.27437 9.592C8.27437 9.68765 8.25503 9.73568 8.24021 9.76236L9.98852 10.7336C10.187 10.3763 10.2744 9.98701 10.2744 9.592H8.27437ZM8.21994 9.80079C8.19292 9.85483 8.16004 9.89375 8.11437 9.928L9.31437 11.528C9.61003 11.3063 9.84382 11.0252 10.0088 10.6952L8.21994 9.80079ZM8.08967 9.94713C8.03814 9.98835 7.96834 10.0278 7.86702 10.0582L8.44172 11.9738C8.76706 11.8762 9.07059 11.7236 9.33906 11.5089L8.08967 9.94713ZM7.82402 10.0721C7.72089 10.1082 7.6089 10.128 7.48237 10.128V12.128C7.82517 12.128 8.16118 12.0731 8.48472 11.9599L7.82402 10.0721ZM7.48237 10.128C7.26203 10.128 7.13119 10.0738 7.03759 10.0044L5.84714 11.6116C6.32954 11.9689 6.89204 12.128 7.48237 12.128V10.128ZM7.0707 10.0301C7.06861 10.0284 7.06854 10.028 7.06845 10.0279C7.06821 10.0276 7.06437 10.0224 7.05884 10.0086C7.04719 9.97946 7.02637 9.90691 7.02637 9.768H5.02637C5.02637 10.4367 5.23187 11.1157 5.81403 11.5859L7.0707 10.0301ZM7.02637 9.768C7.02637 9.65563 7.04754 9.59372 7.06479 9.55921L5.27594 8.66479C5.10119 9.01428 5.02637 9.3897 5.02637 9.768H7.02637ZM7.06479 9.55921C7.09924 9.49032 7.13744 9.44617 7.17906 9.41287L5.92967 7.85113C5.6513 8.07383 5.4335 8.34968 5.27594 8.66479L7.06479 9.55921ZM7.17906 9.41287C7.2392 9.36476 7.30996 9.32586 7.3995 9.29758L6.79724 7.39042C6.48144 7.49014 6.18954 7.64324 5.92967 7.85113L7.17906 9.41287ZM7.42872 9.28786C7.53685 9.25001 7.64389 9.232 7.75437 9.232V7.232C7.41685 7.232 7.08655 7.28866 6.76802 7.40014L7.42872 9.28786ZM7.75437 9.232C8.01497 9.232 8.14888 9.29548 8.22843 9.35735L9.45631 7.77865C8.95986 7.39252 8.36843 7.232 7.75437 7.232V9.232ZM8.24714 9.37156C8.24773 9.372 8.24522 9.37005 8.24242 9.36647C8.23976 9.36304 8.24123 9.36375 8.245 9.3727C8.25326 9.39226 8.27437 9.45655 8.27437 9.592H10.2744C10.2744 8.9131 10.0556 8.22222 9.4376 7.76444L8.24714 9.37156ZM10.721 9.432L10.4172 8.47926L9.87088 8.65345L9.74528 9.21296L10.721 9.432ZM12.865 8.552L13.3177 9.44373L13.3285 9.4381L12.865 8.552ZM14.721 7.256L15.3987 7.9914L15.4064 7.9842L14.721 7.256ZM16.017 5.48L15.1197 5.03846L15.1141 5.05007L16.017 5.48ZM16.385 2.168L17.3248 1.82626L17.3248 1.82625L16.385 2.168ZM15.393 2.088L14.6648 1.40263L14.6538 1.41433L14.6432 1.42638L15.393 2.088ZM14.945 2.776L14.0506 2.32879L14.0436 2.34276L14.037 2.35694L14.945 2.776ZM14.577 3.704L13.6313 3.37892L13.6267 3.39226L13.6225 3.40572L14.577 3.704ZM14.305 4.696V5.696H15.0985L15.2788 4.92323L14.305 4.696ZM11.409 4.696L10.4323 4.48114L10.1651 5.696H11.409V4.696ZM11.937 2.296L11.2862 1.53674L11.0322 1.75444L10.9603 2.08114L11.937 2.296ZM13.825 1.112L14.2118 2.03428L14.2243 2.02883L13.825 1.112ZM17.505 0.856L17.2516 1.82339L17.2572 1.8248L17.505 0.856ZM18.689 1.416L18.0768 2.20672L18.0909 2.21762L18.1054 2.22801L18.689 1.416ZM19.489 2.36L18.5946 2.80721L18.6021 2.82228L18.6101 2.83709L19.489 2.36ZM19.585 4.872L18.6444 4.53236L18.6402 4.54401L18.6363 4.55577L19.585 4.872ZM18.881 6.072L18.1079 5.43768L18.1061 5.43987L18.881 6.072ZM17.521 7.352L18.1329 8.14296L18.1349 8.14135L17.521 7.352ZM15.361 8.776L14.8558 7.91298L11.6732 9.776H15.361V8.776ZM18.929 8.776L19.9188 8.91842L20.0832 7.776H18.929V8.776ZM18.609 11V12H19.4754L19.5988 11.1424L18.609 11ZM10.369 11L9.39328 10.781L9.11961 12H10.369V11ZM11.0248 10.3847C11.8123 10.1336 12.5767 9.81983 13.3177 9.44367L12.4123 7.66033C11.7666 7.98817 11.1017 8.26102 10.4172 8.47926L11.0248 10.3847ZM13.3285 9.4381C14.095 9.03713 14.7866 8.55544 15.3987 7.99136L14.0433 6.52064C13.5674 6.95923 13.0216 7.34153 12.4015 7.6659L13.3285 9.4381ZM15.4064 7.9842C16.0404 7.38746 16.5463 6.69441 16.9199 5.90993L15.1141 5.05007C14.8477 5.60958 14.4896 6.10054 14.0356 6.5278L15.4064 7.9842ZM16.9142 5.92151C17.323 5.09087 17.513 4.16214 17.513 3.16H15.513C15.513 3.90719 15.3723 4.52513 15.1197 5.03849L16.9142 5.92151ZM17.513 3.16C17.513 2.68727 17.4685 2.22139 17.3248 1.82626L15.4452 2.50974C15.4722 2.58395 15.513 2.77939 15.513 3.16H17.513ZM17.3248 1.82625C17.238 1.58758 17.0876 1.32257 16.8268 1.11768C16.5543 0.903587 16.2386 0.816 15.937 0.816V2.816C15.8488 2.816 15.7143 2.78708 15.5912 2.69032C15.4797 2.60276 15.4467 2.51376 15.4452 2.50974L17.3248 1.82625ZM15.937 0.816C15.3935 0.816 14.9653 1.08331 14.6648 1.40263L16.1212 2.77337C16.1437 2.74949 16.1397 2.76068 16.1042 2.77843C16.064 2.79853 16.0049 2.816 15.937 2.816V0.816ZM14.6432 1.42638C14.4124 1.68787 14.2177 1.99461 14.0506 2.32879L15.8394 3.22321C15.9497 3.00272 16.0536 2.8508 16.1428 2.74962L14.6432 1.42638ZM14.037 2.35694C13.8926 2.66985 13.7577 3.0112 13.6313 3.37892L15.5227 4.02908C15.6309 3.71414 15.7414 3.43682 15.853 3.19506L14.037 2.35694ZM13.6225 3.40572C13.5092 3.76847 13.4119 4.12288 13.3312 4.46877L15.2788 4.92323C15.3475 4.62912 15.4315 4.3222 15.5315 4.00227L13.6225 3.40572ZM14.305 3.696H11.409V5.696H14.305V3.696ZM12.3856 4.91086L12.9136 2.51086L10.9603 2.08114L10.4323 4.48114L12.3856 4.91086ZM12.5878 3.05526C13.1137 2.60445 13.6552 2.26758 14.2117 2.03419L13.4383 0.189805C12.6721 0.511087 11.9549 0.963554 11.2862 1.53674L12.5878 3.05526ZM14.2243 2.02883C14.7418 1.80347 15.3495 1.68 16.065 1.68V-0.320001C15.1165 -0.320001 14.2309 -0.155472 13.4257 0.195165L14.2243 2.02883ZM16.065 1.68C16.5004 1.68 16.8945 1.72984 17.2516 1.82337L17.7584 -0.111372C17.2195 -0.252512 16.6536 -0.320001 16.065 -0.320001V1.68ZM17.2572 1.8248C17.6009 1.91275 17.8675 2.04471 18.0768 2.20672L19.3012 0.625276C18.8491 0.275291 18.3264 0.0339191 17.7528 -0.112803L17.2572 1.8248ZM18.1054 2.22801C18.3122 2.37666 18.4735 2.56499 18.5946 2.80721L20.3834 1.91279C20.1205 1.38701 19.7485 0.946007 19.2726 0.603984L18.1054 2.22801ZM18.6101 2.83709C18.717 3.03391 18.793 3.31004 18.793 3.704H20.793C20.793 3.05263 20.6663 2.43276 20.3678 1.88291L18.6101 2.83709ZM18.793 3.704C18.793 3.97888 18.7451 4.25347 18.6444 4.53236L20.5255 5.21164C20.7022 4.72253 20.793 4.21845 20.793 3.704H18.793ZM18.6363 4.55577C18.5573 4.79269 18.3958 5.08679 18.1079 5.43768L19.6541 6.70632C20.0488 6.22521 20.3566 5.71931 20.5337 5.18823L18.6363 4.55577ZM18.1061 5.43987C17.8375 5.7691 17.4451 6.14419 16.9071 6.56265L18.1349 8.14135C18.7489 7.66381 19.2631 7.18556 19.6559 6.70413L18.1061 5.43987ZM16.9091 6.56104C16.3885 6.96376 15.7074 7.41451 14.8558 7.91298L15.8662 9.63901C16.7639 9.11349 17.5228 8.6149 18.1329 8.14296L16.9091 6.56104ZM15.361 9.776H18.929V7.776H15.361V9.776ZM17.9392 8.63358L17.6192 10.8576L19.5988 11.1424L19.9188 8.91842L17.9392 8.63358ZM18.609 10H10.369V12H18.609V10ZM11.3447 11.219L11.6967 9.65104L9.74528 9.21296L9.39328 10.781L11.3447 11.219ZM24.7654 5.928L23.8822 6.39697L24.5413 7.63827L25.4979 6.6087L24.7654 5.928ZM26.4454 4.12V3.12H26.0095L25.7128 3.4393L26.4454 4.12ZM28.2854 4.12L29.002 4.81741L30.6538 3.12H28.2854V4.12ZM25.3894 7.096L24.6727 6.39859L24.1652 6.92009L24.5053 7.56339L25.3894 7.096ZM27.4534 11V12H29.1132L28.3374 10.5326L27.4534 11ZM24.0614 11L23.1779 11.4685L23.4598 12H24.0614V11ZM22.9414 8.888L23.8248 8.4195L23.191 7.2242L22.2343 8.18089L22.9414 8.888ZM20.8294 11V12H21.2436L21.5365 11.7071L20.8294 11ZM18.9894 11L18.2909 10.2844L16.5332 12H18.9894V11ZM22.3334 7.736L23.0319 8.45161L23.5659 7.93038L23.2182 7.27009L22.3334 7.736ZM20.4294 4.12V3.12H18.7727L19.5445 4.58591L20.4294 4.12ZM23.8054 4.12L24.6886 3.65104L24.4066 3.12H23.8054V4.12ZM25.4979 6.6087L27.1779 4.8007L25.7128 3.4393L24.0328 5.2473L25.4979 6.6087ZM26.4454 5.12H28.2854V3.12H26.4454V5.12ZM27.5687 3.42259L24.6727 6.39859L26.106 7.79341L29.002 4.81741L27.5687 3.42259ZM24.5053 7.56339L26.5693 11.4674L28.3374 10.5326L26.2734 6.62861L24.5053 7.56339ZM27.4534 10H24.0614V12H27.4534V10ZM24.9448 10.5315L23.8248 8.4195L22.0579 9.3565L23.1779 11.4685L24.9448 10.5315ZM22.2343 8.18089L20.1223 10.2929L21.5365 11.7071L23.6485 9.59511L22.2343 8.18089ZM20.8294 10H18.9894V12H20.8294V10ZM19.6879 11.7156L23.0319 8.45161L21.6349 7.02038L18.2909 10.2844L19.6879 11.7156ZM23.2182 7.27009L21.3142 3.65409L19.5445 4.58591L21.4485 8.20191L23.2182 7.27009ZM20.4294 5.12H23.8054V3.12H20.4294V5.12ZM22.9221 4.58896L23.8822 6.39697L25.6486 5.45903L24.6886 3.65104L22.9221 4.58896Z" fill="url(#paint0_linear_6544_19046)" mask="url(#path-1-outside-1_6544_19046)"/>
<defs>
<linearGradient id="paint0_linear_6544_19046" x1="2.16699" y1="3.33142e-07" x2="28.667" y2="10" gradientUnits="userSpaceOnUse">
<stop stop-color="#8E00E5"/>
<stop offset="1" stop-color="#E50000"/>
</linearGradient>
</defs>
</svg>
