<svg width="28" height="12" viewBox="0 0 28 12" fill="none" xmlns="http://www.w3.org/2000/svg">
<mask id="path-1-outside-1_6544_19052" maskUnits="userSpaceOnUse" x="-1.6665" y="-1" width="32" height="14" fill="black">
<rect fill="white" x="-1.6665" y="-1" width="32" height="14"/>
<path d="M0.485496 2.488C1.14683 2.392 1.74416 2.19467 2.2775 1.896C2.8215 1.59733 3.2535 1.24533 3.5735 0.839999H6.0215L3.8455 11H0.389496L1.9735 3.56H0.245496L0.485496 2.488ZM8.94087 9.592C8.94087 9.83733 8.88754 10.056 8.78087 10.248C8.68487 10.44 8.55154 10.6 8.38087 10.728C8.22087 10.856 8.0342 10.952 7.82087 11.016C7.60754 11.0907 7.38354 11.128 7.14887 11.128C6.74354 11.128 6.39687 11.0213 6.10887 10.808C5.83154 10.584 5.69287 10.2373 5.69287 9.768C5.69287 9.52267 5.74087 9.304 5.83687 9.112C5.93287 8.92 6.06087 8.76 6.22087 8.632C6.38087 8.504 6.5622 8.408 6.76487 8.344C6.9782 8.26933 7.19687 8.232 7.42087 8.232C7.8582 8.232 8.22087 8.344 8.50887 8.568C8.79687 8.78133 8.94087 9.12267 8.94087 9.592ZM18.3395 3.048H13.7155L13.4435 4.424C13.6888 4.30667 13.9555 4.21067 14.2435 4.136C14.5422 4.05067 14.8942 4.008 15.2995 4.008C15.9395 4.008 16.4728 4.09867 16.8995 4.28C17.3262 4.46133 17.6675 4.70133 17.9235 5C18.1902 5.29867 18.3768 5.63467 18.4835 6.008C18.6008 6.37067 18.6595 6.73333 18.6595 7.096C18.6595 7.672 18.5368 8.20533 18.2915 8.696C18.0568 9.18667 17.7155 9.61333 17.2675 9.976C16.8302 10.3387 16.2915 10.6213 15.6515 10.824C15.0115 11.0267 14.2915 11.128 13.4915 11.128C13.1822 11.128 12.8835 11.1067 12.5955 11.064C12.3075 11.032 12.0248 10.968 11.7475 10.872C11.4808 10.7653 11.2088 10.6267 10.9315 10.456C10.6648 10.2853 10.3875 10.0613 10.0995 9.784L10.5635 7.56H13.0915C13.0702 7.72 13.0542 7.85867 13.0435 7.976C13.0328 8.09333 13.0275 8.28 13.0275 8.536C13.0275 9.06933 13.0968 9.448 13.2355 9.672C13.3742 9.896 13.5715 10.008 13.8275 10.008C14.0942 10.008 14.3235 9.90667 14.5155 9.704C14.7075 9.50133 14.8622 9.25067 14.9795 8.952C15.0968 8.64267 15.1822 8.312 15.2355 7.96C15.2888 7.608 15.3155 7.27733 15.3155 6.968C15.3155 6.75467 15.2995 6.552 15.2675 6.36C15.2355 6.15733 15.1822 5.98133 15.1075 5.832C15.0328 5.68267 14.9315 5.56533 14.8035 5.48C14.6755 5.384 14.5155 5.336 14.3235 5.336C14.1315 5.336 13.9288 5.39467 13.7155 5.512C13.5022 5.62933 13.2942 5.85867 13.0915 6.2H11.1235L12.2755 0.839999H18.8035L18.3395 3.048ZM23.9631 5.928L25.6431 4.12H27.4831L24.5871 7.096L26.6511 11H23.2591L22.1391 8.888L20.0271 11H18.1871L21.5311 7.736L19.6271 4.12H23.0031L23.9631 5.928Z"/>
</mask>
<path d="M0.485496 2.488C1.14683 2.392 1.74416 2.19467 2.2775 1.896C2.8215 1.59733 3.2535 1.24533 3.5735 0.839999H6.0215L3.8455 11H0.389496L1.9735 3.56H0.245496L0.485496 2.488ZM8.94087 9.592C8.94087 9.83733 8.88754 10.056 8.78087 10.248C8.68487 10.44 8.55154 10.6 8.38087 10.728C8.22087 10.856 8.0342 10.952 7.82087 11.016C7.60754 11.0907 7.38354 11.128 7.14887 11.128C6.74354 11.128 6.39687 11.0213 6.10887 10.808C5.83154 10.584 5.69287 10.2373 5.69287 9.768C5.69287 9.52267 5.74087 9.304 5.83687 9.112C5.93287 8.92 6.06087 8.76 6.22087 8.632C6.38087 8.504 6.5622 8.408 6.76487 8.344C6.9782 8.26933 7.19687 8.232 7.42087 8.232C7.8582 8.232 8.22087 8.344 8.50887 8.568C8.79687 8.78133 8.94087 9.12267 8.94087 9.592ZM18.3395 3.048H13.7155L13.4435 4.424C13.6888 4.30667 13.9555 4.21067 14.2435 4.136C14.5422 4.05067 14.8942 4.008 15.2995 4.008C15.9395 4.008 16.4728 4.09867 16.8995 4.28C17.3262 4.46133 17.6675 4.70133 17.9235 5C18.1902 5.29867 18.3768 5.63467 18.4835 6.008C18.6008 6.37067 18.6595 6.73333 18.6595 7.096C18.6595 7.672 18.5368 8.20533 18.2915 8.696C18.0568 9.18667 17.7155 9.61333 17.2675 9.976C16.8302 10.3387 16.2915 10.6213 15.6515 10.824C15.0115 11.0267 14.2915 11.128 13.4915 11.128C13.1822 11.128 12.8835 11.1067 12.5955 11.064C12.3075 11.032 12.0248 10.968 11.7475 10.872C11.4808 10.7653 11.2088 10.6267 10.9315 10.456C10.6648 10.2853 10.3875 10.0613 10.0995 9.784L10.5635 7.56H13.0915C13.0702 7.72 13.0542 7.85867 13.0435 7.976C13.0328 8.09333 13.0275 8.28 13.0275 8.536C13.0275 9.06933 13.0968 9.448 13.2355 9.672C13.3742 9.896 13.5715 10.008 13.8275 10.008C14.0942 10.008 14.3235 9.90667 14.5155 9.704C14.7075 9.50133 14.8622 9.25067 14.9795 8.952C15.0968 8.64267 15.1822 8.312 15.2355 7.96C15.2888 7.608 15.3155 7.27733 15.3155 6.968C15.3155 6.75467 15.2995 6.552 15.2675 6.36C15.2355 6.15733 15.1822 5.98133 15.1075 5.832C15.0328 5.68267 14.9315 5.56533 14.8035 5.48C14.6755 5.384 14.5155 5.336 14.3235 5.336C14.1315 5.336 13.9288 5.39467 13.7155 5.512C13.5022 5.62933 13.2942 5.85867 13.0915 6.2H11.1235L12.2755 0.839999H18.8035L18.3395 3.048ZM23.9631 5.928L25.6431 4.12H27.4831L24.5871 7.096L26.6511 11H23.2591L22.1391 8.888L20.0271 11H18.1871L21.5311 7.736L19.6271 4.12H23.0031L23.9631 5.928Z" fill="white"/>
<path d="M0.485496 2.488L0.341841 1.49837L-0.339854 1.59733L-0.490347 2.26953L0.485496 2.488ZM2.2775 1.896L1.79622 1.01939L1.78889 1.02349L2.2775 1.896ZM3.5735 0.839999V-0.160001H3.08889L2.78861 0.220355L3.5735 0.839999ZM6.0215 0.839999L6.99932 1.04942L7.25835 -0.160001H6.0215V0.839999ZM3.8455 11V12H4.654L4.82332 11.2094L3.8455 11ZM0.389496 11L-0.588583 10.7918L-0.84582 12H0.389496V11ZM1.9735 3.56L2.95157 3.76824L3.20881 2.56H1.9735V3.56ZM0.245496 3.56L-0.730347 3.34153L-1.00314 4.56H0.245496V3.56ZM0.629152 3.47763C1.40035 3.36568 2.11638 3.13235 2.7661 2.76851L1.78889 1.02349C1.37195 1.25698 0.89331 1.41832 0.341841 1.49837L0.629152 3.47763ZM2.75876 2.77258C3.39696 2.42219 3.94044 1.98903 4.35838 1.45964L2.78861 0.220355C2.56655 0.501638 2.24603 0.772477 1.79624 1.01942L2.75876 2.77258ZM3.5735 1.84H6.0215V-0.160001H3.5735V1.84ZM5.04367 0.630575L2.86767 10.7906L4.82332 11.2094L6.99932 1.04942L5.04367 0.630575ZM3.8455 10H0.389496V12H3.8455V10ZM1.36757 11.2082L2.95157 3.76824L0.995418 3.35176L-0.588583 10.7918L1.36757 11.2082ZM1.9735 2.56H0.245496V4.56H1.9735V2.56ZM1.22134 3.77847L1.46134 2.70647L-0.490347 2.26953L-0.730347 3.34153L1.22134 3.77847ZM8.78087 10.248L7.90671 9.76236L7.89616 9.78135L7.88644 9.80079L8.78087 10.248ZM8.38087 10.728L7.78087 9.928L7.76837 9.93737L7.75618 9.94713L8.38087 10.728ZM7.82087 11.016L7.53352 10.0582L7.51186 10.0647L7.49052 10.0721L7.82087 11.016ZM6.10887 10.808L5.48053 11.5859L5.49682 11.5991L5.51364 11.6116L6.10887 10.808ZM5.83687 9.112L4.94244 8.66479L5.83687 9.112ZM6.22087 8.632L6.84557 9.41287H6.84557L6.22087 8.632ZM6.76487 8.344L7.066 9.29758L7.08069 9.29295L7.09522 9.28786L6.76487 8.344ZM8.50887 8.568L7.89493 9.35735L7.9042 9.36456L7.91364 9.37156L8.50887 8.568ZM7.94087 9.592C7.94087 9.68765 7.92154 9.73568 7.90671 9.76236L9.65503 10.7336C9.85354 10.3763 9.94087 9.98701 9.94087 9.592H7.94087ZM7.88644 9.80079C7.85942 9.85483 7.82654 9.89375 7.78087 9.928L8.98087 11.528C9.27654 11.3063 9.51032 11.0252 9.6753 10.6952L7.88644 9.80079ZM7.75618 9.94713C7.70465 9.98835 7.63485 10.0278 7.53352 10.0582L8.10822 11.9738C8.43356 11.8762 8.7371 11.7236 9.00557 11.5089L7.75618 9.94713ZM7.49052 10.0721C7.38739 10.1082 7.2754 10.128 7.14887 10.128V12.128C7.49168 12.128 7.82768 12.0731 8.15122 11.9599L7.49052 10.0721ZM7.14887 10.128C6.92853 10.128 6.7977 10.0738 6.7041 10.0044L5.51364 11.6116C5.99605 11.9689 6.55854 12.128 7.14887 12.128V10.128ZM6.73721 10.0301C6.73512 10.0284 6.73504 10.028 6.73495 10.0279C6.73472 10.0276 6.73087 10.0224 6.72535 10.0086C6.71369 9.97946 6.69287 9.90691 6.69287 9.768H4.69287C4.69287 10.4367 4.89838 11.1157 5.48053 11.5859L6.73721 10.0301ZM6.69287 9.768C6.69287 9.65563 6.71405 9.59372 6.7313 9.55921L4.94244 8.66479C4.7677 9.01428 4.69287 9.3897 4.69287 9.768H6.69287ZM6.7313 9.55921C6.76574 9.49032 6.80394 9.44617 6.84557 9.41287L5.59618 7.85113C5.3178 8.07383 5.1 8.34968 4.94244 8.66479L6.7313 9.55921ZM6.84557 9.41287C6.9057 9.36476 6.97646 9.32586 7.066 9.29758L6.46374 7.39042C6.14794 7.49014 5.85604 7.64324 5.59618 7.85113L6.84557 9.41287ZM7.09522 9.28786C7.20336 9.25001 7.31039 9.232 7.42087 9.232V7.232C7.08335 7.232 6.75305 7.28866 6.43452 7.40014L7.09522 9.28786ZM7.42087 9.232C7.68148 9.232 7.81538 9.29548 7.89493 9.35735L9.12281 7.77865C8.62636 7.39252 8.03493 7.232 7.42087 7.232V9.232ZM7.91364 9.37156C7.91424 9.372 7.91172 9.37005 7.90893 9.36647C7.90626 9.36304 7.90773 9.36375 7.91151 9.3727C7.91976 9.39226 7.94087 9.45655 7.94087 9.592H9.94087C9.94087 8.9131 9.7221 8.22222 9.1041 7.76444L7.91364 9.37156ZM18.3395 3.048V4.048H19.1512L19.3181 3.25365L18.3395 3.048ZM13.7155 3.048V2.048H12.8938L12.7345 2.85408L13.7155 3.048ZM13.4435 4.424L12.4625 4.23008L12.0757 6.18664L13.875 5.32613L13.4435 4.424ZM14.2435 4.136L14.4945 5.104L14.5064 5.10091L14.5182 5.09752L14.2435 4.136ZM16.8995 4.28L17.2906 3.35967H17.2906L16.8995 4.28ZM17.9235 5L17.1642 5.65079L17.1708 5.65847L17.1776 5.66602L17.9235 5ZM18.4835 6.008L17.522 6.28272L17.5267 6.29936L17.5321 6.31582L18.4835 6.008ZM18.2915 8.696L17.3971 8.24879L17.3931 8.25663L17.3894 8.26454L18.2915 8.696ZM17.2675 9.976L16.6383 9.1987L16.6292 9.20624L17.2675 9.976ZM15.6515 10.824L15.3496 9.87066L15.6515 10.824ZM12.5955 11.064L12.742 10.0748L12.724 10.0721L12.7059 10.0701L12.5955 11.064ZM11.7475 10.872L11.3761 11.8005L11.3981 11.8093L11.4204 11.817L11.7475 10.872ZM10.9315 10.456L10.3924 11.2983L10.3999 11.303L10.4074 11.3077L10.9315 10.456ZM10.0995 9.784L9.12057 9.57976L9.00768 10.1209L9.40585 10.5043L10.0995 9.784ZM10.5635 7.56V6.56H9.7506L9.58457 7.35576L10.5635 7.56ZM13.0915 7.56L14.0827 7.69216L14.2337 6.56H13.0915V7.56ZM13.0435 7.976L12.0476 7.88546V7.88547L13.0435 7.976ZM13.2355 9.672L14.0858 9.14565L13.2355 9.672ZM14.5155 9.704L15.2414 10.3917L14.5155 9.704ZM14.9795 8.952L15.9103 9.31768L15.9145 9.30665L14.9795 8.952ZM15.2355 7.96L16.2242 8.10981V8.10981L15.2355 7.96ZM15.2675 6.36L14.2797 6.51597L14.2811 6.5244L15.2675 6.36ZM14.8035 5.48L14.2035 6.28L14.2257 6.29665L14.2488 6.31205L14.8035 5.48ZM13.7155 5.512L13.2336 4.63578L13.2336 4.63578L13.7155 5.512ZM13.0915 6.2V7.2H13.6607L13.9514 6.71054L13.0915 6.2ZM11.1235 6.2L10.1458 5.98987L9.88574 7.2H11.1235V6.2ZM12.2755 0.839999V-0.160001H11.4676L11.2978 0.629872L12.2755 0.839999ZM18.8035 0.839999L19.7821 1.04565L20.0355 -0.160001H18.8035V0.839999ZM18.3395 2.048H13.7155V4.048H18.3395V2.048ZM12.7345 2.85408L12.4625 4.23008L14.4245 4.61792L14.6965 3.24192L12.7345 2.85408ZM13.875 5.32613C14.0573 5.23895 14.2629 5.16404 14.4945 5.104L13.9925 3.168C13.6481 3.25729 13.3204 3.37439 13.012 3.52187L13.875 5.32613ZM14.5182 5.09752C14.7051 5.04412 14.9605 5.008 15.2995 5.008V3.008C14.8278 3.008 14.3792 3.05722 13.9688 3.17448L14.5182 5.09752ZM15.2995 5.008C15.8529 5.008 16.2429 5.08751 16.5084 5.20033L17.2906 3.35967C16.7028 3.10983 16.0261 3.008 15.2995 3.008V5.008ZM16.5084 5.20033C16.8184 5.33209 17.0249 5.48828 17.1642 5.65079L18.6828 4.34921C18.31 3.91439 17.834 3.59058 17.2906 3.35967L16.5084 5.20033ZM17.1776 5.66602C17.347 5.8558 17.4581 6.059 17.522 6.28272L19.445 5.73328C19.2956 5.21033 19.0333 4.74153 18.6694 4.33398L17.1776 5.66602ZM17.5321 6.31582C17.6189 6.58415 17.6595 6.84308 17.6595 7.096H19.6595C19.6595 6.62359 19.5828 6.15718 19.4349 5.70018L17.5321 6.31582ZM17.6595 7.096C17.6595 7.52474 17.5695 7.90394 17.3971 8.24879L19.1859 9.14321C19.5042 8.50673 19.6595 7.81926 19.6595 7.096H17.6595ZM17.3894 8.26454C17.2226 8.61313 16.9778 8.92391 16.6383 9.19876L17.8967 10.7532C18.4532 10.3028 18.891 9.7602 19.1936 9.12745L17.3894 8.26454ZM16.6292 9.20624C16.3074 9.47309 15.8886 9.69998 15.3496 9.87066L15.9534 11.7773C16.6944 11.5427 17.3529 11.2042 17.9058 10.7458L16.6292 9.20624ZM15.3496 9.87066C14.8239 10.0371 14.2081 10.128 13.4915 10.128V12.128C14.3749 12.128 15.1991 12.0162 15.9534 11.7773L15.3496 9.87066ZM13.4915 10.128C13.2282 10.128 12.9786 10.1098 12.742 10.0748L12.4489 12.0532C12.7884 12.1035 13.1361 12.128 13.4915 12.128V10.128ZM12.7059 10.0701C12.4927 10.0464 12.2827 9.99903 12.0746 9.92701L11.4204 11.817C11.767 11.937 12.1223 12.0176 12.4851 12.0579L12.7059 10.0701ZM12.1189 9.94352C11.9117 9.86065 11.6906 9.74898 11.4556 9.60434L10.4074 11.3077C10.727 11.5044 11.05 11.67 11.3761 11.8005L12.1189 9.94352ZM11.4705 9.61373C11.2715 9.48635 11.0455 9.30668 10.7931 9.06368L9.40585 10.5043C9.72951 10.816 10.0581 11.0843 10.3924 11.2983L11.4705 9.61373ZM11.0784 9.98824L11.5424 7.76424L9.58457 7.35576L9.12057 9.57976L11.0784 9.98824ZM10.5635 8.56H13.0915V6.56H10.5635V8.56ZM12.1003 7.42784C12.0777 7.59702 12.0599 7.75022 12.0476 7.88546L14.0394 8.06654C14.0484 7.96711 14.0626 7.84298 14.0827 7.69216L12.1003 7.42784ZM12.0476 7.88547C12.0325 8.05107 12.0275 8.27629 12.0275 8.536H14.0275C14.0275 8.28371 14.0331 8.1356 14.0394 8.06653L12.0476 7.88547ZM12.0275 8.536C12.0275 9.09987 12.0905 9.72229 12.3852 10.1984L14.0858 9.14565C14.105 9.17671 14.0848 9.15812 14.0631 9.0399C14.0426 8.92774 14.0275 8.76349 14.0275 8.536H12.0275ZM12.3852 10.1984C12.6997 10.7064 13.2131 11.008 13.8275 11.008V9.008C13.8499 9.008 13.9108 9.0144 13.9811 9.05431C14.0502 9.09351 14.0812 9.13822 14.0858 9.14565L12.3852 10.1984ZM13.8275 11.008C14.3829 11.008 14.8705 10.7832 15.2414 10.3917L13.7895 9.01626C13.7814 9.02489 13.7777 9.02723 13.7794 9.02605C13.7812 9.02473 13.7866 9.02116 13.7953 9.01731C13.8041 9.01344 13.8129 9.01076 13.8203 9.00924C13.8276 9.00775 13.8305 9.008 13.8275 9.008V11.008ZM15.2414 10.3917C15.5339 10.083 15.7529 9.71816 15.9102 9.31765L14.0487 8.58635C13.9714 8.78318 13.881 8.91967 13.7895 9.01626L15.2414 10.3917ZM15.9145 9.30665C16.0588 8.92633 16.1611 8.52653 16.2242 8.10981L14.2468 7.81019C14.2033 8.09747 14.1349 8.35901 14.0445 8.59735L15.9145 9.30665ZM16.2242 8.10981C16.284 7.71546 16.3155 7.3343 16.3155 6.968H14.3155C14.3155 7.22037 14.2937 7.50054 14.2468 7.81019L16.2242 8.10981ZM16.3155 6.968C16.3155 6.70477 16.2958 6.44682 16.2539 6.1956L14.2811 6.5244C14.3032 6.65718 14.3155 6.80456 14.3155 6.968H16.3155ZM16.2553 6.20404C16.2108 5.92234 16.1315 5.64403 16.0019 5.38479L14.2131 6.27921C14.2328 6.31863 14.2602 6.39233 14.2797 6.51596L16.2553 6.20404ZM16.0019 5.38479C15.8563 5.09348 15.6432 4.83796 15.3582 4.64795L14.2488 6.31205C14.2371 6.30424 14.2266 6.29474 14.2187 6.28562C14.2111 6.27684 14.21 6.27313 14.2131 6.27921L16.0019 5.38479ZM15.4035 4.68C15.0699 4.4298 14.6874 4.336 14.3235 4.336V6.336C14.3364 6.336 14.3261 6.33761 14.3001 6.32983C14.2725 6.32153 14.2377 6.30567 14.2035 6.28L15.4035 4.68ZM14.3235 4.336C13.9237 4.336 13.5558 4.45857 13.2336 4.63578L14.1974 6.38822C14.3019 6.33077 14.3393 6.336 14.3235 6.336V4.336ZM13.2336 4.63578C12.7944 4.87732 12.4739 5.28142 12.2316 5.68946L13.9514 6.71054C14.0275 6.58225 14.0918 6.49725 14.1402 6.44381C14.1891 6.38992 14.21 6.3813 14.1974 6.38822L13.2336 4.63578ZM13.0915 5.2H11.1235V7.2H13.0915V5.2ZM12.1012 6.41013L13.2532 1.05013L11.2978 0.629872L10.1458 5.98987L12.1012 6.41013ZM12.2755 1.84H18.8035V-0.160001H12.2755V1.84ZM17.8249 0.634346L17.3609 2.84235L19.3181 3.25365L19.7821 1.04565L17.8249 0.634346ZM23.9631 5.928L23.0799 6.39697L23.739 7.63827L24.6957 6.6087L23.9631 5.928ZM25.6431 4.12V3.12H25.2073L24.9106 3.4393L25.6431 4.12ZM27.4831 4.12L28.1998 4.81741L29.8516 3.12H27.4831V4.12ZM24.5871 7.096L23.8704 6.39859L23.363 6.92009L23.7031 7.56339L24.5871 7.096ZM26.6511 11V12H28.311L27.5352 10.5326L26.6511 11ZM23.2591 11L22.3757 11.4685L22.6575 12H23.2591V11ZM22.1391 8.888L23.0226 8.4195L22.3887 7.2242L21.432 8.18089L22.1391 8.888ZM20.0271 11V12H20.4413L20.7342 11.7071L20.0271 11ZM18.1871 11L17.4886 10.2844L15.731 12H18.1871V11ZM21.5311 7.736L22.2296 8.45161L22.7636 7.93038L22.416 7.27009L21.5311 7.736ZM19.6271 4.12V3.12H17.9704L18.7423 4.58591L19.6271 4.12ZM23.0031 4.12L23.8863 3.65104L23.6044 3.12H23.0031V4.12ZM24.6957 6.6087L26.3757 4.8007L24.9106 3.4393L23.2306 5.2473L24.6957 6.6087ZM25.6431 5.12H27.4831V3.12H25.6431V5.12ZM26.7664 3.42259L23.8704 6.39859L25.3038 7.79341L28.1998 4.81741L26.7664 3.42259ZM23.7031 7.56339L25.7671 11.4674L27.5352 10.5326L25.4712 6.62861L23.7031 7.56339ZM26.6511 10H23.2591V12H26.6511V10ZM24.1426 10.5315L23.0226 8.4195L21.2557 9.3565L22.3757 11.4685L24.1426 10.5315ZM21.432 8.18089L19.32 10.2929L20.7342 11.7071L22.8462 9.59511L21.432 8.18089ZM20.0271 10H18.1871V12H20.0271V10ZM18.8856 11.7156L22.2296 8.45161L20.8326 7.02038L17.4886 10.2844L18.8856 11.7156ZM22.416 7.27009L20.512 3.65409L18.7423 4.58591L20.6463 8.20191L22.416 7.27009ZM19.6271 5.12H23.0031V3.12H19.6271V5.12ZM22.1199 4.58896L23.0799 6.39697L24.8463 5.45903L23.8863 3.65104L22.1199 4.58896Z" fill="url(#paint0_linear_6544_19052)" mask="url(#path-1-outside-1_6544_19052)"/>
<defs>
<linearGradient id="paint0_linear_6544_19052" x1="1.74729" y1="3.33142e-07" x2="27.5515" y2="9.40166" gradientUnits="userSpaceOnUse">
<stop stop-color="#8E00E5"/>
<stop offset="1" stop-color="#E50000"/>
</linearGradient>
</defs>
</svg>
<svg width="28" height="12" viewBox="0 0 28 12" fill="none" xmlns="http://www.w3.org/2000/svg">
<mask id="path-1-outside-1_6588_9610" maskUnits="userSpaceOnUse" x="-1.6665" y="-1" width="32" height="14" fill="black">
<rect fill="white" x="-1.6665" y="-1" width="32" height="14"/>
<path d="M0.485496 2.488C1.14683 2.392 1.74416 2.19467 2.2775 1.896C2.8215 1.59733 3.2535 1.24533 3.5735 0.839999H6.0215L3.8455 11H0.389496L1.9735 3.56H0.245496L0.485496 2.488ZM8.94087 9.592C8.94087 9.83733 8.88754 10.056 8.78087 10.248C8.68487 10.44 8.55154 10.6 8.38087 10.728C8.22087 10.856 8.0342 10.952 7.82087 11.016C7.60754 11.0907 7.38354 11.128 7.14887 11.128C6.74354 11.128 6.39687 11.0213 6.10887 10.808C5.83154 10.584 5.69287 10.2373 5.69287 9.768C5.69287 9.52267 5.74087 9.304 5.83687 9.112C5.93287 8.92 6.06087 8.76 6.22087 8.632C6.38087 8.504 6.5622 8.408 6.76487 8.344C6.9782 8.26933 7.19687 8.232 7.42087 8.232C7.8582 8.232 8.22087 8.344 8.50887 8.568C8.79687 8.78133 8.94087 9.12267 8.94087 9.592ZM18.3395 3.048H13.7155L13.4435 4.424C13.6888 4.30667 13.9555 4.21067 14.2435 4.136C14.5422 4.05067 14.8942 4.008 15.2995 4.008C15.9395 4.008 16.4728 4.09867 16.8995 4.28C17.3262 4.46133 17.6675 4.70133 17.9235 5C18.1902 5.29867 18.3768 5.63467 18.4835 6.008C18.6008 6.37067 18.6595 6.73333 18.6595 7.096C18.6595 7.672 18.5368 8.20533 18.2915 8.696C18.0568 9.18667 17.7155 9.61333 17.2675 9.976C16.8302 10.3387 16.2915 10.6213 15.6515 10.824C15.0115 11.0267 14.2915 11.128 13.4915 11.128C13.1822 11.128 12.8835 11.1067 12.5955 11.064C12.3075 11.032 12.0248 10.968 11.7475 10.872C11.4808 10.7653 11.2088 10.6267 10.9315 10.456C10.6648 10.2853 10.3875 10.0613 10.0995 9.784L10.5635 7.56H13.0915C13.0702 7.72 13.0542 7.85867 13.0435 7.976C13.0328 8.09333 13.0275 8.28 13.0275 8.536C13.0275 9.06933 13.0968 9.448 13.2355 9.672C13.3742 9.896 13.5715 10.008 13.8275 10.008C14.0942 10.008 14.3235 9.90667 14.5155 9.704C14.7075 9.50133 14.8622 9.25067 14.9795 8.952C15.0968 8.64267 15.1822 8.312 15.2355 7.96C15.2888 7.608 15.3155 7.27733 15.3155 6.968C15.3155 6.75467 15.2995 6.552 15.2675 6.36C15.2355 6.15733 15.1822 5.98133 15.1075 5.832C15.0328 5.68267 14.9315 5.56533 14.8035 5.48C14.6755 5.384 14.5155 5.336 14.3235 5.336C14.1315 5.336 13.9288 5.39467 13.7155 5.512C13.5022 5.62933 13.2942 5.85867 13.0915 6.2H11.1235L12.2755 0.839999H18.8035L18.3395 3.048ZM23.9631 5.928L25.6431 4.12H27.4831L24.5871 7.096L26.6511 11H23.2591L22.1391 8.888L20.0271 11H18.1871L21.5311 7.736L19.6271 4.12H23.0031L23.9631 5.928Z"/>
</mask>
<path d="M0.485496 2.488C1.14683 2.392 1.74416 2.19467 2.2775 1.896C2.8215 1.59733 3.2535 1.24533 3.5735 0.839999H6.0215L3.8455 11H0.389496L1.9735 3.56H0.245496L0.485496 2.488ZM8.94087 9.592C8.94087 9.83733 8.88754 10.056 8.78087 10.248C8.68487 10.44 8.55154 10.6 8.38087 10.728C8.22087 10.856 8.0342 10.952 7.82087 11.016C7.60754 11.0907 7.38354 11.128 7.14887 11.128C6.74354 11.128 6.39687 11.0213 6.10887 10.808C5.83154 10.584 5.69287 10.2373 5.69287 9.768C5.69287 9.52267 5.74087 9.304 5.83687 9.112C5.93287 8.92 6.06087 8.76 6.22087 8.632C6.38087 8.504 6.5622 8.408 6.76487 8.344C6.9782 8.26933 7.19687 8.232 7.42087 8.232C7.8582 8.232 8.22087 8.344 8.50887 8.568C8.79687 8.78133 8.94087 9.12267 8.94087 9.592ZM18.3395 3.048H13.7155L13.4435 4.424C13.6888 4.30667 13.9555 4.21067 14.2435 4.136C14.5422 4.05067 14.8942 4.008 15.2995 4.008C15.9395 4.008 16.4728 4.09867 16.8995 4.28C17.3262 4.46133 17.6675 4.70133 17.9235 5C18.1902 5.29867 18.3768 5.63467 18.4835 6.008C18.6008 6.37067 18.6595 6.73333 18.6595 7.096C18.6595 7.672 18.5368 8.20533 18.2915 8.696C18.0568 9.18667 17.7155 9.61333 17.2675 9.976C16.8302 10.3387 16.2915 10.6213 15.6515 10.824C15.0115 11.0267 14.2915 11.128 13.4915 11.128C13.1822 11.128 12.8835 11.1067 12.5955 11.064C12.3075 11.032 12.0248 10.968 11.7475 10.872C11.4808 10.7653 11.2088 10.6267 10.9315 10.456C10.6648 10.2853 10.3875 10.0613 10.0995 9.784L10.5635 7.56H13.0915C13.0702 7.72 13.0542 7.85867 13.0435 7.976C13.0328 8.09333 13.0275 8.28 13.0275 8.536C13.0275 9.06933 13.0968 9.448 13.2355 9.672C13.3742 9.896 13.5715 10.008 13.8275 10.008C14.0942 10.008 14.3235 9.90667 14.5155 9.704C14.7075 9.50133 14.8622 9.25067 14.9795 8.952C15.0968 8.64267 15.1822 8.312 15.2355 7.96C15.2888 7.608 15.3155 7.27733 15.3155 6.968C15.3155 6.75467 15.2995 6.552 15.2675 6.36C15.2355 6.15733 15.1822 5.98133 15.1075 5.832C15.0328 5.68267 14.9315 5.56533 14.8035 5.48C14.6755 5.384 14.5155 5.336 14.3235 5.336C14.1315 5.336 13.9288 5.39467 13.7155 5.512C13.5022 5.62933 13.2942 5.85867 13.0915 6.2H11.1235L12.2755 0.839999H18.8035L18.3395 3.048ZM23.9631 5.928L25.6431 4.12H27.4831L24.5871 7.096L26.6511 11H23.2591L22.1391 8.888L20.0271 11H18.1871L21.5311 7.736L19.6271 4.12H23.0031L23.9631 5.928Z" fill="white"/>
<path d="M0.485496 2.488L0.341841 1.49837L-0.339854 1.59733L-0.490347 2.26953L0.485496 2.488ZM2.2775 1.896L1.79622 1.01939L1.78889 1.02349L2.2775 1.896ZM3.5735 0.839999V-0.160001H3.08889L2.78861 0.220355L3.5735 0.839999ZM6.0215 0.839999L6.99932 1.04942L7.25835 -0.160001H6.0215V0.839999ZM3.8455 11V12H4.654L4.82332 11.2094L3.8455 11ZM0.389496 11L-0.588583 10.7918L-0.84582 12H0.389496V11ZM1.9735 3.56L2.95157 3.76824L3.20881 2.56H1.9735V3.56ZM0.245496 3.56L-0.730347 3.34153L-1.00314 4.56H0.245496V3.56ZM0.629152 3.47763C1.40035 3.36568 2.11638 3.13235 2.7661 2.76851L1.78889 1.02349C1.37195 1.25698 0.89331 1.41832 0.341841 1.49837L0.629152 3.47763ZM2.75876 2.77258C3.39696 2.42219 3.94044 1.98903 4.35838 1.45964L2.78861 0.220355C2.56655 0.501638 2.24603 0.772477 1.79624 1.01942L2.75876 2.77258ZM3.5735 1.84H6.0215V-0.160001H3.5735V1.84ZM5.04367 0.630575L2.86767 10.7906L4.82332 11.2094L6.99932 1.04942L5.04367 0.630575ZM3.8455 10H0.389496V12H3.8455V10ZM1.36757 11.2082L2.95157 3.76824L0.995418 3.35176L-0.588583 10.7918L1.36757 11.2082ZM1.9735 2.56H0.245496V4.56H1.9735V2.56ZM1.22134 3.77847L1.46134 2.70647L-0.490347 2.26953L-0.730347 3.34153L1.22134 3.77847ZM8.78087 10.248L7.90671 9.76236L7.89616 9.78135L7.88644 9.80079L8.78087 10.248ZM8.38087 10.728L7.78087 9.928L7.76837 9.93737L7.75618 9.94713L8.38087 10.728ZM7.82087 11.016L7.53352 10.0582L7.51186 10.0647L7.49052 10.0721L7.82087 11.016ZM6.10887 10.808L5.48053 11.5859L5.49682 11.5991L5.51364 11.6116L6.10887 10.808ZM5.83687 9.112L4.94244 8.66479L5.83687 9.112ZM6.22087 8.632L6.84557 9.41287H6.84557L6.22087 8.632ZM6.76487 8.344L7.066 9.29758L7.08069 9.29295L7.09522 9.28786L6.76487 8.344ZM8.50887 8.568L7.89493 9.35735L7.9042 9.36456L7.91364 9.37156L8.50887 8.568ZM7.94087 9.592C7.94087 9.68765 7.92154 9.73568 7.90671 9.76236L9.65503 10.7336C9.85354 10.3763 9.94087 9.98701 9.94087 9.592H7.94087ZM7.88644 9.80079C7.85942 9.85483 7.82654 9.89375 7.78087 9.928L8.98087 11.528C9.27654 11.3063 9.51032 11.0252 9.6753 10.6952L7.88644 9.80079ZM7.75618 9.94713C7.70465 9.98835 7.63485 10.0278 7.53352 10.0582L8.10822 11.9738C8.43356 11.8762 8.7371 11.7236 9.00557 11.5089L7.75618 9.94713ZM7.49052 10.0721C7.38739 10.1082 7.2754 10.128 7.14887 10.128V12.128C7.49168 12.128 7.82768 12.0731 8.15122 11.9599L7.49052 10.0721ZM7.14887 10.128C6.92853 10.128 6.7977 10.0738 6.7041 10.0044L5.51364 11.6116C5.99605 11.9689 6.55854 12.128 7.14887 12.128V10.128ZM6.73721 10.0301C6.73512 10.0284 6.73504 10.028 6.73495 10.0279C6.73472 10.0276 6.73087 10.0224 6.72535 10.0086C6.71369 9.97946 6.69287 9.90691 6.69287 9.768H4.69287C4.69287 10.4367 4.89838 11.1157 5.48053 11.5859L6.73721 10.0301ZM6.69287 9.768C6.69287 9.65563 6.71405 9.59372 6.7313 9.55921L4.94244 8.66479C4.7677 9.01428 4.69287 9.3897 4.69287 9.768H6.69287ZM6.7313 9.55921C6.76574 9.49032 6.80394 9.44617 6.84557 9.41287L5.59618 7.85113C5.3178 8.07383 5.1 8.34968 4.94244 8.66479L6.7313 9.55921ZM6.84557 9.41287C6.9057 9.36476 6.97646 9.32586 7.066 9.29758L6.46374 7.39042C6.14794 7.49014 5.85604 7.64324 5.59618 7.85113L6.84557 9.41287ZM7.09522 9.28786C7.20336 9.25001 7.31039 9.232 7.42087 9.232V7.232C7.08335 7.232 6.75305 7.28866 6.43452 7.40014L7.09522 9.28786ZM7.42087 9.232C7.68148 9.232 7.81538 9.29548 7.89493 9.35735L9.12281 7.77865C8.62636 7.39252 8.03493 7.232 7.42087 7.232V9.232ZM7.91364 9.37156C7.91424 9.372 7.91172 9.37005 7.90893 9.36647C7.90626 9.36304 7.90773 9.36375 7.91151 9.3727C7.91976 9.39226 7.94087 9.45655 7.94087 9.592H9.94087C9.94087 8.9131 9.7221 8.22222 9.1041 7.76444L7.91364 9.37156ZM18.3395 3.048V4.048H19.1512L19.3181 3.25365L18.3395 3.048ZM13.7155 3.048V2.048H12.8938L12.7345 2.85408L13.7155 3.048ZM13.4435 4.424L12.4625 4.23008L12.0757 6.18664L13.875 5.32613L13.4435 4.424ZM14.2435 4.136L14.4945 5.104L14.5064 5.10091L14.5182 5.09752L14.2435 4.136ZM16.8995 4.28L17.2906 3.35967H17.2906L16.8995 4.28ZM17.9235 5L17.1642 5.65079L17.1708 5.65847L17.1776 5.66602L17.9235 5ZM18.4835 6.008L17.522 6.28272L17.5267 6.29936L17.5321 6.31582L18.4835 6.008ZM18.2915 8.696L17.3971 8.24879L17.3931 8.25663L17.3894 8.26454L18.2915 8.696ZM17.2675 9.976L16.6383 9.1987L16.6292 9.20624L17.2675 9.976ZM15.6515 10.824L15.3496 9.87066L15.6515 10.824ZM12.5955 11.064L12.742 10.0748L12.724 10.0721L12.7059 10.0701L12.5955 11.064ZM11.7475 10.872L11.3761 11.8005L11.3981 11.8093L11.4204 11.817L11.7475 10.872ZM10.9315 10.456L10.3924 11.2983L10.3999 11.303L10.4074 11.3077L10.9315 10.456ZM10.0995 9.784L9.12057 9.57976L9.00768 10.1209L9.40585 10.5043L10.0995 9.784ZM10.5635 7.56V6.56H9.7506L9.58457 7.35576L10.5635 7.56ZM13.0915 7.56L14.0827 7.69216L14.2337 6.56H13.0915V7.56ZM13.0435 7.976L12.0476 7.88546V7.88547L13.0435 7.976ZM13.2355 9.672L14.0858 9.14565L13.2355 9.672ZM14.5155 9.704L15.2414 10.3917L14.5155 9.704ZM14.9795 8.952L15.9103 9.31768L15.9145 9.30665L14.9795 8.952ZM15.2355 7.96L16.2242 8.10981V8.10981L15.2355 7.96ZM15.2675 6.36L14.2797 6.51597L14.2811 6.5244L15.2675 6.36ZM14.8035 5.48L14.2035 6.28L14.2257 6.29665L14.2488 6.31205L14.8035 5.48ZM13.7155 5.512L13.2336 4.63578L13.2336 4.63578L13.7155 5.512ZM13.0915 6.2V7.2H13.6607L13.9514 6.71054L13.0915 6.2ZM11.1235 6.2L10.1458 5.98987L9.88574 7.2H11.1235V6.2ZM12.2755 0.839999V-0.160001H11.4676L11.2978 0.629872L12.2755 0.839999ZM18.8035 0.839999L19.7821 1.04565L20.0355 -0.160001H18.8035V0.839999ZM18.3395 2.048H13.7155V4.048H18.3395V2.048ZM12.7345 2.85408L12.4625 4.23008L14.4245 4.61792L14.6965 3.24192L12.7345 2.85408ZM13.875 5.32613C14.0573 5.23895 14.2629 5.16404 14.4945 5.104L13.9925 3.168C13.6481 3.25729 13.3204 3.37439 13.012 3.52187L13.875 5.32613ZM14.5182 5.09752C14.7051 5.04412 14.9605 5.008 15.2995 5.008V3.008C14.8278 3.008 14.3792 3.05722 13.9688 3.17448L14.5182 5.09752ZM15.2995 5.008C15.8529 5.008 16.2429 5.08751 16.5084 5.20033L17.2906 3.35967C16.7028 3.10983 16.0261 3.008 15.2995 3.008V5.008ZM16.5084 5.20033C16.8184 5.33209 17.0249 5.48828 17.1642 5.65079L18.6828 4.34921C18.31 3.91439 17.834 3.59058 17.2906 3.35967L16.5084 5.20033ZM17.1776 5.66602C17.347 5.8558 17.4581 6.059 17.522 6.28272L19.445 5.73328C19.2956 5.21033 19.0333 4.74153 18.6694 4.33398L17.1776 5.66602ZM17.5321 6.31582C17.6189 6.58415 17.6595 6.84308 17.6595 7.096H19.6595C19.6595 6.62359 19.5828 6.15718 19.4349 5.70018L17.5321 6.31582ZM17.6595 7.096C17.6595 7.52474 17.5695 7.90394 17.3971 8.24879L19.1859 9.14321C19.5042 8.50673 19.6595 7.81926 19.6595 7.096H17.6595ZM17.3894 8.26454C17.2226 8.61313 16.9778 8.92391 16.6383 9.19876L17.8967 10.7532C18.4532 10.3028 18.891 9.7602 19.1936 9.12745L17.3894 8.26454ZM16.6292 9.20624C16.3074 9.47309 15.8886 9.69998 15.3496 9.87066L15.9534 11.7773C16.6944 11.5427 17.3529 11.2042 17.9058 10.7458L16.6292 9.20624ZM15.3496 9.87066C14.8239 10.0371 14.2081 10.128 13.4915 10.128V12.128C14.3749 12.128 15.1991 12.0162 15.9534 11.7773L15.3496 9.87066ZM13.4915 10.128C13.2282 10.128 12.9786 10.1098 12.742 10.0748L12.4489 12.0532C12.7884 12.1035 13.1361 12.128 13.4915 12.128V10.128ZM12.7059 10.0701C12.4927 10.0464 12.2827 9.99903 12.0746 9.92701L11.4204 11.817C11.767 11.937 12.1223 12.0176 12.4851 12.0579L12.7059 10.0701ZM12.1189 9.94352C11.9117 9.86065 11.6906 9.74898 11.4556 9.60434L10.4074 11.3077C10.727 11.5044 11.05 11.67 11.3761 11.8005L12.1189 9.94352ZM11.4705 9.61373C11.2715 9.48635 11.0455 9.30668 10.7931 9.06368L9.40585 10.5043C9.72951 10.816 10.0581 11.0843 10.3924 11.2983L11.4705 9.61373ZM11.0784 9.98824L11.5424 7.76424L9.58457 7.35576L9.12057 9.57976L11.0784 9.98824ZM10.5635 8.56H13.0915V6.56H10.5635V8.56ZM12.1003 7.42784C12.0777 7.59702 12.0599 7.75022 12.0476 7.88546L14.0394 8.06654C14.0484 7.96711 14.0626 7.84298 14.0827 7.69216L12.1003 7.42784ZM12.0476 7.88547C12.0325 8.05107 12.0275 8.27629 12.0275 8.536H14.0275C14.0275 8.28371 14.0331 8.1356 14.0394 8.06653L12.0476 7.88547ZM12.0275 8.536C12.0275 9.09987 12.0905 9.72229 12.3852 10.1984L14.0858 9.14565C14.105 9.17671 14.0848 9.15812 14.0631 9.0399C14.0426 8.92774 14.0275 8.76349 14.0275 8.536H12.0275ZM12.3852 10.1984C12.6997 10.7064 13.2131 11.008 13.8275 11.008V9.008C13.8499 9.008 13.9108 9.0144 13.9811 9.05431C14.0502 9.09351 14.0812 9.13822 14.0858 9.14565L12.3852 10.1984ZM13.8275 11.008C14.3829 11.008 14.8705 10.7832 15.2414 10.3917L13.7895 9.01626C13.7814 9.02489 13.7777 9.02723 13.7794 9.02605C13.7812 9.02473 13.7866 9.02116 13.7953 9.01731C13.8041 9.01344 13.8129 9.01076 13.8203 9.00924C13.8276 9.00775 13.8305 9.008 13.8275 9.008V11.008ZM15.2414 10.3917C15.5339 10.083 15.7529 9.71816 15.9102 9.31765L14.0487 8.58635C13.9714 8.78318 13.881 8.91967 13.7895 9.01626L15.2414 10.3917ZM15.9145 9.30665C16.0588 8.92633 16.1611 8.52653 16.2242 8.10981L14.2468 7.81019C14.2033 8.09747 14.1349 8.35901 14.0445 8.59735L15.9145 9.30665ZM16.2242 8.10981C16.284 7.71546 16.3155 7.3343 16.3155 6.968H14.3155C14.3155 7.22037 14.2937 7.50054 14.2468 7.81019L16.2242 8.10981ZM16.3155 6.968C16.3155 6.70477 16.2958 6.44682 16.2539 6.1956L14.2811 6.5244C14.3032 6.65718 14.3155 6.80456 14.3155 6.968H16.3155ZM16.2553 6.20404C16.2108 5.92234 16.1315 5.64403 16.0019 5.38479L14.2131 6.27921C14.2328 6.31863 14.2602 6.39233 14.2797 6.51596L16.2553 6.20404ZM16.0019 5.38479C15.8563 5.09348 15.6432 4.83796 15.3582 4.64795L14.2488 6.31205C14.2371 6.30424 14.2266 6.29474 14.2187 6.28562C14.2111 6.27684 14.21 6.27313 14.2131 6.27921L16.0019 5.38479ZM15.4035 4.68C15.0699 4.4298 14.6874 4.336 14.3235 4.336V6.336C14.3364 6.336 14.3261 6.33761 14.3001 6.32983C14.2725 6.32153 14.2377 6.30567 14.2035 6.28L15.4035 4.68ZM14.3235 4.336C13.9237 4.336 13.5558 4.45857 13.2336 4.63578L14.1974 6.38822C14.3019 6.33077 14.3393 6.336 14.3235 6.336V4.336ZM13.2336 4.63578C12.7944 4.87732 12.4739 5.28142 12.2316 5.68946L13.9514 6.71054C14.0275 6.58225 14.0918 6.49725 14.1402 6.44381C14.1891 6.38992 14.21 6.3813 14.1974 6.38822L13.2336 4.63578ZM13.0915 5.2H11.1235V7.2H13.0915V5.2ZM12.1012 6.41013L13.2532 1.05013L11.2978 0.629872L10.1458 5.98987L12.1012 6.41013ZM12.2755 1.84H18.8035V-0.160001H12.2755V1.84ZM17.8249 0.634346L17.3609 2.84235L19.3181 3.25365L19.7821 1.04565L17.8249 0.634346ZM23.9631 5.928L23.0799 6.39697L23.739 7.63827L24.6957 6.6087L23.9631 5.928ZM25.6431 4.12V3.12H25.2073L24.9106 3.4393L25.6431 4.12ZM27.4831 4.12L28.1998 4.81741L29.8516 3.12H27.4831V4.12ZM24.5871 7.096L23.8704 6.39859L23.363 6.92009L23.7031 7.56339L24.5871 7.096ZM26.6511 11V12H28.311L27.5352 10.5326L26.6511 11ZM23.2591 11L22.3757 11.4685L22.6575 12H23.2591V11ZM22.1391 8.888L23.0226 8.4195L22.3887 7.2242L21.432 8.18089L22.1391 8.888ZM20.0271 11V12H20.4413L20.7342 11.7071L20.0271 11ZM18.1871 11L17.4886 10.2844L15.731 12H18.1871V11ZM21.5311 7.736L22.2296 8.45161L22.7636 7.93038L22.416 7.27009L21.5311 7.736ZM19.6271 4.12V3.12H17.9704L18.7423 4.58591L19.6271 4.12ZM23.0031 4.12L23.8863 3.65104L23.6044 3.12H23.0031V4.12ZM24.6957 6.6087L26.3757 4.8007L24.9106 3.4393L23.2306 5.2473L24.6957 6.6087ZM25.6431 5.12H27.4831V3.12H25.6431V5.12ZM26.7664 3.42259L23.8704 6.39859L25.3038 7.79341L28.1998 4.81741L26.7664 3.42259ZM23.7031 7.56339L25.7671 11.4674L27.5352 10.5326L25.4712 6.62861L23.7031 7.56339ZM26.6511 10H23.2591V12H26.6511V10ZM24.1426 10.5315L23.0226 8.4195L21.2557 9.3565L22.3757 11.4685L24.1426 10.5315ZM21.432 8.18089L19.32 10.2929L20.7342 11.7071L22.8462 9.59511L21.432 8.18089ZM20.0271 10H18.1871V12H20.0271V10ZM18.8856 11.7156L22.2296 8.45161L20.8326 7.02038L17.4886 10.2844L18.8856 11.7156ZM22.416 7.27009L20.512 3.65409L18.7423 4.58591L20.6463 8.20191L22.416 7.27009ZM19.6271 5.12H23.0031V3.12H19.6271V5.12ZM22.1199 4.58896L23.0799 6.39697L24.8463 5.45903L23.8863 3.65104L22.1199 4.58896Z" fill="url(#paint0_linear_6588_9610)" mask="url(#path-1-outside-1_6588_9610)"/>
<defs>
<linearGradient id="paint0_linear_6588_9610" x1="1.74729" y1="3.33142e-07" x2="27.5515" y2="9.40166" gradientUnits="userSpaceOnUse">
<stop stop-color="#8E00E5"/>
<stop offset="1" stop-color="#E50000"/>
</linearGradient>
</defs>
</svg>
