<svg fill="none" height="252" viewBox="0 0 246 252" width="246" xmlns="http://www.w3.org/2000/svg"><g fill="#fff"><path d="m90.9077 97.6034c-.9139-.527-1.9423-.8234-2.9966-.8638-1.0541-.0404-2.1023.1766-3.0537.6321-.9516.4555-1.7779 1.136-2.4074 1.9824-.6297.8469-1.0437 1.8339-1.2063 2.8759-.1625 1.042-.0688 2.109.2731 3.107s.9217 1.897 1.6892 2.621 1.6998 1.25 2.7162 1.532c1.0164.283 2.0863.314 3.1173.09 1.2789-.282 2.4429-.944 3.3395-1.898.8967-.955 1.4844-2.158 1.6863-3.452s.0085-2.619-.5549-3.801c-.5634-1.1824-1.4705-2.1672-2.6027-2.8256zm-7.7309 9.8456c-.5954-.624-1.0528-1.366-1.3425-2.179-.2896-.812-.4051-1.676-.3387-2.536s.3131-1.696.7239-2.454c.4109-.7581.9768-1.4212 1.6609-1.9464.684-.525 1.471-.9001 2.3097-1.101.8386-.2007 1.7102-.2226 2.5579-.0644.8477.1583 1.6527.4933 2.3624.9831.7096.4898 1.3083 1.1237 1.7569 1.8597 3.874 6.336-4.6164 12.741-9.6905 7.438z"/><path clip-rule="evenodd" d="m91.8579 100.383c-.4964-.7457-1.1788-1.3491-1.9797-1.7505-.8008-.4014-1.6925-.5871-2.587-.5385-.8946.0486-1.761.3296-2.5137.8152-.7527.4857-1.3658 1.1598-1.7787 1.9548-.4128.795-.6111 1.684-.5754 2.579s.3043 1.765.7792 2.525c.4749.759 1.1397 1.382 1.9287 1.806.7891.424 1.6752.635 2.5707.613.9246-.015 1.828-.279 2.6146-.765s1.427-1.176 1.853-1.996c.4262-.821.6221-1.742.5672-2.665-.0547-.923-.3585-1.814-.8789-2.578zm-6.5799 1.924c.9693-1.113 2.0346-2.139 3.1834-3.0659.0032.002.006.0045.0081.0074.0021.003.0037.0064.0047.01.0007.0035.0009.0072.0003.0108s-.0018.0072-.0038.0102c-.0276.1048-.0734.2609-.1287.4495-.1063.362-.2473.842-.3622 1.308-.2041.832-.2287.831-.3482.827-.009 0-.0185 0-.0288 0-.7226.048-1.4854.249-1.9331.368-.2607.068-.4146.109-.3917.075zm.3824.589c.4287.486.8124.883 1.3139 1.376.1504.108.2372-.242.5185-1.381.0402-.163.0847-.343.1338-.539.0496-.155-.0724-.147-.1284-.144-.0067 0-.0127.001-.0172.001-.6822.073-1.3591.189-2.027.347-.0898.021-.0402.074.0783.2.0368.039.0802.085.1281.14zm.7793 4.067c-.6377-1.218-1.0811-2.529-1.3138-3.884.0671 0 .2698.246.5737.614.2964.36.6892.835 1.1463 1.314-.0573.666-.1935 1.322-.4062 1.956zm.8804-1.839c-.1044.059-.148.226-.3071.834-.071.272-.1652.632-.2981 1.109 1.1563-.703 2.2189-1.551 3.1623-2.521.2798-.292.1142-.236-.4779-.036-.4212.142-1.058.358-1.9037.573l-.0213.003c-.0664.009-.1146.016-.1542.038zm1.0229-3.038c-.1048-.068-.1579-.103-.1787-.151-.0216-.05-.0089-.115.0169-.246.0049-.025.0101-.051.0156-.081.0331-.17.4631-2.1366.4988-2.2689.0358-.1324.0609-.0887.0741-.0556.1932.4723 1.0506 3.6555 1.0506 3.6555l.0407.143c.1126.394.1284.449.0056.323-.8554-.883-1.3034-1.175-1.5236-1.319zm-.8091 2.145c-.0595.239-.0238.293 1.564-.184.0647-.02.1245-.038.1792-.054.5514-.165.6108-.182.3606-.427-.4586-.456-.9612-.865-1.5004-1.222-.1478-.084-.1715.02-.3317.73-.0637.282-.1487.658-.2717 1.157z" fill-rule="evenodd"/><path d="m9.86073 192.17c-.38371.512-.10188 1.277.64167.45 1.2358-1.374 5.1602-6.525 18.3437-24.199.3057-.41.2249-.184 1.6526.912.5782.443 2.5245-2.462-18.3993 26.819-.5901.826.1734 1.121.7053.367l14.3227-20.268c6.2094-8.814 2.895-5.591 7.9387-5.488 2.203-.257 3.0167-.132 4.1691-1.891.0278-.041-.0436-.145-.0714-.222-.5677.336-.7661 1.838-4.7236 1.501-.7031-.057-1.3935-.221-2.0468-.487-.8098-.335-1.5772 1.587 12.3433-18.4.6325-.909.0768-1.071-.4631-.325-3.5221 4.865-10.1879 14.251-12.7283 17.879-.2964.425-.3507.326-1.8074-1.102-.4538-.446-.2117.258 13.2603-18.178.5491-.752.0582-.919-.2925-.496-.8917 1.074-7.1858 9.314-7.2771 9.428-6.6156 8.569-6.2702 8.6-6.605 8.021-1.9847-3.475.7939-6.673 2.1739-5.479.5173.448.0992.827.1813.934.1323.151.3228.341.4763.12 1.1286-1.619-1.5017-2.848-3.0075-1.323-.7922.863-1.2544 1.977-1.3047 3.147-.0504 1.169.3143 2.319 1.0295 3.246.4248.614.7476-.774-18.51167 25.034z"/><path d="m15.5031 200.248c.7047-.064 1.3677-.361 1.8823-.848.5146-.486.8508-1.13.9545-1.83.037-.947-.5835-2.338-.8256-2.143-.2422.194-.0397.408.0873 1.488.176 1.479-.7012 1.819-1.679 2.44-.733.464-1.8987-1.143-1.7201.52.0129.822-.1531 1.637-.4862 2.388-.3331.752-.8254 1.422-1.4429 1.965-1.4832 1.273-3.86877.056-3.82776-3.768 0-.397-.46309-.428-.74094-.114-4.68251 5.284-10.11919-2.13-3.72987-6.483.38371-.257.84349-.375 1.30327-.334.31623 0 .48956.226.73036.339.38238.18.74624-.225.52925-.515-.50411-.688-.92618-.827-.98837-1.955-.11643-2.382 2.60522-4.631 4.36628-2.923.34798.275 0 .919.36388.945.1799 0 .1998-.133.254-.276.4803-1.282-1.19078-2.319-2.53639-2.032-.54116.135-1.05042.376-1.49856.708-.44828.331-.82669.749-1.11367 1.227-.28699.477-.47698 1.008-.55915 1.559-.08217.552-.05478 1.115.08058 1.656.15348.551-.11776.3-.85738.651-.96094.481-1.79673 1.181-2.44148 2.041-.644741.86-1.080813 1.859-1.273829 2.916-.4167818 3.661 2.732239 6.219 5.539889 4.81 1.47262-.738 1.55863-1.209 1.76239-.609 1.88147 5.557 5.5108 3.417 6.6156.895 1.2516-2.877.1799-2.69 1.2516-2.718z"/><path d="m124.442 99.3674c-3.379-.5888-12.986-2.3181-14.35-1.769-.979.3086-1.83.9307-2.42 1.7705-.591.8401-.888 1.8511-.847 2.8761-.016.249-.081.496-.079.741 0 .339.067.678.082 1.018.058 1.323-.031 2.646.132 3.977.978 8.1-2.584 8.203 12.563 9.989 2.295.265 9.639 1.191 11.748.314 3.595-1.483 3.517-4.145 3.517-8.034h.079c-.618-9.653-.151-9.087-10.425-10.8826zm7.354 17.2076c-5.728-.146-11.436-.723-17.077-1.727-3.159-.716-4.61-.369-4.979-2.035-.501-4.367-.686-8.765-.552-13.1585.218-1.8814 1.143-2.1606 14.874.3004 8.577 1.5371 9.18 1.7031 9.608 4.2341.373 2.043.517 4.122.43 6.197-.004 2.641.324 6.059-2.304 6.193z"/><path d="m96.1435 91.8778c-2.8923-1.1405-11.6699.1707-14.7554.6616-.3635.0381-.7063.1877-.9814.4284-.275.2407-.4687.5606-.5547.9159-.5852 3.4713-.9828 6.9713-1.1908 10.4853-.0675 10.228-.0543 11.23 1.1908 11.095 1.1154-.121 1.9278-.133 2.7203-.237 15.1523-1.911 14.7792.356 15.3336-1.284.5861-1.732.6814-15.2392-.7132-20.6984-.0511-.2957-.1732-.5748-.356-.8128-.1827-.2382-.4206-.4281-.6932-.554zm.9526 21.5362c-.082.884-.1733-.451-10.573.324-4.4456.332-6.642 1.312-6.7955.417-.4988-2.879-.2196-20.2118 1.3932-20.7265 3.6811-.7338 7.4219-1.1266 11.1751-1.1736 3.8555 0 4.1268.2395 4.4919 3.3078.8495 5.9143.9512 11.9123.303 17.8513z"/><path d="m29.8771 206.356c-1.2291-.033-.2487 1.19-.4326 1.476-.5504-.493-2.3816-2.42-2.9413-1.929-.1614.143.0437.379.3691.623 2.981 2.25 3.5791 4.906 4.2023 4.479.6814-.468-.5227-2.069-.8865-3.381-.18-.649 2.7547 2.804 2.2612 1.632-.4839-1.243-1.3963-2.272-2.5722-2.9z"/><path d="m125.28 108.544c-.08 2.581 2.414 4.303 4.346 3.223.521-.298.962-.717 1.285-1.223.323-.505.518-1.082.569-1.68s-.044-1.199-.277-1.752-.597-1.041-1.06-1.422c-1.733-1.547-4.759-.368-4.863 2.854zm.674.583c-.553-2.279 1.746-4.665 3.856-3.028.329.283.589.638.759 1.038.171.4.248.833.224 1.267.083 3.347-3.972 4.302-4.839.723z"/><path d="m114.206 103.972c-.169.529 2.697.59 7.664 1.066.204.02.314-.168.132-.33-.612-.559-7.567-1.436-7.796-.736z"/><path d="m120.714 106.287c-4.605-.517-5.129-.578-5.07-.174.055.377.919.327 1.837.45 3.939.529 4.177.747 4.317.463.118-.241-.541-.678-1.084-.739z"/><path d="m117.076 108.205c-.517-.028-.591.5-.041.551 3.358.313 5.248.737 4.553-.044-.127-.143-4.296-.495-4.512-.507z"/><path d="m94.3359 95.4575c.1799-.1217.492-.1468.3849-.4576-.1402-.4047-.8332.1494-.8253-.4325 0-.3359.0542-.7538-.16-.7935-.2143-.0397-.3015.2751-.3769.5502-.1005.3663-.0252.2751-.8848-.1323-.0542.4682.7935.7221.1733.9258-.209.0674-.4127.1508-.6163.2288.1494.3028.4324.1891.6692.2063.6877.0476.4271.2222.5065.7261.0264.1626-.082.3967.1428.4523.0608.0132.2248-.2473.2764-.3968.1085-.3346.1971-.1984.4841-.0912.275.0383.3557-.0622.2751-.3082-.0516-.16-.2884-.3161-.049-.4774z"/><path d="m83.1912 110.397c.3412-.331-.082-.5-.2976-.388-.4669.242-.3637-.264-.5118-.477-.0673-.079-.1422-.151-.2235-.215-.2751.336-.1653.056-.291 1.049-.3333-.082-.9258-.301-.7274 0 .2725.426.5991.359.1574.87-.0251.028-.2407.211-.1468.336.2275.304.9258-.616 1.0686.033.0578.142.1348.276.2288.397.0793-.111.16-.171.168-.237.0568-.529.9099-.037.9522-.35.0806-.598-1.099-.319-.3769-1.018z"/><path d="m86.4917 94.5057c-.1217-.0608-.2751-.1931-.3333-.16-.32.1838-.4972.1005-.6308-.2261-.0476-.1177-.2526-.1217-.2751 0-.0582.4985-.328.275-.8253.275.3465.6309.7036.611.4431.9417-.088.1269-.1342.2781-.1323.4324.0794-.0158.1759 0 .2368-.0489.1507-.1084.3147-.2764.4483-.0278.2764.5092.2354-.1534.7406.0516.4219.1719.4272-.2751.2751-.3624-.484-.3399-.1375-.5038.0529-.8755z"/><path d="m90.9408 110.246c-.0688-.157-.1217-.428-.3333-.358-.2566.084-.1058.328-.0688.517.1124.579.0225.473-.3174.702.4351.614.1984.232.1984.794.6996-.051.3055-.573.9258.234.0872-.397.0251-.548.4324-.644.7248-.172.0265-.519-.2764-1.038-.0238-.056-.3134.355-.5607-.207z"/><path d="m96.1118 102.483c.0834-.164-.5898-.275-.7459-.721-.0463-.132-.0582-.121-.2473-.275-.2155.275-.0555.713-.4959.871.0502.211.0992.42.1428.601-.1759.213-.1203.32.0635.405.3187.147.443.442.5925.144.1494-.297.4761.033.5911-.02.0756-.056.1338-.132.168-.219-.2751-.24-.2116-.501-.0688-.786z"/><path clip-rule="evenodd" d="m185.774 131.043c.512.112 1.018.261 1.513.442.178.038.341.127.471.255.129.128.219.291.26.469.041.177.031.363-.029.534-.061.172-.169.324-.312.437-.708.457-1.713.454-2.161.452-.246-.001-.324-.001-.088.077.169.033.328.107.463.213.136.107.245.243.317.4.073.157.108.328.101.5-.005.173-.052.341-.135.492-.274.304-.607.549-.98.72-.372.17-.776.263-1.185.272-.355.044-.486.044-.489.06-.004.03.405.114.691.602.531 1.642-3.697 1.558-5.401 1.364-1.806.542-3.74.483-5.51-.168-.247.153-.472.339-.672.55-.586.795-1.462 1.331-2.437 1.49-.269.101-.439.347-.654.655-.553.798-1.401 2.02-4.991 2.306-.291.024-.604.268-1.004.58-.635.496-1.492 1.164-2.833 1.388-.61.1-1.089.059-1.505.022-.528-.046-.956-.083-1.417.189-.864.509-1.821.839-2.815.973-.992.134-2.003.069-2.97-.193-.367-.099-.688.103-1.122.377-.626.393-1.487.934-3.056.934-1.022.127-2.059-.048-2.983-.504-.397-.281-.582-.226-1.024-.098-.581.169-1.607.47-4.152.307-1.496-.095-2.434-.7-2.964-1.041-.373-.24-.542-.35-.562-.06-.071 1.061-.097 1.654-.246 2.214-.229.861-.752 1.646-2.183 3.946-.237.383-.218.468-.151.768.078.343.22.968.112 2.643-.035.564.124.772.294.995.365.478.786 1.03-.522 5.304-.301.981-.669 1.935-1.035 2.887-.23.598-.459 1.193-.672 1.795-.164.378-.421.709-.749.959-.613.543-1.113.551-1.501.557-.25.004-.452.007-.607.151-.082.076-.014.156.121.315.258.302.759.891.918 2.28-.09 1.48-.533 2.919-1.296 4.191-.243.474-.367.687-.334.872.033.18.219.332.599.676.521.486.904 1.104 1.106 1.787.203.684.219 1.409.045 2.101-.297 1.629-1.136 3.109-2.381 4.199-.338.348-.155.478.201.729.497.352 1.333.942 1.538 2.711-.029.834-.248 1.65-.64 2.387-.392.736-.946 1.374-1.621 1.865-.677.494-.567.603-.341.828.021.02.044.042.066.066.577.463.986 1.101 1.164 1.818.179.717.118 1.473-.173 2.151-.571 1.203-1.446 2.236-2.536 3-.196.176-.014.401.243.717.345.425.824 1.012.691 1.867-.551 3.508-2.202 4.525-3.307 5.206-.471.29-.843.519-.988.854-2.771 6.394-14.461 15.942-22.6057 22.595-4.7503 3.879-8.2948 6.774-8.1607 7.484.5689 3.016-1.3285 10.845-3.03 11.359-.1659.051-.2269.127-.3029.221-.1647.205-.3999.499-1.9252.813-4.3279.89-11.4053-11.251-13.0605-15.657l-.1158-.308c-2.0034-5.336-2.3907-6.367-.6781-7.498.3456-.228.4992-.667.6919-1.219.3052-.874.7085-2.028 2.129-3.064 2.1194-1.547 2.2615-2.265 2.5174-3.56.3394-1.718.8788-4.449 6.4891-11.463 2.1683-2.712 3.8287-4.455 7.1747-7.966.4802-.504.9951-1.045 1.5512-1.63.2607-.274.2207-.299-.1001-.506-.2457-.157-.6564-.422-1.223-.984-.8166-.81-.4125-1.627.1249-2.716.066-.134.1339-.272.2019-.413.2699-.564.183-.602-.2728-.805-.438-.194-1.2162-.539-2.3456-1.647-1.2504-1.225-.782-2.733-.0358-4.586.2551-.634.0112-.819-1.5893-2.032-.0518-.04-.1052-.081-.1598-.122-1.5137-1.151-1.6413-2.287-1.7146-2.94-.0465-.414-.0711-.634-.4117-.541-.8413.228-1.5948.302-2.2381.365-1.1714.117-1.9766.196-2.279 1.101-.0682.208-.1058.468-.1486.764-.1476 1.02-.356 2.46-2.1007 3.621-.6963.462-1.141.491-2.6662.594-.115.008-.2359.016-.3637.025-.4829.033-.4856.041-.4168.512.2488 1.681-.6907 3.399-4.1308 3.743-.2611.027-.2558.217-.2476.507.0206.725.0588 2.079-4.0049 3.075l-.0152.004c-.681.165-1.1382.276-1.2774.717-.2489.603-.6547 1.13-1.1754 1.523-.5207.394-1.1373.64-1.7858.716-.6564.139-.8804.418-1.2078.827-.3234.402-.7477.931-1.789 1.575-17.0747 10.56-21.4107 12.04-23.4478 12.734-1.1344.387-1.5558.531-3.0675 1.864-2.9624 2.611-10.1205 7.262-13.1504 7.438-3.8278.221-6.3814-4.52-4.3795-9.869 2.5287-6.755 5.7493-9.061 7.4635-10.289.5792-.414.9864-.705 1.1367-1.004 3.5527-7.063 9.1109-13.735 11.7492-16.903.5825-.7 1.0229-1.228 1.2676-1.552 1.0633-1.407 1.9086-1.789 2.517-2.064.4735-.213.8037-.363.9814-.88.1866-.552.4989-1.052.9122-1.463.4134-.411.9164-.719 1.4694-.901.394-.129.3919-.141.3075-.583l-.0045-.023c-.1513-.822-.0911-1.67.1746-2.463.0779-.131.2216-.259.3767-.397.4297-.382.9484-.842.4079-1.687-.3324-1.732-.179-3.523.4433-5.173.4191-1.302 1.3311-1.77 2.0321-2.129.5295-.271.9385-.48.9237-.942-.0873-2.646-.0013-5.372 2.203-6.88.6516-.446 1.1373-.715 1.498-.914.6866-.381.92-.51.9815-1.133.039-.398.0606-.785.0816-1.163.1068-1.915.2009-3.6 2.4905-5.434.1978-.158.3696-.277.5073-.371.371-.254.4962-.34.2231-.587-.2649-.241-.4763-.45-.6511-.622-.4066-.401-.6155-.606-.8414-.577-.2417.032-.5029.335-1.0459.966-.3899.453-.9254 1.075-1.7035 1.886-2.8804 3.002-8.4812-7.435-7.2361-10.649.778-1.85 1.699-3.634 2.7547-5.341.8489-.732.8158-1.634.7585-3.192-.1533-4.175-.4799-13.064 15.5304-36.0188 3.2719-4.6741 6.806-9.1592 10.5849-13.4336 11.8041-13.3955 22.9809-13.3755 26.9849-13.3684.986.0017 1.538.0028 1.556-.1975.097-.3132.109-.6464.036-.966s-.228-.6144-.451-.8546c-1.8859-2.117-.195-10.098 3.348-12.1727.365-.2133.618-.6241.985-1.2204.709-1.1498 1.842-2.9887 5.014-5.4282 2.643-1.7967 5.711-2.868 8.897-3.1067 6.923-1.0149 14.878 2.7521 18.903 7.6092 2.461 2.9692 2.79 5.1219 2.984 6.3993.07.4608.123.8077.253 1.038 3.564 6.3205 1.101 15.0438-2.669 18.3608-.802.7059-.992 1.3223-1.245 2.1382-.353 1.1463-.83 2.6866-3.295 5.4221-.817.9091-1.603 1.3643-2.053 1.6258-.523.3026-.597.3462.239.5335 2.105.4726 2.76 1.777 3.258 2.7689.339.6741.605 1.2042 1.204 1.2309 1.185.518 2.199 1.3632 2.921 2.4364.723 1.0733 1.124 2.3301 1.158 3.6235-.016.31.144.4105.533.6558.301.1903.741.4675 1.343.9968.674.6373 1.157 1.4497 1.395 2.3457s.223 1.841-.045 2.728c-.144.461.182.884.62 1.45.639.826 1.513 1.956 1.503 3.954-.002.642-.129 1.067-.23 1.409-.159.533-.258.867.258 1.511 2.248 2.8 1.4 4.517.879 5.573-.256.517-.433.876-.133 1.127.827.624 1.448 1.48 1.784 2.46.335.98.369 2.037.098 3.037-.087.487.091.5.548.534.379.028.95.071 1.721.41.594.262.94.462 1.171.596.363.21.449.26.782.136.822-.312 1.712-.392 2.576-.232.863.162 1.666.557 2.32 1.144.096.087.187.182.279.276.365.383.718.752 1.401.533 1.417-.128 2.826.311 3.919 1.222.067.075.157.127.257.148.099.021.202.01.295-.031 1.152-.43 2.07.101 2.711.471.346.202.611.355.787.281.467-.11.951-.126 1.424-.046s.925.254 1.329.512c.364-2.034 1.33-3.913 2.772-5.393.137-.147.309-.253.501-.309.191-.057.394-.06.587-.01.581.218.576 1.316.409 2.429-.379.307-.719.583-1.024.834.442-2.243.525-3.456-1.083-.999-.534.914-.928 1.893-1.177 2.904-.098.092-.179.174-.244.246-.271.295-.428.515-.022 1.316-.121 1.252-.024 2.526.295 3.766.156.513.441.978.826 1.351.386.372.86.64 1.378.778 1.427.411 2.935.444 4.377.096.134 0 .348.011.613.024 1.169.061 3.347.171 4.203-.368.066-.052.122-.099.122-.148-.505-.604-2.855-.754-3.702-.808-.082-.005-.151-.009-.201-.013-.097-.007-.188-.053-.252-.126-.063-.074-.095-.169-.087-.266.007-.098.052-.188.126-.251.073-.064.169-.096.266-.089 1.806.172 3.629.026 5.385-.433 1.046-.534.009-.872-.606-1.038-.745-.216-1.509-.362-2.279-.434.18-.137.354-.268.519-.396.113-.087.224-.173.333-.257.842.016 1.972-.017 3.482-.214h-.006c.303-.036.768-.126.805-.386.073-.455-1.289-.752-2.318-.901.251-.192.491-.375.719-.548zm-53.211-45.207c2.074-1.5243 3.644-3.635 4.506-6.0599l.011-.0013c.046-.1125-.056-.258-.24-.1972-1.75.8849-3.67 1.3869-5.63 1.4727-8.794.7197-17.383-4.3121-20.798-11.5111-.56-1.1832-.774-2.0236-.9-2.517-.136-.5334-.168-.6612-.423-.378-.058.0647-.124.1455-.2.2375-.562.683-1.622 1.97-3.339 1.6492-.792-.196-1.566-.4589-2.313-.7859-.3-.0595-.272.6364-.223.913 1.413 7.8553 4.531 11.0321 9.863 14.1176 4.394 2.4976 9.284 3.9945 14.323 4.3835.386-.0418.749-.0765 1.088-.109 1.886-.1812 3.106-.2981 4.275-1.2141zm-13.496 2.8834c-5.222-1.38-10.641-2.8118-12.814-7.8411l.014-.0106c-.268-.5257-.399-1.1104-.381-1.7002.005-.2653.045-.3745.04-.4814-.01-.2098-.193-.4112-1.141-1.7679-.451-.1851-.948-.2288-1.425-.1253-.477.1034-.911.3493-1.245.7048-.812 1.3377-.14 3.7457.654 4.9855 1.286 2.2559 3.166 4.1155 5.436 5.3758 6.125 3.7312 20.354 7.3287 22.157.4049.082-.3162-.027-.4393-.333-.397-.024.0035-.065.0081-.118.0142-.403.0459-1.532.1747-1.756.482-.649.8944-2.871 1.3377-3.987 1.2477-1.422-.1458-2.836-.3666-4.234-.6615-.288-.0769-.578-.1534-.867-.2299zm-12.078-8.9408c.161.1027.315.2163.46.3402 3.596 3.4639 10.372 6.4065 14.951 7.3697 1.107.2336 2.277.3626 3.167.4609 1.825.2011 2.48.2733-.963.8503-4.645-.3669-9.17-1.6512-13.316-3.7788-3.537-1.9176-4.548-4.9098-4.299-5.2423zm1.318-25.2198c-.137-.0661-.256.0477-.16.2104v.0093c1.448 2.4173.434 6.8802-.968 9.3941-.584 1.1617-1.474 2.142-2.574 2.8354-.34.2819.336.5293.764.6616.289.133.61.1846.927.1491s.618-.1565.871-.3502c2.166-1.8405 3.559-5.8879 3.531-8.8742-.017-1.9185-.262-3.2337-2.391-4.0355zm15.552 14.029c.289-.1393.584-.2617.887-.3665v.0066c.078-.0243.161-.0303.242-.0172.081.013.157.0446.223.0923.067.0477.122.1102.161.1826.038.0725.058.1526.06.2345-.08.8614-.316 1.7012-.693 2.4796-.892 2.5265-2.271 4.269-3.166 5.4-.733.9266-1.142 1.4427-.691 1.6429 1.601.6999 3.27 1.2321 4.98 1.5877.143.0329.294.0155.425-.049.132-.0645.238-.1723.301-.3055 4.444-7.0271 5.423-13.2603 5.312-15.5268-.023-.4234-.376-.0643-.803.3679-.744.755-1.708 1.7328-1.507-.8469.448-3.5152.625-7.0597.529-10.6021-.001-.0307-.003-.0602-.004-.0885-.027-.5526-.03-.6519-3.788-.8483-.527.0014-1.047.0397-1.576.086-.377.0324-.333.2989-.221.9869.085.5199.209 1.2802.221 2.3619.077 6.9383-1.254 10.7444-1.861 12.4764-.478 1.3663-.504 1.4416.969.7455zm1.441-23.267c-3.545-.5887-9.816.1945-13.521 2.7548l-.006.0066c-1.924 1.3297-4.498 3.9601-4.887 5.3732.83-.0129 1.65.1765 2.389.5518.74.3754 1.377.9253 1.856 1.6022.252.4053.715.0765 1.608-.5577 1.886-1.3395 5.692-4.0417 13.485-4.0732 2.339.0083 4.662.3935 6.88 1.1405 4.096 1.3496 5.856 3.3722 6.823 4.4833.364.4183.615.7074.836.7827-.264-1.2079-.751-2.3558-1.438-3.3845-3.365-4.6115-8.396-7.7261-14.025-8.6797zm-17.887 10.057c-1.483-2.8817-5.6 3.0353-5.508 7.6093l-.007.0066c.068 3.542 1.453 3.9151 2.678 2.9691 2.616-2.035 4.239-7.8646 2.837-10.585zm-56.9549 94.1532c.83-.817 1.5849-1.707 2.2559-2.658l-.0066.006c.3757-.541.3718-.555-.0027-1.062-3.2686-4.323-4.1296-7.722-4.6122-9.626-.1878-.741-.3182-1.257-.5109-1.512-1.2333 1.877-2.2497 3.887-3.0299 5.994.4918 2.943 1.7494 5.707 3.6465 8.012.3125.363.6721.68 1.0691.948.1786.127.3961.185.614.166.2179-.018.4224-.113.5768-.268zm1.0518-32.88c-2.5176 5.185-3.5655 10.961-3.0299 16.701l-.0119.006c.6166 7.775 8.1041 17.006 8.8212 14.372-.0345-1.713.3334-3.412 1.0744-4.958 1.542-2.594 2.7939-3.202 3.33-3.462.2984-.145.375-.182.1564-.395-.3952-.402-.6471-.922-.7167-1.481-.0696-.56.0469-1.126.3317-1.613.3904-.915.7306-1.728 1.0331-2.452 1.9043-4.558 2.3181-5.548 4.4234-5.476.3308.01.3277-.155.3187-.632-.0066-.349-.0164-.865.0994-1.599.4103-2.585 1.262-3.845 1.8888-4.771.4343-.642.7608-1.125.7574-1.779-.044-2.555.4244-5.093 1.3774-7.465.2744-.869.7014-1.682 1.2609-2.401.1681-.182.287-.404.3459-.645.0587-.241.0554-.493-.0098-.733-.3243-1.959.2482-3.063.6766-3.889.2952-.569.522-1.006.3396-1.501-.3609-1.116-.4265-2.307-.1904-3.456.236-1.1491.7657-2.2175 1.5373-3.1012.5257-.5317.5108-.7246.466-1.3077-.0352-.4574-.0888-1.1551.0857-2.4447.1038-.7603.405-1.4802.8737-2.0877.4688-.6076 1.0886-1.0817 1.7977-1.3749.5222-.2401.53-.4247.5539-.9897.0116-.2752.0271-.6408.1077-1.1471.0737-.8698.4018-1.6989.9435-2.3835.5415-.6847 1.2727-1.1949 2.1023-1.4668.563-.2565 1.0145-.638 1.4795-1.0306.8822-.7451 1.8126-1.5309 3.6436-1.5812.4312.0608.8697.0451 1.2953-.0463.3854-.2399.7296-.5407 1.0188-.8905 1.2539-1.1451 2.5323-1.0286 3.6252-.929.8745.0797 1.6302.1486 2.1595-.4484 1.0307-1.155 3.6068-1.0333 4.9192-.4379.584.2633.682.1049.814-.1109.033-.0532.068-.1097.112-.1643.306-.3718.695-.6655 1.137-.857.442-.1913.922-.2749 1.402-.2438.449.0267.428-.0171.172-.5464-.275-.5698-.821-1.7027-1.345-3.9165-.516-2.1779-.549-2.2374-.926-2.2639-.638-.0467-1.274-.103-1.9642-.1643l-.2207-.0196c-6.6182.655-12.2097 2.7614-12.6371 3.28.3803.1223.777.1862 1.1763.1892 3.2667.0344 7.3816 1.9199 7.5775 2.6807-.5982-.1834-1.1766-.4258-1.7267-.7238-1.7968-.7224-8.1636-1.8748-9.6773-.7938-3.7681 2.4386-7.1942 5.3686-10.188 8.7127-7.7468 8.5195-17.7324 23.0409-22.5909 34.2379zm22.3267 3.56c-.3208-.572-.7959-1.417-1.0364-3.114-.1997-2.005.1159-4.029.9169-5.878-.0567-.44-.2203-.859-.4763-1.22-1.6162 2.804-2.4126 6.006-2.2982 9.24.0048.715-.2526 1.407-.7238 1.945-1.33 2.023-2.0299 4.394-2.0111 6.814-.1191.882-.5156 1.331-.7979 1.652-.2821.32-.4498.51-.1111.872 2.7215 3.088 5.8187 5.823 9.2195 8.142.0311.021.0619.052.0932.083.0916.09.1874.186.3037.073.4448-.425-.7068-1.511-1.2408-2.015-.0363-.034-.0696-.066-.0995-.094-.6904-.657-.6691-1.151-.6466-1.675.0203-.472.0418-.968-.4556-1.633-.3481-.616-.5385-1.31-.554-2.017-.0154-.708.1445-1.41.4654-2.041.3207-.671.2518-.799.1332-1.022l-.0009-.002c-1.1802-2.229-1.9715-4.041-.4975-6.765.2813-.52.1162-.814-.1822-1.345zm19.5239 38.537c.011-.138.0225-.284.0618-.407v-.004c1.859-5.676 3.2019-6.81 2.9984-7.295-.1332-.318-.9296-.357-2.6782-1.212-7.2716-3.561-7.6098-4.026-8.0416-4.142-.0842-.022-.1719-.031-.3152-.047-.5057.012-1.0069-.097-1.4625-.316-.4554-.22-.852-.546-1.1573-.949-.6238-.626-1.1977-.774-1.7949-.929-.8126-.21-1.6683-.431-2.7526-1.88-.7725-1.033-1.3398-1.454-2.3995-2.24-1.1657-.865-2.9271-2.171-6.2127-5.221-3.4871-3.239-3.378-4.131-3.3128-4.663.0204-.168.0366-.299-.0651-.458-.1679.024-.3281.086-.4685.182-.1403.095-.257.222-.3413.369-.4869.824-.9051 1.688-1.2503 2.581-1.2687 3.381-2.0683 4.572-1.8705 5.565.1998 1.002 1.4161 1.802 4.1926 4.447 7.8744 7.03 16.7953 12.791 26.4424 17.076.3795.154.402-.131.4278-.457zm17.8165-2.723c-.163-.445-2.392-.13-13.5591-4.65v-.009c-.3873-.154-.7341.786-1.2826 2.273-.5591 1.515-1.3277 3.599-2.5624 5.672-.0966.162-.1164.289.0913.375 4.3949 1.869 8.9098 3.442 13.5158 4.709.323.002.38-.146.651-.855.187-.491.478-1.252 1.032-2.42.701-1.482 1.38-2.972 1.949-4.512.113-.307.207-.47.165-.583zm-29.7588-13.561c.6602.188 1.2865.368 1.8108.972l-.004-.006c.7542.873 1.6341 1.457 4.2036 1.005.1376-.022.2646-.088.3632-.186.0987-.099.164-.226.1872-.364.2805-1.033.4405-2.097.4763-3.168-.0972-1.906-.4808-3.786-1.1379-5.578-.6098-1.63-1.6173-3.083-2.9308-4.224-1.3136-1.144-2.8917-1.939-4.5911-2.317-.9963-.277-3.8357-.502-4.1096.252-.0639.176-.1341.355-.2051.535-.4464 1.134-.9218 2.342-.0291 3.598.2416.317.4152.68.5102 1.067.0949.387.109.789.0416 1.182-.0347.403.0694.517.9326 1.457.1888.205.4138.449.6816.746.339.374.3302.542.3169.803-.0163.315-.0395.765.5312 1.875.9091 1.765 1.9684 2.068 2.9524 2.351zm-60.1983 63c-.8455.02-5.8509 6.655-6.0599 12.288.565 4.041 3.0762 5.385 5.356 4.599-.0638-.19-.1715-.185-.328-.179-.1195.006-.2674.012-.4461-.066-2.6449-1.148-3.5618-3.558-3.2853-6.37.348-3.521 2.2803-6.473 4.1198-9.283.2168-.333.4322-.661.6435-.989zm40.8803-7.366c.6123-.176 1.2958-.373 2.1368-1.119.3701-.329.0406-.353-.7896-.417-1.9692-.151-6.7561-.514-11.7086-5.657-4.0593-4.204-5.5443-6.969-6.6805-9.085-.5169-.963-.9618-1.791-1.5439-2.559-.2356-.312-1.7889.285-2.289 1.727-.3417.98-.8602 1.25-1.5064 1.586-.6274.327-1.3751.716-2.1984 1.879-.0264.029-7.5232 9.431-9.1559 11.776-1.0953 1.576-1.7441 2.777-2.33 3.862-.5126.95-.977 1.81-1.6499 2.753-.0286.04-.1074.141-.2271.294-1.1523 1.47-6.1015 7.784-6.7008 11.747-.4869 3.227.4274 6.225 3.6359 6.5 3.6386-.129 9.4458-4.619 11.5416-6.439 1.1338-.986 1.7186-1.208 2.9644-1.682 2.0821-.79 6.0107-2.282 17.4341-9.213l.3339-.202c5.7131-3.464 6.3449-3.847 6.8797-4.57.6076-.822 1.1887-.989 1.8537-1.181zm15.4302 44.719c1.5454 2.576 5.0437 7.591 8.0286 7.907.6768-.151.9971-.187 1.0143-.279.074-.397-5.4991-1.846-12.4407-18.156-1.1843-2.792-1.3111-3.746-1.5487-3.775-.0986-.012-.2162.135-.436.377-.6033.668-.6166.963-.471 1.393 1.4285 4.402 3.3946 8.613 5.8535 12.533zm13.7443-5.978c.0151-.012.0306-.025.0465-.038h.0026c.0745-.061.2592-.211.54-.435 4.0375-3.25 27.9252-22.476 28.9632-27.355-2.128.534-4.359.489-6.462-.132-4.693-1.136-8.519-3.219-11.512-4.849-1.269-.692-2.389-1.301-3.3616-1.723-2.6469-1.147-3.9273-1.992-4.645-2.466-.8868-.585-.9148-.603-1.6001.075-13.2272 13.099-14.438 18.32-15.0482 20.952-.2708 1.168-.4232 1.826-1.455 2.436-1.6449 1.001-2.8829 2.551-3.4957 4.377.2369.993 3.3435 8.061 3.9932 9.238 2.5192 4.56 4.3319 7.776 8.0432 11.4.677.735 1.5998 1.2 2.5946 1.303.6417-.098 2.6383-4.65 2.5695-10.761-.0131-1.162-.3596-1.379-.6852-1.583-.1003-.062-.1986-.124-.2846-.211-.5716-.584-2.7217-3.153-2.0098-3.55.2958-.166.6105.287 1.0377.902.1725.248.3636.523.5791.794 1.6458 2.076 1.6847 2.044 2.1896 1.626zm36.0403-53.212c1.752-1.897 2.747-4.988.649-6.541l-.037-.007c-1.068-.79-.53-1.871.101-3.141.721-1.447 1.564-3.139.295-4.93-.324-.456-.353-.652-.463-.727-.278-.188-1.069.386-8.285-.436-18.866-2.148-38.463-11.439-51.9985-23.287-1.8552-1.623-2.9439-2.692-3.6342-3.368-1.1814-1.159-1.1962-1.174-1.8911-.873-1.4812.841-2.6088 2.189-3.1755 3.796-.5068 1.434-.578 2.425-.6294 3.142-.0645.9-.0979 1.365-.9279 1.729-1.0615.487-2.0196 1.174-2.8222 2.022-1.2225 1.254-1.296 2.568-1.3788 4.049-.0229.409-.0464.831-.0951 1.267-.1072.957-.344 1.323-1.9781 2.117-2.568 1.255-2.5716 3.345-2.5748 5.151-.0026 1.458-.0047 2.73-1.3588 3.222-.4333.148-.8238.4-1.1372.733-.3135.335-.5404.74-.6609 1.182-.5717 1.57-.6517 3.278-.2289 4.895.1835.589.2706.82.2111 1.006-.0598.185-.2671.322-.6729.727-1.5123 1.509-.4717 3.241.9052 5.534.2734.455.56.932.8426 1.434 1.8723 3.325 6.2968 8.719 9.4484 10.704 4.6878 2.949 8.9138 2.826 9.2618 2.479.2739-.277.6027-.341 1.11-.44.5464-.106 1.2998-.253 2.4148-.75.974-.436.9106-1.069.8489-1.687-.0082-.081-.0163-.162-.0219-.243-.0622-.853.2897-.875 1.0705-.927.2983-.02.6592-.044 1.0835-.119 2.3905-.425 2.3157-1.663 2.2548-2.669-.044-.73-.0808-1.339.84-1.424.3411-.031.6536-.052.9421-.071 1.4597-.098 2.3048-.153 3.1212-1.334.5191-.75.6435-1.504.7553-2.183.1774-1.077.3236-1.963 1.9663-2.344.8572-.199 1.5122-.273 2.0629-.336 1.673-.192 2.3853-.273 4.8887-3.369 2.3764-2.94 5.79-3.008 5.6656-2.162-.0521.357-.3051.355-.6507.352-.1806-.003-.3865-.004-.6023.045-2.3199.53-3.1244 1.63-3.9836 2.805-.5242.717-1.0688 1.462-1.9902 2.122-.2064.148-.483.425-.483.629.0066 1.897 1.3455 2.942 2.4311 3.792.8835.69 1.5991 1.25 1.2935 2.029-.0655.166-.1152.352-.1901.632-.1064.398-.2636.984-.5892 1.974-.1284.391.0026 1.188 1.0056 1.929 1.5285 1.13 2.4021 1.235 2.6073 1.664.1741.363-.1322.955-.927 2.599-.0139.029-.0276.055-.041.082-.203.395-.2796.545 1.7505 1.761 4.7936 2.864 14.1886 8.046 19.5816 9.64 5.376 1.589 7.768.326 9.464-.572l.097-.051c1.137-.787 1.923-1.986 2.187-3.344.209-.426.249-.917.112-1.372-.138-.454-.442-.84-.853-1.079-.874-.622-.23-1.181.669-1.959.669-.58 1.48-1.283 1.906-2.225.651-1.438-.031-2.181-.815-3.031-.151-.166-.305-.335-.456-.514-.503-.596-.002-1.017.708-1.61.726-.607 1.668-1.397 1.968-2.744.186-.558.161-1.166-.071-1.706-.233-.541-.655-.977-1.187-1.227-1.462-.628-.962-1.142-.111-2.019.127-.131.263-.272.402-.423zm3.398-17.511c.926-2.223 1.732-4.495 2.411-6.806h-.023c.121-.553.184-1.117.191-1.683.004-.049-.027-.102-.056-.155-.014-.026-.03-.053-.041-.079-.213.16-.337.332-.455.495-.112.157-.218.304-.39.419-1.211.806-2.079.748-4.205.602-.172-.012-.353-.025-.544-.037-5.095-.606-10.152-1.493-15.15-2.656-.184-.045-.282-.072-.349-.038-.149.077-.137.468-.595 1.691-1.935 5.167-3.252 6.305-3.058 6.699.094.191.544.208 1.451.423 2.932.704 19.679 3.93 20.813 1.125zm10.442-19.791c.82-.003 1.637-.101 2.435-.291l-.016-.006c1.159-.099.608-7.496-4.382-11.263-.061-.045-.117-.109-.172-.171-.22-.25-.428-.484-.846.496-.052.123-.032.426-.004.863.083 1.278.242 3.706-1.097 6.15-1.242 2.268-1.201 2.305-.672 2.702 1.326 1.107 3.031 1.652 4.754 1.52zm28.796-7.009c.665-.164 1.507-.371 2.154-1.298l-.037-.009c.174-.306.029-.542-.221-.95-.27-.442-.663-1.082-.909-2.225-.223-1.024-.259-2.082-.102-3.118-.31-.099-.583-.214-.832-.32-.661-.28-1.15-.488-1.715-.112-.326.217-.562.027-.877-.227-.111-.088-.23-.185-.368-.275-1.071-.692-1.565-.532-1.997-.391-.415.135-.773.251-1.529-.403-1.184-1.025-2.246-.948-3.124-.885-.737.054-1.344.098-1.783-.53-.185-.202-.394-.38-.623-.53-.523-.52-1.195-.862-1.923-.979-.728-.115-1.474 0-2.131.332-.184.106-.397.15-.609.126-.21-.024-.409-.114-.565-.258-2.29-1.807-4.176-.939-5.229-.455-.415.192-.701.323-.831.206-.247-.23.185-.84.617-1.058.221-.111.407-.2.563-.274.669-.319.786-.376.786-.785-.004-.305.007-.598.018-.882.051-1.421.093-2.611-1.717-4.058-.541-.434-.613-.598-.377-1.276.11-.315.223-.603.327-.872.373-.958.652-1.675.4-2.521-.449-1.068-1.01-2.084-1.677-3.03-.191-.388-.07-.956.064-1.575.13-.604.271-1.256.14-1.838-.417-1.803-1.062-2.478-1.535-2.972-.39-.407-.661-.691-.591-1.382.03-.302.075-.575.119-.834.159-.951.286-1.719-.472-3.052-.58-1.0203-1.281-1.3834-1.84-1.6724-.579-.3005-1.005-.5208-.979-1.3166.04-1.3588-.428-2.6838-1.313-3.7153-1.23-1.4512-2.037-1.6218-2.582-1.7369-.456-.0964-.729-.1538-.91-.8935-.258-.8055-.699-1.5407-1.286-2.1487-.772-.6112-1.714-.9656-2.697-1.0135-.422-.0596-.443 0-.575.3969-1.183 3.5235-4.158 4.623-7.829 4.4907-7.228-.2541-16.125-3.1014-20.508-8.7736-1.68-2.174-1.799-3.8324-1.87-4.838-.041-.5753-.067-.9369-.361-1.0591-.8789-.3747-1.8235-.5704-2.7788-.5756-1.1997.0081-1.6354.4284-2.0053.7855-.2936.2832-.5458.5266-1.1053.4926-.8777-.1136-1.7655-.1274-2.6463-.041-1.2909.1159-1.8031.6875-2.2433 1.1785-.3485.3888-.6518.7271-1.2603.7493-.9574-.1044-1.9258.0232-2.8235.3718-.802.3293-1.1888.7477-1.5469 1.1348-.3786.4095-.7252.7844-1.4963.9822-.5403.1072-1.0419.3581-1.4514.7265-.4097.3684-.7123.8406-.8759 1.3666-.3013.8564-.3464 1.5417-.3835 2.1039-.0567.8624-.0944 1.4347-1.0085 1.888-2.3879 1.1844-2.2496 3.0608-2.1368 4.5905.0674.9139.1257 1.7041-.3691 2.1494-.6948.6583-1.2156 1.4785-1.5158 2.3873-.3001.9089-.3703 1.8777-.2043 2.8207.0349.2.0922.403.1501.607.1761.624.3561 1.263-.0813 1.872-1.4594 2.033-.8785 4.285-.3056 6.424.0193.072.0397.138.0594.201.1294.416.2266.728-.2579 1.956-.493 1.25-.6867 2.599-.5656 3.938.121 1.339.5536 2.631 1.2629 3.773.3915.63.1379 1.257-.172 2.021-.4839 1.194-1.1047 2.726.381 5.141.1846.3.3042.271.7234.171.356-.085.9283-.223 1.9401-.254 2.0853.213 2.0908.227 2.1049.264.0082.023.0193.052.4434.132 1.8745.513 3.5904 1.488 4.9908 2.835 3.6849 3.572 4.3888 11.097 3.1384 13.64-.0209.043-.0328.092-.035.14-.0023.049.0051.098.0219.144.0167.046.0424.087.0756.124.033.036.073.065.1175.085.7658.582 1.6777.942 2.6348 1.039.9573.098 1.9228-.072 2.7899-.488 1.2702-.532 2.083-.293 2.8734-.06.8472.25 1.6686.491 3.0002-.232 1.45-.788 1.803-.939 2.391-.939 1.089.161 2.202.011 3.208-.435.482-.326.832-.614 1.13-.859.698-.574 1.103-.908 2.216-.908 2.577.008 3.457-.977 4.247-1.861.683-.766 1.299-1.456 2.888-1.358 1.985.123 2.556-.638 3.096-1.357.421-.56.824-1.097 1.861-1.174 1.458-.114 2.829-.736 3.876-1.757.038-.14-.025-.27-.127-.478-.252-.51-.731-1.488-.502-4.227.033-.39-.075-.41-.362-.464-.273-.051-.71-.133-1.342-.594-1.288-.941-1.976-.755-2.608-.583-.52.141-1.002.273-1.75-.244-.214-.147-.411-.314-.604-.478-.641-.541-1.24-1.047-2.246-.707-.508.188-1.061.213-1.583.072-.522-.143-.987-.446-1.328-.865-.369-.299-.786-.534-1.233-.694-.306-.154-.459-.107-.8-.001-.218.068-.513.16-.975.238-1.042.177-1.378-.198-1.675-.529-.076-.085-.15-.168-.233-.237-1.096-.921-1.726-.742-2.336-.569-.146.042-.292.083-.442.108-.581.097-.824-.01-1.231-.191-.225-.1-.502-.223-.915-.346-1.087-.321-1.421-.244-1.908-.131-.232.054-.499.116-.8985.146-.0717.012-.1451-.004-.2063-.043-.0611-.039-.1057-.099-.1253-.169-.0194-.07-.0124-.145.0197-.21s.0871-.116.1545-.143c.3729-.245.7939-.409 1.2339-.48.44-.072.891-.05 1.322.064.554.089.685-.272.92-.922.073-.201.156-.43.265-.681.209-.487-.079-.884-.411-1.281-.413-.497-.168-.859.288-1.533.111-.164.234-.346.363-.552.939-1.508-.104-2.73-.663-3.384-.084-.098-.156-.183-.21-.255-.348-.464-.089-.982.248-1.656.547-1.094 1.3-2.6.007-4.959-.683-1.248-.347-1.978.06-2.865.241-.524.507-1.102.602-1.873.292-2.367-.876-3.5069-1.761-4.3691-.548-.5349-.987-.9631-.9-1.5112.056-.3485.116-.6775.173-.9913.25-1.3783.448-2.4674.023-3.6582-.874-2.4512-1.7629-2.8604-2.211-3.0668-.2022-.0932-.3148-.145-.2963-.3243.0371-.3467.8362-.3533 1.1352-.1019.9721.7324 1.6921 1.75 2.0571 2.9109.625 1.6488.531 2.2294.209 4.221-.04.2459-.083.5132-.129.8068-.077.5078.112.6528.461.9208.45.3448 1.165.8933 1.92 2.6823.752 1.777.202 3.139-.259 4.283-.364.902-.673 1.669-.25 2.398.583 1.01.917 2.144.972 3.308-.133 1.042-.494 2.042-1.058 2.928-.168.325-.001.504.21.732.011.011.021.023.032.034.635.671.999 1.553 1.022 2.476.022.924-.298 1.823-.9 2.523-.189.261-.108.431.007.671.162.339.391.817.018 1.885-.127.365-.258.633-.358.839-.196.403-.276.568.01.749.406.257.822.183 1.3.099.631-.111 1.369-.241 2.328.344.384.235.625.45.816.619.306.272.482.429.904.366.662-.136 1.336-.202 2.011-.199.74.218 1.43.577 2.032 1.059.628.713 1.252.598 1.938.471.674-.125 1.409-.26 2.266.372 1.379 1.014 1.776 1.288 2.382 1.102.559-.172 1.153-.199 1.725-.078s1.104.387 1.545.771c.706.615 2.345.761 2.754-.09.014-.03 2.131-4.14 2.294-4.346 3.346-4.24 8.132-.707 6.424.196-.146.076-.295.105-.421.129-.232.044-.384.073-.287.363.251.754.118 1.184-.741 1.306-.286.042-.479.013-.666-.015-.336-.049-.652-.096-1.451.279-.443.208-.455.352-.499.864-.025.31-.062.752-.212 1.421-.018.151-.018.305 0 .455.568-.021.633-.066.749-.146.143-.101.364-.256 1.714-.485.956-.161 1.904.862.978 1.469-.588.386-1.071.65-1.484.875-.868.472-1.423.774-1.982 1.7-.291.542-.706 1.008-1.212 1.359-.506.35-1.089.575-1.699.657-.53-.037-1.116.451-1.831 1.048-.972.811-2.185 1.822-3.829 1.982-.383-.003-.759.101-1.087.299-.328.197-.595.482-.772.822-.461.582-1.073 1.028-1.769 1.289-.696.26-1.45.326-2.18.19-.405 0-.801.109-1.15.312-.349.205-.637.499-.835.851-1.605 1.942-2.928 2.018-4.126 2.087-.909.053-1.746.1-2.578.956-1.302 1.342-2.575 1.331-4.438 1.284-.482-.012-.991.251-1.578.555-1.129.585-2.5522 1.322-4.6525.547-.7822-.29-1.2567-.121-2.5348.335-.1854.066-.3877.137-.6102.215-.7779.18-1.5839.203-2.3705.066-.7868-.136-1.5381-.428-2.2102-.86-.1844-.15-.3985-.26-.6283-.322-.2298-.063-.4702-.075-.7054-.038-1.8179.064 16.6869 8.402 29.3479 10.679.193.035.477.089.834.156 3.328.628 12.98 2.45 14.109 1.22.448-.623.743-1.344.86-2.102.118-.758.057-1.534-.179-2.264-.265-.671.218-1.369.84-2.264.905-1.304 2.101-3.028 1.683-5.697-.004-.027-.008-.052-.012-.077-.125-.777-.162-1.015.745-2.616 1.245-2.011 1.708-4.41 1.302-6.74-.092-.476.143-.951.45-1.574.526-1.071 1.267-2.574.927-5.252-.069-.538-.13-.926-.176-1.218-.122-.76-.139-.867.105-1.305 1.061-2.175 1.221-4.681.445-6.974-.179-.413-.231-.871-.148-1.314.564-1.831.728-3.762.482-5.663-.207-.614.836-.846.926 1.138.094 2.047-.156 3.087-.335 3.828-.168.698-.272 1.132.035 1.893 1.118 2.765.062 5.915-.396 7.276-.119.356-.197.59-.185.663.516 1.949.463 4.005-.154 5.925-.043.132-.079.21-.072.284.017.208.365.388 1.774 1.644 2.966 2.645 4.63 8.314 3.926 10.571-.243.774 4.387 1.637 6.269-.313.411-.427.733-.326 1.253-.16.53.168 1.268.402 2.52.209 1.449-.224 2.157-.613 2.682-.901.429-.236.736-.405 1.224-.363.582.105 1.175.139 1.765.102 1.559-.331 2.236-.905 2.771-1.357.447-.38.792-.674 1.471-.665 1.487.02 3.869-.688 4.329-2.249.118-.399.529-.501 1.049-.63zm-38.362-16.26c.179-.017.361-.033.544-.055.004.039-.007.069.002.088.031.06.258.02 1.71-.158.815-.107-3.12-2.394-5.131.926-.502.826-.924 1.628-1.297 2.338-.652 1.237-1.158 2.198-1.684 2.534-1.077.689-.592 3.626-.253 4.575.122.344.355.41.708.247.496-.227.867-.288 1.203-.344.436-.072.815-.134 1.339-.542.615-.479.927-.934 1.225-1.367.397-.581.767-1.12 1.805-1.619.526-.216 1.017-.511 1.455-.874.028-.021-.019-.206-.049-.206-.536-.099-1.608.378-2.401.732-.333.147-.616.274-.792.327-.354.108-.721.48-1.052.815-.407.414-.758.77-.964.508-.132-.17.004-.303.13-.425l.035-.036c.993-1.164 1.601-2.608 1.744-4.131-.017-.239.027-.479.126-.698s.25-.409.442-.555c.505-.359 1.111-.552 1.732-.551.028.002.934.041.934-.066.006-.584-2.224-1.235-3.218-.309-.136.129-.193.187-.261.206-.082.023-.18-.009-.452-.038.307-1.126 1.308-1.219 2.42-1.322z" fill-rule="evenodd"/><path d="m190.713 126.227c-1.05-1.437-2.184-2.81-3.397-4.112-3.493-3.344-2.933-3.308-9.475 2.142-6.81 5.672-7.409 5.705-7.324 6.688.095 1.047 4.192 6.854 5.148 7.484.606.397.986.397 1.996-.086.797-.492 1.568-1.025 2.309-1.597 2.205-1.68 8.639-5.996 9.954-7.313 1.021-1.028 1.553-2.124.789-3.206zm-7.955 7.128c-1.227.946-2.859 2.13-4.959 3.452-.794.499-1.528.958-2.203.275-1.409-1.625-2.663-3.377-3.748-5.233-.497-.917-.336-1.144-.051-1.455.551-.606 2.117-1.828 6.87-5.704 5.306-4.33 5.462-4.631 7.106-2.854.035.079.047.166.037.251-.01.086-.042.167-.092.237-.699.826.3 1.422 1.639 3.03.13.158.306.272.503.325.198.053.407.044.599-.027.622-.175.616-.159 1.006.36 1.262 1.671 1.224 1.219-6.707 7.338z"/><path d="m186.44 110.53c.212.046.219-.132.275-.298 3.288-9.915 4.578-11.5507 3.944-11.7306-.884-.2501-4.916 11.8766-4.219 12.0286z"/><path d="m190.335 138.267c-.273.253.359.601 2.769 5.612 2.94 6.114 2.669 6.023 3.112 5.444-.794-2.797-5.331-11.565-5.881-11.056z"/><path d="m208.035 131.883c-2.448-.706-13.075-3.471-11.158-1.926.329-.039 2.216.216 10.62 2.418.768.202 1.296.456 1.456.201.209-.32-.548-.588-.918-.693z"/><path d="m171.798 121.672c-.044-.078-.06-.155-.108-.185-.305-.232-.635-.431-.983-.594-.827-.306-10.807-3.857-11.07-3.03-.105.332.962.411 1.929.708 10.618 3.251 9.638 3.497 10.232 3.101z"/><path d="m174.153 107.11c2.973 6.81 2.514 6.881 3.094 6.17-1.022-3.391-3.97-10.144-5.151-11.33-.036-.036-.265.031-.232.133.128.482-.325-.964 2.289 5.027z"/><path d="m200.272 113.946c2.691-1.974 4.114-2.792 4.407-3.191 1.521-2.064-10.416 6.398-10.213 7.511 1.102-.524-.382.222 5.806-4.32z"/><path d="m185.909 125.552c-.653-.14-1.961-.311-2.647-.397-.521 0-.588.096-.435.551.282.839.467.786-.03.964-6.14 2.205-6.059 2.04-5.049 2.674 1.655 1.04 1.232.397-2.939 2.557-.733.379-.198 1.153.176 1.339.217.107.581-.133.7-.199 6.244-3.227 6.307-2.814 4.517-3.796-.157-.086-.183-.239.184-.413.935-.521 1.912-.964 2.92-1.323.871-.255.689 1.946 1.588.512 1.437-2.305 1.618-2.339 1.015-2.469z"/><path d="m207.663.00240412c18.656.17200488 37.864 16.46619588 38.04 39.69349588.041 5.3265-.986 10.6071-3.022 15.5293-2.037 4.9222-5.039 9.3859-8.831 13.1267-3.792 3.7409-8.296 6.6827-13.246 8.6516-4.949 1.9688-10.243 2.9245-15.569 2.8106-33.034-.5743-50.168-38.2606-31.287-63.6128 7.78-10.44996 18.79-16.337823 33.915-16.19889588zm22.545 70.15949588c5.686-4.5536 9.972-10.6203 12.364-17.502 2.391-6.8816 2.792-14.2986 1.154-21.3976-4.499-21.48206-28.16-36.46106-51.805-27.69807-16.992 6.29672-26.416 23.91797-25.018 38.58607 3.334 34.9898 41.383 46.2363 63.305 28.0116z"/><path d="m207.305 51.8333c4.932-.7316 7.225 6.3947 3.132 11.9213-3.467 4.6812-8.713 3.1371-9.379-1.1617-.844-5.4433 2.76-10.2409 6.247-10.7596zm2.911 1.8709c-.457-.4842-1.059-.8056-1.715-.9152-.656-.1094-1.33-.0008-1.919.3092 2.451.8045 2.755 3.3899 2.431 5.9713-.337 2.2514-1.178 4.3979-2.46 6.2795 2.32.5213 7.542-7.4703 3.66-11.6448z"/><path d="m187.936 46.0461c.079 1.7091-.367 3.4014-1.277 4.8497-.912 1.4481-2.244 2.5829-3.819 3.2518-3.167.9963-5.883-1.5097-6.086-5.1046-.574-10.1086 11.26-12.6225 11.182-2.9969zm-5.889-5.0013c-5.651 2.117-5.9 12.3618-.441 12.3618.083-.0144.164-.0435.237-.086-.032-.0786-.074-.1525-.126-.2196-2.808-2.7349-1.033-10.2436 2.832-11.7757.053-.0287.103-.0619.15-.0993-.403-.2188-.848-.3485-1.305-.3802-.458-.0318-.917.0352-1.347.1963z"/><path d="m193.781 28.9205c-5.258.209-7.521-4.0131-2.05-7.6106 6.77-4.451 15.193-2.5391 13.152 2.0416-1.512 3.3938-7.47 5.6761-11.102 5.569zm-4.326-3.3078c.937 2.7679-.509-.5147 5.309-2.6105 7.491-2.7005 8.686.9261 9.009.4458 1.447-2.1249-.391-4.4033-6.198-3.5009-3.097.479-7.863 2.9029-8.12 5.6629z"/><path d="m222.765 33.8179c.071 5.6245-3.937 7.2943-5.785 2.4596-1.626-4.2551-.05-10.5121 3.176-8.8146 1.919 1.0056 2.586 4.1705 2.609 6.355zm-4.102-5.4896c.749.8198 1.272 1.82 1.518 2.9029.607 2.2063.485 4.55-.347 6.6817-.19.4631.643.0847.752-.0489 2.553-3.1689.669-10.585-1.923-9.5357z"/><path d="m181.763 18.3934c-.303 6.1618-6.924 10.8628-7.888 6.8008-.741-3.1186 3.218-9.2155 6.615-8.7669.759.1005 1.359 1.5176 1.273 1.9661zm-6.592 7.1938c.1.0878.229.1351.362.1323.275-.0688-.08-.2421.038-.6616.377-1.8847 1.244-3.6368 2.514-5.0794.713-.9041 1.602-1.6539 2.614-2.2043-.047-.1159-.117-.2211-.206-.3094-.089-.0882-.194-.1577-.31-.2044-.116-.0465-.24-.0694-.366-.0671-.124.0023-.249.0298-.363.0808-1.063.5521-2.002 1.3174-2.757 2.2479-.754.9306-1.31 2.0065-1.631 3.161-.265.819-.614 2.4186.105 2.9042z"/><path d="m234.722 51.3164c-.419 5.1205-5.897 7.6132-7.162 4.2604-.198-.7766-.234-1.5857-.106-2.3769.129-.7912.418-1.5475.851-2.2221.433-.6745 1-1.2527 1.666-1.6986.667-.4459 1.417-.7501 2.205-.8935 1.019-.1905 2.54.8362 2.546 2.9307zm-4.292 3.9958c-.322.2898-.586.4274-.884.6973 2.437.827 6.17-5.6682 2.959-6.5573.098 1.068-.037 2.1445-.396 3.1553-.359 1.011-.931 1.9323-1.679 2.7008z"/><path d="m235.303 38.0044c-.302-1.2338-.263-2.5266.114-3.7398.376-1.2132 1.076-2.301 2.023-3.147 1.486-1.1591 3.308.0886 3.746 2.2202 1.374 6.6447-4.814 9.93-5.883 4.6666zm4.405-5.7291c-.158-.265-.409-.461-.704-.5488-.296-.0879-.614-.061-.891.0751-.295.1588-.288.1787-.109.5015.637 1.3972.768 2.9726.371 4.4562-.702 2.5616-1.726 2.6079-.898 2.8143 2.417.6034 3.796-5.3202 2.231-7.2983z"/><path d="m224.862 11.7406c2.399 2.1686 1.879 4.1321.053 4.2234-3.633.1813-8.882-4.9048-6.276-6.30992 1.73-.93279 4.757.76212 6.223 2.08652zm-5.16-1.4157c-.466.1217-.794.1244-.794.5517 0 .5505.31-.0569 1.876.8257 3.926 2.2135 3.504 3.6478 4.366 3.239 1.638-.782-2.588-4.5767-5.45-4.619z"/><path d="m187.306 63.7549c4.877 1.5507 5.424 6.7122 2.862 6.1181-1.064-.308-2.025-.8994-2.778-1.7113-.754-.8117-1.273-1.8132-1.5-2.8971-.027-.1965-.009-.3965.05-.5855.061-.1889.163-.362.298-.5066.136-.1448.302-.2572.487-.3295.185-.0722.383-.1024.581-.0881zm-.326 1.0215c-.045.0223-.083.0565-.11.0988-.026.0422-.042.0912-.043.1413-.002.0502.01.0998.035.1434.026.0438.061.08.105.1047 1.291.823 2.315 2.0053 2.944 3.4017.022.056.054.1072.096.1506.041.0434.092.0782.147.1023.055.0242.114.0372.175.0385.059.0012.119-.0096.176-.0314.055-.0218.107-.0546.149-.0963.044-.0417.078-.0914.104-.1466.023-.055.037-.1143.038-.1745s-.009-.1199-.032-.176c-.731-2.5205-3.129-3.8873-3.781-3.5565z"/><path d="m216.887 68.2754c.631-.5599 1.4-.9421 2.227-1.1076s1.683-.1084 2.481.1655c1.619.4459 1.86 1.9331 1.102 2.6555-2.465 2.3472-7.842.5213-5.81-1.7134zm3.308-.2554c-2.928.0238-3.074 1.6804-2.514 1.3469.622-.2805 1.295-.4275 1.977-.4313.681-.0038 1.356.1353 1.98.4088.667.2991 1.26-1.1021-1.442-1.3244z"/><path d="m200.947 6.55111c-.306-.89708.662-1.72005 1.529-2.01246 5.227-1.79944 7.583 2.18977 2.311 3.3078-1.376.28712-3.384.04102-3.84-1.29534zm5.767-.92618c-2.31-1.56128-5.146.2289-4.855.5954s.717.82431 1.013.41812c.336-.30443.745-.51546 1.188-.61205.443-.09658.904-.07534 1.335.06162.171.06086.324.16539.494.23154.292.11511.866-.30828.825-.69331z"/><path d="m204.232 41.7473c-.327-.033-.637-.1585-.894-.3619-.258-.2032-.451-.4759-.559-.7857-.107-.3098-.123-.6439-.048-.9628.077-.319.242-.6096.478-.8375.39-.508.909-.9035 1.502-1.1459.772-.7607 2.831-.7938 3.34.5293.636 1.6446-1.529 3.4785-3.819 3.5645zm2.47-2.7376c.55.2501.697-.4657.214-.725-1.831-.9844-3.914 1.7346-3.122 2.2638.229.1535.42-1.3826 2.908-1.5388z"/><path d="m79.6987 32.3366c1.1484-4.6825 1.0796-3.19-1.7267-2.2043-.352.1244-.5742-.2739-.2316-.4922 3.1001-1.9847 3.0895-1.0585 1.4713-2.9479-.4128-.4816-1.2569-1.4197-.6827-1.6989.1972-.0966.3004.0569.397.1707 2.2691 2.5973 1.7597 2.6383 2.3194.4049.5292-2.0985.7713-3.6823 1.2609-3.3078.4194.3255-.9447 4.3001-.8389 4.9842.0702.4617 3.7683-2.0959 4.234-1.0083.0199.0437-.1138.1641-.1918.2342-.4459.397 1.0585-.688-3.4931 1.5454-.9804.4817-.168.3613 1.4211 3.0763.0346.0646.0444.1396.0276.2109-.0169.0713-.0591.134-.1191.1764-.0598.0422-.1331.0612-.2058.0532-.0729-.008-.1404-.0423-.1896-.0965-.5161-.4935-1.6354-2.2956-1.8815-2.1792-.3692.1826-.6669 4.541-1.5705 3.0789z"/><path d="m21.5677 105.799c-.0635.189-1.5202 4.53-1.4898 4.709 1.5123-.52 4.234-1.511 4.3107-.757 0 .107-.1164.308-.4816.361-1.2249.254-2.4177.644-3.5565 1.162-.3202.121-.3295.233-.1324.55 1.3853 2.309 1.4899 2.411 1.4409 2.755-.1707 1.199-1.5097-1.691-2.1328-2.33-.5505.782-1.0678 3.58-1.7201 3.353-.6523-.228 1.3311-3.652.7145-3.552-.8653.142-2.1845 1.136-2.4293.458-.086-.234-.1614-.198 2.2189-1.248.6298-.277.5769-.022-1.0677-2.441-.4525-.661-.3533-.715-.2184-.881.1879-.229.479.048.6365.265 2.0892 2.838 1.1908 2.948 3.1543-2.17.1098-.29.295-.7.5504-.565.0979.05.1336.209.2024.331z"/><path d="m232.334 185.482c-.774.121-1.933 1.251-2.249.794-.229-.326.147-.481 1.785-1.48.631-.385.766-.275.529-.71-1.845-3.35-1.834-2.997-1.737-3.697.825.306 1.737 2.421 2.296 2.948.235-.367-.115.429 1.103-3.259.105-.323.258-.631.382-.95.013-.061.05-.114.102-.147.051-.034.115-.046.176-.033.456.099.21.486-.201 1.822-.926 3.029-1.088 3.176-.275 2.853 2.083-.823 2.117-.926 2.683-.961.374-.024.274.355.132.479-.086.077-1.573.733-2.974 1.377-.617.284-.357.204.647 1.951.168.291.278.612.443.914.12.221.107.409-.132.512-.41.18-.568-.662-1.763-2.284-.827 1.441-.502 1.927-1.27 3.262-.033.058-.278.193-.316-.082-.14-.994.716-2.617.639-3.309z"/><path d="m196.038 171.624c-14.597-13.98-39.28-3.83-39.387 16.671-.052 3.091.52 6.16 1.677 9.026 1.159 2.866 2.882 5.47 5.067 7.657 2.184 2.187 4.787 3.912 7.651 5.074 2.865 1.162 5.933 1.736 9.024 1.688 20.9-.078 31.092-25.632 15.968-40.116zm-35.741 27.948c-1.554-2.739-2.518-5.773-2.827-8.906-.309-3.135.042-6.298 1.032-9.287.989-2.99 2.594-5.738 4.711-8.07 2.119-2.33 4.701-4.191 7.582-5.462 2.882-1.27 5.997-1.922 9.146-1.914 3.148.008 6.261.676 9.135 1.962 2.875 1.286 5.448 3.16 7.554 5.502 2.105 2.341 3.695 5.099 4.669 8.093 8.3 25.975-27.503 41.374-41 18.082z"/><path d="m167.539 213.815c-8.997 16.498-7.145 16.002-8.963 14.893-.794-.484-.704-.745-.275-1.47 3.476-5.891 8.49-15.282 8.525-15.488.026-.16-.249-.397-.397-.209-.898 1.117-8.776 16.252-9.205 15.766-1.904-2.157-.415-4.866 1.024-4.407.345.11.318-.155.397-.306.237-.422-1.36-.669-2.117.223-.56.713-.864 1.593-.864 2.499 0 .908.304 1.787.864 2.501.472.602.397.432-2.919 6.665-1.415 2.664-2.802 5.153-2.922 5.425-.228.514.264.826.611.336.346-.489 2.015-4.092 6.044-11.172.227-.397.163.165 1.668.736.499.189.17.379-.275 1.323-6.105 12.867-6.027 11.957-5.611 12.314.637.548 2.155-4.458 6.732-12.805.435-.794 1.553.159 3.506-.195 1.852-.336 2.956-1.938 2.617-2.148-.275-.171-.411.041-.568.209-.963 1.04-1.952 1.587-4.63 1.087-.254-.046-.35-.119-.295-.275.142-.412 7.839-15.613 7.541-15.766-.128-.065-.289-.094-.488.264z"/><path d="m157.535 241.571c-.063-.056-.096-.084-.201.071-.038.069-.03.171.094.388.654 1.151.705 1.813.292 2.479-.279.45-.942.849-2.057.438-.345-.132-.583.049-.45.422.613 1.705-.182 4.958-2.514 4.58-.997-.162-1.745-1.047-2.107-2.718-.192-.89-.413-.529-.597-.336-.429.634-.987 1.17-1.637 1.573-1.671 1.036-3.919-.419-3.985-2.829.053-.751.268-1.483.631-2.143.363-.662.864-1.235 1.47-1.683.671-.482 1.115-.089 1.499-.072.052.008.105.001.152-.021.048-.021.089-.055.118-.099s.045-.094.045-.147c.001-.051-.012-.103-.04-.148-.168-.345-1.425-.926-1.102-2.514.388-1.9 1.853-2.563 2.788-2.187.746.302.484.733.655.865.171.133.275.064.275-.055.331-1.456-1.713-1.953-2.842-1.151-.689.457-1.196 1.144-1.43 1.939-.234.794-.18 1.646.152 2.404.283.547-.614.04-1.928 1.874-2.867 4 .434 7.966 3.364 6.827.672-.282 1.251-.743 1.676-1.335.624-.596.406 2.807 3.386 2.646 2.146-.111 2.798-2.049 2.737-4.552 0-.207-.11-.437.069-.444.478.122.983.063 1.42-.168.435-.23.77-.614.938-1.077.119-.506.102-1.034-.052-1.532-.152-.497-.435-.945-.819-1.295z"/><path d="m177.353 169.616c-3.732.574-7.243 2.145-10.158 4.546-12.671 12.587-4.878 29.996 8.398 32.695 2.684.58 5.461.567 8.139-.035 2.678-.604 5.193-1.782 7.368-3.456 2.177-1.674 3.963-3.802 5.233-6.235s1.997-5.114 2.125-7.855c.13-2.743-.339-5.48-1.375-8.022s-2.613-4.828-4.621-6.699c-2.009-1.872-4.401-3.283-7.01-4.136-2.609-.852-5.373-1.126-8.099-.803zm2.495 36.886c-3.653.034-7.23-1.035-10.264-3.069-3.036-2.033-5.384-4.936-6.74-8.327-1.356-3.393-1.657-7.115-.86-10.681.795-3.564 2.65-6.806 5.32-9.298 9.342-9.109 26.804-5.535 30.215 9.953 2.295 10.429-6.56 21.494-17.671 21.422z"/><path d="m187.197 173.875c-5.422 2.29-10.56 5.2-15.314 8.67-.452.356-.653.576 0 1.928 1.395 2.882 3.012 5.65 4.836 8.28.113.188.276.339.471.437.195.097.415.136.632.113 2.249-.029 4.484.023 6.726-.132 2.815-.194 3.885.099 3.93-.714.402-7.112-.094-18.995-1.281-18.582zm-.474.832c-.359.734-2.117 3.564-3.486 6.186-1.567 2.998-1.463 3.261-1.967 3.096-3.573-1.175-9.252-.761-8.933-1.042 4.572-3.12 9.382-5.876 14.386-8.24zm-9.466 17.605c-1.844-2.496-3.448-5.16-4.793-7.957-.529-.991-.377-.848.064-.84 5.368.622 5.475.47 8.538 1.041.397.074.223.102-1.258 3.043-3.075 6.122-2.181 4.59-2.551 4.713zm7.076.309c-7.211.132-6.597.311-6.183-.49 1.165-2.249.984-2.03 3.58-6.864.314-.585 0-.613 5.476 6.154.886 1.094.964.952-2.859 1.19zm3.307-1.628c-1.43-2.277-3.126-4.378-5.051-6.255-.44-.457-.654.119 1.869-4.597 2.938-5.49 2.595-4.853 2.738-4.983.276.326.743 14.157.717 14.157.009 1.964.107 2.303-.269 1.678z"/><path d="m186.777 194.137c-5.591.429-10.302.595-10.437.552-.397-.132-.198.275-2.365-3.719-3.935-7.252-3.796-7.861-3.796-3.525-.039 0 .142 3.03.146 3.071 1.26 13.722 1.478 12.06 3.093 11.425 3.585-1.322 7.024-3.014 10.258-5.051.349-.22 3.204-2.09 3.481-2.391.211-.228-.234-.372-.38-.362zm-14.348 6.947c-.193-.441-1.72-14.568-1.635-14.819.428.456 2.674 5.857 4.763 8.6.176.232.258-.118-2.793 5.704-.263.521-.246.441-.332.515zm.596.114c3.205-5.753 3.071-5.864 3.448-5.822.074 0 4.181-.017 4.71-.058 2.037-.159 2.77-.383 4.407-.385.228-.133.171-.122.234-.072-.03.009-13.417 7.444-12.797 6.337z"/></g></svg>