<svg xmlns="http://www.w3.org/2000/svg" width="246" height="252" fill="none" viewBox="0 0 246 252">
    <path fill="white" d="M90.9077 97.6034C89.9938 97.0764 88.9654 96.78 87.9111 96.7396C86.857 96.6992 85.8088 96.9162 84.8574 97.3717C83.9058 97.8272 83.0795 98.5077 82.45 99.3541C81.8203 100.201 81.4063 101.188 81.2437 102.23C81.0812 103.272 81.1749 104.339 81.5168 105.337C81.8587 106.335 82.4385 107.234 83.206 107.958C83.9735 108.682 84.9058 109.208 85.9222 109.49C86.9386 109.773 88.0085 109.804 89.0395 109.58C90.3184 109.298 91.4824 108.636 92.379 107.682C93.2757 106.727 93.8634 105.524 94.0653 104.23C94.2672 102.936 94.0738 101.611 93.5104 100.429C92.947 99.2466 92.0399 98.2618 90.9077 97.6034ZM83.1768 107.449C82.5814 106.825 82.124 106.083 81.8343 105.27C81.5447 104.458 81.4292 103.594 81.4956 102.734C81.562 101.874 81.8087 101.038 82.2195 100.28C82.6304 99.5219 83.1963 98.8588 83.8804 98.3336C84.5644 97.8086 85.3514 97.4335 86.1901 97.2326C87.0287 97.0319 87.9003 97.01 88.748 97.1682C89.5957 97.3265 90.4007 97.6615 91.1104 98.1513C91.82 98.6411 92.4187 99.275 92.8673 100.011C96.7413 106.347 88.2509 112.752 83.1768 107.449Z"/>
    <path fill="white" fill-rule="evenodd" d="M91.8579 100.383C91.3615 99.6373 90.6791 99.0339 89.8782 98.6325C89.0774 98.2311 88.1857 98.0454 87.2912 98.094C86.3966 98.1426 85.5302 98.4236 84.7775 98.9092C84.0248 99.3949 83.4117 100.069 82.9988 100.864C82.586 101.659 82.3877 102.548 82.4234 103.443C82.4591 104.338 82.7277 105.208 83.2026 105.968C83.6775 106.727 84.3423 107.35 85.1313 107.774C85.9204 108.198 86.8065 108.409 87.702 108.387C88.6266 108.372 89.53 108.108 90.3166 107.622C91.1032 107.136 91.7436 106.446 92.1696 105.626C92.5958 104.805 92.7917 103.884 92.7368 102.961C92.6821 102.038 92.3783 101.147 91.8579 100.383ZM85.278 102.307C86.2473 101.194 87.3126 100.168 88.4614 99.2411C88.4646 99.2431 88.4674 99.2456 88.4695 99.2485C88.4716 99.2515 88.4732 99.2549 88.4742 99.2585C88.4749 99.262 88.4751 99.2657 88.4745 99.2693C88.4739 99.2729 88.4727 99.2765 88.4707 99.2795C88.4431 99.3843 88.3973 99.5404 88.342 99.729C88.2357 100.091 88.0947 100.571 87.9798 101.037C87.7757 101.869 87.7511 101.868 87.6316 101.864C87.6226 101.864 87.6131 101.864 87.6028 101.864C86.8802 101.912 86.1174 102.113 85.6697 102.232C85.409 102.3 85.2551 102.341 85.278 102.307ZM85.6604 102.896C86.0891 103.382 86.4728 103.779 86.9743 104.272C87.1247 104.38 87.2115 104.03 87.4928 102.891C87.533 102.728 87.5775 102.548 87.6266 102.352C87.6762 102.197 87.5542 102.205 87.4982 102.208C87.4915 102.208 87.4855 102.209 87.481 102.209C86.7988 102.282 86.1219 102.398 85.454 102.556C85.3642 102.577 85.4138 102.63 85.5323 102.756C85.5691 102.795 85.6125 102.841 85.6604 102.896ZM86.4397 106.963C85.802 105.745 85.3586 104.434 85.1259 103.079C85.193 103.079 85.3957 103.325 85.6996 103.693C85.996 104.053 86.3888 104.528 86.8459 105.007C86.7886 105.673 86.6524 106.329 86.4397 106.963ZM87.3201 105.124C87.2157 105.183 87.1721 105.35 87.013 105.958C86.942 106.23 86.8478 106.59 86.7149 107.067C87.8712 106.364 88.9338 105.516 89.8772 104.546C90.157 104.254 89.9914 104.31 89.3993 104.51C88.9781 104.652 88.3413 104.868 87.4956 105.083L87.4743 105.086C87.4079 105.095 87.3597 105.102 87.3201 105.124ZM88.343 102.086C88.2382 102.018 88.1851 101.983 88.1643 101.935C88.1427 101.885 88.1554 101.82 88.1812 101.689C88.1861 101.664 88.1913 101.638 88.1968 101.608C88.2299 101.438 88.6599 99.4714 88.6956 99.3391C88.7314 99.2067 88.7565 99.2504 88.7697 99.2835C88.9629 99.7558 89.8203 102.939 89.8203 102.939L89.861 103.082C89.9736 103.476 89.9894 103.531 89.8666 103.405C89.0112 102.522 88.5632 102.23 88.343 102.086ZM87.5339 104.231C87.4744 104.47 87.5101 104.524 89.0979 104.047C89.1626 104.027 89.2224 104.009 89.2771 103.993C89.8285 103.828 89.8879 103.811 89.6377 103.566C89.1791 103.11 88.6765 102.701 88.1373 102.344C87.9895 102.26 87.9658 102.364 87.8056 103.074C87.7419 103.356 87.6569 103.732 87.5339 104.231Z" clip-rule="evenodd"/>
    <path fill="white" d="M9.86073 192.17C9.47702 192.682 9.75885 193.447 10.5024 192.62C11.7382 191.246 15.6626 186.095 28.8461 168.421C29.1518 168.011 29.071 168.237 30.4987 169.333C31.0769 169.776 33.0232 166.871 12.0994 196.152C11.5093 196.978 12.2728 197.273 12.8047 196.519L27.1274 176.251C33.3368 167.437 30.0224 170.66 35.0661 170.763C37.2691 170.506 38.0828 170.631 39.2352 168.872C39.263 168.831 39.1916 168.727 39.1638 168.65C38.5961 168.986 38.3977 170.488 34.4402 170.151C33.7371 170.094 33.0467 169.93 32.3934 169.664C31.5836 169.329 30.8162 171.251 44.7367 151.264C45.3692 150.355 44.8135 150.193 44.2736 150.939C40.7515 155.804 34.0857 165.19 31.5453 168.818C31.2489 169.243 31.1946 169.144 29.7379 167.716C29.2841 167.27 29.5262 167.974 42.9982 149.538C43.5473 148.786 43.0564 148.619 42.7057 149.042C41.814 150.116 35.5199 158.356 35.4286 158.47C28.813 167.039 29.1584 167.07 28.8236 166.491C26.8389 163.016 29.6175 159.818 30.9975 161.012C31.5148 161.46 31.0967 161.839 31.1788 161.946C31.3111 162.097 31.5016 162.287 31.6551 162.066C32.7837 160.447 30.1534 159.218 28.6476 160.743C27.8554 161.606 27.3932 162.72 27.3429 163.89C27.2925 165.059 27.6572 166.209 28.3724 167.136C28.7972 167.75 29.12 166.362 9.86073 192.17Z"/>
    <path fill="white" d="M15.5031 200.248C16.2078 200.184 16.8708 199.887 17.3854 199.4C17.9 198.914 18.2362 198.27 18.3399 197.57C18.3769 196.623 17.7564 195.232 17.5143 195.427C17.2721 195.621 17.4746 195.835 17.6016 196.915C17.7776 198.394 16.9004 198.734 15.9226 199.355C15.1896 199.819 14.0239 198.212 14.2025 199.875C14.2154 200.697 14.0494 201.512 13.7163 202.263C13.3832 203.015 12.8909 203.685 12.2734 204.228C10.7902 205.501 8.40463 204.284 8.44564 200.46C8.44564 200.063 7.98255 200.032 7.7047 200.346C3.02219 205.63 -2.41449 198.216 3.97483 193.863C4.35854 193.606 4.81832 193.488 5.2781 193.529C5.59433 193.529 5.76766 193.755 6.00846 193.868C6.39084 194.048 6.7547 193.643 6.53771 193.353C6.0336 192.665 5.61153 192.526 5.54934 191.398C5.43291 189.016 8.15456 186.767 9.91562 188.475C10.2636 188.75 9.91562 189.394 10.2795 189.42C10.4594 189.42 10.4793 189.287 10.5335 189.144C11.0138 187.862 9.34272 186.825 7.99711 187.112C7.45595 187.247 6.94669 187.488 6.49855 187.82C6.05027 188.151 5.67186 188.569 5.38488 189.047C5.09789 189.524 4.9079 190.055 4.82573 190.606C4.74356 191.158 4.77095 191.721 4.90631 192.262C5.05979 192.813 4.78855 192.562 4.04893 192.913C3.08799 193.394 2.2522 194.094 1.60745 194.954C0.962709 195.814 0.526637 196.813 0.333621 197.87C-0.0831608 201.531 3.06586 204.089 5.87351 202.68C7.34613 201.942 7.43214 201.471 7.6359 202.071C9.51737 207.628 13.1467 205.488 14.2515 202.966C15.5031 200.089 14.4314 200.276 15.5031 200.248Z"/>
    <path fill="white" d="M124.442 99.3674C121.063 98.7786 111.456 97.0493 110.092 97.5984C109.113 97.907 108.262 98.5291 107.672 99.3689C107.081 100.209 106.784 101.22 106.825 102.245C106.809 102.494 106.744 102.741 106.746 102.986C106.746 103.325 106.813 103.664 106.828 104.004C106.886 105.327 106.797 106.65 106.96 107.981C107.938 116.081 104.376 116.184 119.523 117.97C121.818 118.235 129.162 119.161 131.271 118.284C134.866 116.801 134.788 114.139 134.788 110.25H134.867C134.249 100.597 134.716 101.163 124.442 99.3674ZM131.796 116.575C126.068 116.429 120.36 115.852 114.719 114.848C111.56 114.132 110.109 114.479 109.74 112.813C109.239 108.446 109.054 104.048 109.188 99.6545C109.406 97.7731 110.331 97.4939 124.062 99.9549C132.639 101.492 133.242 101.658 133.67 104.189C134.043 106.232 134.187 108.311 134.1 110.386C134.096 113.027 134.424 116.445 131.796 116.579V116.575Z"/>
    <path fill="white" d="M96.1435 91.8778C93.2512 90.7373 84.4736 92.0485 81.3881 92.5394C81.0246 92.5775 80.6818 92.7271 80.4067 92.9678C80.1317 93.2085 79.938 93.5284 79.852 93.8837C79.2668 97.355 78.8692 100.855 78.6612 104.369C78.5937 114.597 78.6069 115.599 79.852 115.464C80.9674 115.343 81.7798 115.331 82.5723 115.227C97.7246 113.316 97.3515 115.583 97.9059 113.943C98.492 112.211 98.5873 98.7038 97.1927 93.2446C97.1416 92.9489 97.0195 92.6698 96.8367 92.4318C96.654 92.1936 96.4161 92.0037 96.1435 91.8778ZM97.0961 113.414C97.0141 114.298 96.9228 112.963 86.5231 113.738C82.0775 114.07 79.8811 115.05 79.7276 114.155C79.2288 111.276 79.508 93.9432 81.1208 93.4285C84.8019 92.6947 88.5427 92.3019 92.2959 92.2549C96.1514 92.2549 96.4227 92.4944 96.7878 95.5627C97.6373 101.477 97.739 107.475 97.0908 113.414H97.0961Z"/>
    <path fill="white" d="M29.8771 206.356C28.648 206.323 29.6284 207.546 29.4445 207.832C28.8941 207.339 27.0629 205.412 26.5032 205.903C26.3418 206.046 26.5469 206.282 26.8723 206.526C29.8533 208.776 30.4514 211.432 31.0746 211.005C31.756 210.537 30.5519 208.936 30.1881 207.624C30.0081 206.975 32.9428 210.428 32.4493 209.256C31.9654 208.013 31.053 206.984 29.8771 206.356Z"/>
    <path fill="white" d="M125.28 108.544C125.2 111.125 127.694 112.847 129.626 111.767C130.147 111.469 130.588 111.05 130.911 110.544C131.234 110.039 131.429 109.462 131.48 108.864C131.531 108.266 131.436 107.665 131.203 107.112C130.97 106.559 130.606 106.071 130.143 105.69C128.41 104.143 125.384 105.322 125.28 108.544ZM125.954 109.127C125.401 106.848 127.7 104.462 129.81 106.099C130.139 106.382 130.399 106.737 130.569 107.137C130.74 107.537 130.817 107.97 130.793 108.404C130.876 111.751 126.821 112.706 125.954 109.127Z"/>
    <path fill="white" d="M114.206 103.972C114.037 104.501 116.903 104.562 121.87 105.038C122.074 105.058 122.184 104.87 122.002 104.708C121.39 104.149 114.435 103.272 114.206 103.972Z"/>
    <path fill="white" d="M120.714 106.287C116.109 105.77 115.585 105.709 115.644 106.113C115.699 106.49 116.563 106.44 117.481 106.563C121.42 107.092 121.658 107.31 121.798 107.026C121.916 106.785 121.257 106.348 120.714 106.287Z"/>
    <path fill="white" d="M117.076 108.205C116.559 108.177 116.485 108.705 117.035 108.756C120.393 109.069 122.283 109.493 121.588 108.712C121.461 108.569 117.292 108.217 117.076 108.205Z"/>
    <path fill="white" d="M94.3359 95.4575C94.5158 95.3358 94.8279 95.3107 94.7208 94.9999C94.5806 94.5952 93.8876 95.1493 93.8955 94.5674C93.8955 94.2315 93.9497 93.8136 93.7355 93.7739C93.5212 93.7342 93.434 94.049 93.3586 94.3241C93.2581 94.6904 93.3334 94.5992 92.4738 94.1918C92.4196 94.66 93.2673 94.9139 92.6471 95.1176C92.4381 95.185 92.2344 95.2684 92.0308 95.3464C92.1802 95.6492 92.4632 95.5355 92.7 95.5527C93.3877 95.6003 93.1271 95.7749 93.2065 96.2788C93.2329 96.4414 93.1245 96.6755 93.3493 96.7311C93.4101 96.7443 93.5741 96.4838 93.6257 96.3343C93.7342 95.9997 93.8228 96.1359 94.1098 96.2431C94.3848 96.2814 94.4655 96.1809 94.3849 95.9349C94.3333 95.7749 94.0965 95.6188 94.3359 95.4575Z"/>
    <path fill="white" d="M83.1912 110.397C83.5324 110.066 83.1092 109.897 82.8936 110.009C82.4267 110.251 82.5299 109.745 82.3818 109.532C82.3145 109.453 82.2396 109.381 82.1583 109.317C81.8832 109.653 81.993 109.373 81.8673 110.366C81.534 110.284 80.9415 110.065 81.1399 110.366C81.4124 110.792 81.739 110.725 81.2973 111.236C81.2722 111.264 81.0566 111.447 81.1505 111.572C81.378 111.876 82.0763 110.956 82.2191 111.605C82.2769 111.747 82.3539 111.881 82.4479 112.002C82.5272 111.891 82.6079 111.831 82.6159 111.765C82.6727 111.236 83.5258 111.728 83.5681 111.415C83.6487 110.817 82.4691 111.096 83.1912 110.397Z"/>
    <path fill="white" d="M86.4917 94.5057C86.37 94.4449 86.2166 94.3126 86.1584 94.3457C85.8384 94.5295 85.6612 94.4462 85.5276 94.1196C85.48 94.0019 85.275 93.9979 85.2525 94.1196C85.1943 94.6181 84.9245 94.3946 84.4272 94.3946C84.7737 95.0255 85.1308 95.0056 84.8703 95.3363C84.7823 95.4632 84.7361 95.6144 84.738 95.7687C84.8174 95.7529 84.9139 95.7687 84.9748 95.7198C85.1255 95.6114 85.2895 95.4434 85.4231 95.692C85.6995 96.2012 85.6585 95.5386 86.1637 95.7436C86.5856 95.9155 86.5909 95.4685 86.4388 95.3812C85.9548 95.0413 86.3013 94.8774 86.4917 94.5057Z"/>
    <path fill="white" d="M90.9408 110.246C90.872 110.089 90.8191 109.818 90.6075 109.888C90.3509 109.972 90.5017 110.216 90.5387 110.405C90.6511 110.984 90.5612 110.878 90.2213 111.107C90.6564 111.721 90.4197 111.339 90.4197 111.901C91.1193 111.85 90.7252 111.328 91.3455 112.135C91.4327 111.738 91.3706 111.587 91.7779 111.491C92.5027 111.319 91.8044 110.972 91.5015 110.453C91.4777 110.397 91.1881 110.808 90.9408 110.246Z"/>
    <path fill="white" d="M96.1118 102.483C96.1952 102.319 95.522 102.208 95.3659 101.762C95.3196 101.63 95.3077 101.641 95.1186 101.487C94.9031 101.762 95.0631 102.2 94.6227 102.358C94.6729 102.569 94.7219 102.778 94.7655 102.959C94.5896 103.172 94.6452 103.279 94.829 103.364C95.1477 103.511 95.272 103.806 95.4215 103.508C95.5709 103.211 95.8976 103.541 96.0126 103.488C96.0882 103.432 96.1464 103.356 96.1806 103.269C95.9055 103.029 95.969 102.768 96.1118 102.483Z"/>
    <path fill="white" fill-rule="evenodd" d="M185.774 131.043C186.286 131.155 186.792 131.304 187.287 131.485C187.465 131.523 187.628 131.612 187.758 131.74C187.887 131.868 187.977 132.031 188.018 132.209C188.059 132.386 188.049 132.572 187.989 132.743C187.928 132.915 187.82 133.067 187.677 133.18C186.969 133.637 185.964 133.634 185.516 133.632C185.27 133.631 185.192 133.631 185.428 133.709C185.597 133.742 185.756 133.816 185.891 133.922C186.027 134.029 186.136 134.165 186.208 134.322C186.281 134.479 186.316 134.65 186.309 134.822C186.304 134.995 186.257 135.163 186.174 135.314C185.9 135.618 185.567 135.863 185.194 136.034C184.822 136.204 184.418 136.297 184.009 136.306C183.654 136.35 183.523 136.35 183.52 136.366C183.516 136.396 183.925 136.48 184.211 136.968C184.742 138.61 180.514 138.526 178.81 138.332C177.004 138.874 175.07 138.815 173.3 138.164C173.053 138.317 172.828 138.503 172.628 138.714C172.042 139.509 171.166 140.045 170.191 140.204C169.922 140.305 169.752 140.551 169.537 140.859C168.984 141.657 168.136 142.879 164.546 143.165C164.255 143.189 163.942 143.433 163.542 143.745C162.907 144.241 162.05 144.909 160.709 145.133C160.099 145.233 159.62 145.192 159.204 145.155C158.676 145.109 158.248 145.072 157.787 145.344C156.923 145.853 155.966 146.183 154.972 146.317C153.98 146.451 152.969 146.386 152.002 146.124C151.635 146.025 151.314 146.227 150.88 146.501C150.254 146.894 149.393 147.435 147.824 147.435C146.802 147.562 145.765 147.387 144.841 146.931C144.444 146.65 144.259 146.705 143.817 146.833C143.236 147.002 142.21 147.303 139.665 147.14C138.169 147.045 137.231 146.44 136.701 146.099C136.328 145.859 136.159 145.749 136.139 146.039C136.068 147.1 136.042 147.693 135.893 148.253C135.664 149.114 135.141 149.899 133.71 152.199C133.473 152.582 133.492 152.667 133.559 152.967C133.637 153.31 133.779 153.935 133.671 155.61C133.636 156.174 133.795 156.382 133.965 156.605C134.33 157.083 134.751 157.635 133.443 161.909C133.142 162.89 132.774 163.844 132.408 164.796C132.178 165.394 131.949 165.989 131.736 166.591C131.572 166.969 131.315 167.3 130.987 167.55C130.374 168.093 129.874 168.101 129.486 168.107C129.236 168.111 129.034 168.114 128.879 168.258C128.797 168.334 128.865 168.414 129 168.573C129.258 168.875 129.759 169.464 129.918 170.853C129.828 172.333 129.385 173.772 128.622 175.044C128.379 175.518 128.255 175.731 128.288 175.916C128.321 176.096 128.507 176.248 128.887 176.592C129.408 177.078 129.791 177.696 129.993 178.379C130.196 179.063 130.212 179.788 130.038 180.48C129.741 182.109 128.902 183.589 127.657 184.679C127.319 185.027 127.502 185.157 127.858 185.408C128.355 185.76 129.191 186.35 129.396 188.119C129.367 188.953 129.148 189.769 128.756 190.506C128.364 191.242 127.81 191.88 127.135 192.371C126.458 192.865 126.568 192.974 126.794 193.199C126.815 193.219 126.838 193.241 126.86 193.265C127.437 193.728 127.846 194.366 128.024 195.083C128.203 195.8 128.142 196.556 127.851 197.234C127.28 198.437 126.405 199.47 125.315 200.234C125.119 200.41 125.301 200.635 125.558 200.951C125.903 201.376 126.382 201.963 126.249 202.818C125.698 206.326 124.047 207.343 122.942 208.024C122.471 208.314 122.099 208.543 121.954 208.878C119.183 215.272 107.493 224.82 99.3483 231.473C94.598 235.352 91.0535 238.247 91.1876 238.957C91.7565 241.973 89.8591 249.802 88.1576 250.316C87.9917 250.367 87.9307 250.443 87.8547 250.537C87.69 250.742 87.4548 251.036 85.9295 251.35C81.6016 252.24 74.5242 240.099 72.869 235.693L72.7532 235.385C70.7498 230.049 70.3625 229.018 72.0751 227.887C72.4207 227.659 72.5743 227.22 72.767 226.668C73.0722 225.794 73.4755 224.64 74.896 223.604C77.0154 222.057 77.1575 221.339 77.4134 220.044C77.7528 218.326 78.2922 215.595 83.9025 208.581C86.0708 205.869 87.7312 204.126 91.0772 200.615C91.5574 200.111 92.0723 199.57 92.6284 198.985C92.8891 198.711 92.8491 198.686 92.5283 198.479C92.2826 198.322 91.8719 198.057 91.3053 197.495C90.4887 196.685 90.8928 195.868 91.4302 194.779C91.4962 194.645 91.5641 194.507 91.6321 194.366C91.902 193.802 91.8151 193.764 91.3593 193.561C90.9213 193.367 90.1431 193.022 89.0137 191.914C87.7633 190.689 88.2317 189.181 88.9779 187.328C89.233 186.694 88.9891 186.509 87.3886 185.296C87.3368 185.256 87.2834 185.215 87.2288 185.174C85.7151 184.023 85.5875 182.887 85.5142 182.234C85.4677 181.82 85.4431 181.6 85.1025 181.693C84.2612 181.921 83.5077 181.995 82.8644 182.058C81.693 182.175 80.8878 182.254 80.5854 183.159C80.5172 183.367 80.4796 183.627 80.4368 183.923C80.2892 184.943 80.0808 186.383 78.3361 187.544C77.6398 188.006 77.1951 188.035 75.6699 188.138C75.5549 188.146 75.434 188.154 75.3062 188.163C74.8233 188.196 74.8206 188.204 74.8894 188.675C75.1382 190.356 74.1987 192.074 70.7586 192.418C70.4975 192.445 70.5028 192.635 70.511 192.925C70.5316 193.65 70.5698 195.004 66.5061 196L66.4909 196.004C65.8099 196.169 65.3527 196.28 65.2135 196.721C64.9646 197.324 64.5588 197.851 64.0381 198.244C63.5174 198.638 62.9008 198.884 62.2523 198.96C61.5959 199.099 61.3719 199.378 61.0445 199.787C60.7211 200.189 60.2968 200.718 59.2555 201.362C42.1808 211.922 37.8448 213.402 35.8077 214.096C34.6733 214.483 34.2519 214.627 32.7402 215.96C29.7778 218.571 22.6197 223.222 19.5898 223.398C15.762 223.619 13.2084 218.878 15.2103 213.529C17.739 206.774 20.9596 204.468 22.6738 203.24C23.253 202.826 23.6602 202.535 23.8105 202.236C27.3632 195.173 32.9214 188.501 35.5597 185.333C36.1422 184.633 36.5826 184.105 36.8273 183.781C37.8906 182.374 38.7359 181.992 39.3443 181.717C39.8178 181.504 40.148 181.354 40.3257 180.837C40.5123 180.285 40.8246 179.785 41.2379 179.374C41.6513 178.963 42.1543 178.655 42.7073 178.473C43.1013 178.344 43.0992 178.332 43.0148 177.89L43.0103 177.867C42.859 177.045 42.9192 176.197 43.1849 175.404C43.2628 175.273 43.4065 175.145 43.5616 175.007C43.9913 174.625 44.51 174.165 43.9695 173.32C43.6371 171.588 43.7905 169.797 44.4128 168.147C44.8319 166.845 45.7439 166.377 46.4449 166.018C46.9744 165.747 47.3834 165.538 47.3686 165.076C47.2813 162.43 47.3673 159.704 49.5716 158.196C50.2232 157.75 50.7089 157.481 51.0696 157.282C51.7562 156.901 51.9896 156.772 52.0511 156.149C52.0901 155.751 52.1117 155.364 52.1327 154.986C52.2395 153.071 52.3336 151.386 54.6232 149.552C54.821 149.394 54.9928 149.275 55.1305 149.181C55.5015 148.927 55.6267 148.841 55.3536 148.594C55.0887 148.353 54.8773 148.144 54.7025 147.972C54.2959 147.571 54.087 147.366 53.8611 147.395C53.6194 147.427 53.3582 147.73 52.8152 148.361C52.4253 148.814 51.8898 149.436 51.1117 150.247C48.2313 153.249 42.6305 142.812 43.8756 139.598C44.6536 137.748 45.5746 135.964 46.6303 134.257C47.4792 133.525 47.4461 132.623 47.3888 131.065C47.2355 126.89 46.9089 118.001 62.9192 95.0462C66.1911 90.3721 69.7252 85.887 73.5041 81.6126C85.3082 68.2171 96.485 68.2371 100.489 68.2442C101.475 68.2459 102.027 68.247 102.045 68.0467C102.142 67.7335 102.154 67.4003 102.081 67.0807C102.008 66.7611 101.853 66.4663 101.63 66.2261C99.7441 64.1091 101.435 56.1281 104.978 54.0534C105.343 53.8401 105.596 53.4293 105.963 52.833C106.672 51.6832 107.805 49.8443 110.977 47.4048C113.62 45.6081 116.688 44.5368 119.874 44.2981C126.797 43.2832 134.752 47.0502 138.777 51.9073C141.238 54.8765 141.567 57.0292 141.761 58.3066C141.831 58.7674 141.884 59.1143 142.014 59.3446C145.578 65.6651 143.115 74.3884 139.345 77.7054C138.543 78.4113 138.353 79.0277 138.1 79.8436C137.747 80.9899 137.27 82.5302 134.805 85.2657C133.988 86.1748 133.202 86.63 132.752 86.8915C132.229 87.1941 132.155 87.2377 132.991 87.425C135.096 87.8976 135.751 89.202 136.249 90.1939C136.588 90.868 136.854 91.3981 137.453 91.4248C138.638 91.9428 139.652 92.788 140.374 93.8612C141.097 94.9345 141.498 96.1913 141.532 97.4847C141.516 97.7947 141.676 97.8952 142.065 98.1405C142.366 98.3308 142.806 98.608 143.408 99.1373C144.082 99.7746 144.565 100.587 144.803 101.483C145.041 102.379 145.026 103.324 144.758 104.211C144.614 104.672 144.94 105.095 145.378 105.661C146.017 106.487 146.891 107.617 146.881 109.615C146.879 110.257 146.752 110.682 146.651 111.024C146.492 111.557 146.393 111.891 146.909 112.535C149.157 115.335 148.309 117.052 147.788 118.108C147.532 118.625 147.355 118.984 147.655 119.235C148.482 119.859 149.103 120.715 149.439 121.695C149.774 122.675 149.808 123.732 149.537 124.732C149.45 125.219 149.628 125.232 150.085 125.266C150.464 125.294 151.035 125.337 151.806 125.676C152.4 125.938 152.746 126.138 152.977 126.272C153.34 126.482 153.426 126.532 153.759 126.408C154.581 126.096 155.471 126.016 156.335 126.176C157.198 126.338 158.001 126.733 158.655 127.32C158.751 127.407 158.842 127.502 158.934 127.596C159.299 127.979 159.652 128.348 160.335 128.129C161.752 128.001 163.161 128.44 164.254 129.351C164.321 129.426 164.411 129.478 164.511 129.499C164.61 129.52 164.713 129.509 164.806 129.468C165.958 129.038 166.876 129.569 167.517 129.939C167.863 130.141 168.128 130.294 168.304 130.22C168.771 130.11 169.255 130.094 169.728 130.174C170.201 130.254 170.653 130.428 171.057 130.686C171.421 128.652 172.387 126.773 173.829 125.293C173.966 125.146 174.138 125.04 174.33 124.984C174.521 124.927 174.724 124.924 174.917 124.974C175.498 125.192 175.493 126.29 175.326 127.403C174.947 127.71 174.607 127.986 174.302 128.237C174.744 125.994 174.827 124.781 173.219 127.238C172.685 128.152 172.291 129.131 172.042 130.142C171.944 130.234 171.863 130.316 171.798 130.388C171.527 130.683 171.37 130.903 171.776 131.704C171.655 132.956 171.752 134.23 172.071 135.47C172.227 135.983 172.512 136.448 172.897 136.821C173.283 137.193 173.757 137.461 174.275 137.599C175.702 138.01 177.21 138.043 178.652 137.695C178.786 137.695 179 137.706 179.265 137.719C180.434 137.78 182.612 137.89 183.468 137.351C183.534 137.299 183.59 137.252 183.59 137.203C183.085 136.599 180.735 136.449 179.888 136.395C179.806 136.39 179.737 136.386 179.687 136.382C179.59 136.375 179.499 136.329 179.435 136.256C179.372 136.182 179.34 136.087 179.348 135.99C179.355 135.892 179.4 135.802 179.474 135.739C179.547 135.675 179.643 135.643 179.74 135.65C181.546 135.822 183.369 135.676 185.125 135.217C186.171 134.683 185.134 134.345 184.519 134.179C183.774 133.963 183.01 133.817 182.24 133.745C182.42 133.608 182.594 133.477 182.759 133.349C182.872 133.262 182.983 133.176 183.092 133.092C183.934 133.108 185.064 133.075 186.574 132.878H186.568C186.871 132.842 187.336 132.752 187.373 132.492C187.446 132.037 186.084 131.74 185.055 131.591C185.306 131.399 185.546 131.216 185.774 131.043ZM132.563 85.836C134.637 84.3117 136.207 82.201 137.069 79.7761L137.08 79.7748C137.126 79.6623 137.024 79.5168 136.84 79.5776C135.09 80.4625 133.17 80.9645 131.21 81.0503C122.416 81.77 113.827 76.7382 110.412 69.5392C109.852 68.356 109.638 67.5156 109.512 67.0222C109.376 66.4888 109.344 66.361 109.089 66.6442C109.031 66.7089 108.965 66.7897 108.889 66.8817C108.327 67.5647 107.267 68.8517 105.55 68.5309C104.758 68.3349 103.984 68.072 103.237 67.745C102.937 67.6855 102.965 68.3814 103.014 68.658C104.427 76.5133 107.545 79.6901 112.877 82.7756C117.271 85.2732 122.161 86.7701 127.2 87.1591C127.586 87.1173 127.949 87.0826 128.288 87.0501C130.174 86.8689 131.394 86.752 132.563 85.836ZM119.067 88.7194C113.845 87.3394 108.426 85.9076 106.253 80.8783L106.267 80.8677C105.999 80.342 105.868 79.7573 105.886 79.1675C105.891 78.9022 105.931 78.793 105.926 78.6861C105.916 78.4763 105.733 78.2749 104.785 76.9182C104.334 76.7331 103.837 76.6894 103.36 76.7929C102.883 76.8963 102.449 77.1422 102.115 77.4977C101.303 78.8354 101.975 81.2434 102.769 82.4832C104.055 84.7391 105.935 86.5987 108.205 87.859C114.33 91.5902 128.559 95.1877 130.362 88.2639C130.444 87.9477 130.335 87.8246 130.029 87.8669C130.005 87.8704 129.964 87.875 129.911 87.8811C129.508 87.927 128.379 88.0558 128.155 88.3631C127.506 89.2575 125.284 89.7008 124.168 89.6108C122.746 89.465 121.332 89.2442 119.934 88.9493C119.646 88.8724 119.356 88.7959 119.067 88.7194ZM106.989 79.7786C107.15 79.8813 107.304 79.9949 107.449 80.1188C111.045 83.5827 117.821 86.5253 122.4 87.4885C123.507 87.7221 124.677 87.8511 125.567 87.9494C127.392 88.1505 128.047 88.2227 124.604 88.7997C119.959 88.4328 115.434 87.1485 111.288 85.0209C107.751 83.1033 106.74 80.1111 106.989 79.7786ZM108.307 54.5588C108.17 54.4927 108.051 54.6065 108.147 54.7692V54.7785C109.595 57.1958 108.581 61.6587 107.179 64.1726C106.595 65.3343 105.705 66.3146 104.605 67.008C104.265 67.2899 104.941 67.5373 105.369 67.6696C105.658 67.8026 105.979 67.8542 106.296 67.8187C106.613 67.7832 106.914 67.6622 107.167 67.4685C109.333 65.628 110.726 61.5806 110.698 58.5943C110.681 56.6758 110.436 55.3606 108.307 54.5588ZM123.859 68.5878C124.148 68.4485 124.443 68.3261 124.746 68.2213V68.2279C124.824 68.2036 124.907 68.1976 124.988 68.2107C125.069 68.2237 125.145 68.2553 125.211 68.303C125.278 68.3507 125.333 68.4132 125.372 68.4856C125.41 68.5581 125.43 68.6382 125.432 68.7201C125.352 69.5815 125.116 70.4213 124.739 71.1997C123.847 73.7262 122.468 75.4687 121.573 76.5997C120.84 77.5263 120.431 78.0424 120.882 78.2426C122.483 78.9425 124.152 79.4747 125.862 79.8303C126.005 79.8632 126.156 79.8458 126.287 79.7813C126.419 79.7168 126.525 79.609 126.588 79.4758C131.032 72.4487 132.011 66.2155 131.9 63.949C131.877 63.5256 131.524 63.8847 131.097 64.3169C130.353 65.0719 129.389 66.0497 129.59 63.47C130.038 59.9548 130.215 56.4103 130.119 52.8679C130.118 52.8372 130.116 52.8077 130.115 52.7794C130.088 52.2268 130.085 52.1275 126.327 51.9311C125.8 51.9325 125.28 51.9708 124.751 52.0171C124.374 52.0495 124.418 52.316 124.53 53.004C124.615 53.5239 124.739 54.2842 124.751 55.3659C124.828 62.3042 123.497 66.1103 122.89 67.8423C122.412 69.2086 122.386 69.2839 123.859 68.5878ZM125.3 45.3208C121.755 44.7321 115.484 45.5153 111.779 48.0756L111.773 48.0822C109.849 49.4119 107.275 52.0423 106.886 53.4554C107.716 53.4425 108.536 53.6319 109.275 54.0072C110.015 54.3826 110.652 54.9325 111.131 55.6094C111.383 56.0147 111.846 55.6859 112.739 55.0517C114.625 53.7122 118.431 51.01 126.224 50.9785C128.563 50.9868 130.886 51.372 133.104 52.119C137.2 53.4686 138.96 55.4912 139.927 56.6023C140.291 57.0206 140.542 57.3097 140.763 57.385C140.499 56.1771 140.012 55.0292 139.325 54.0005C135.96 49.389 130.929 46.2744 125.3 45.3208ZM107.413 55.3778C105.93 52.4961 101.813 58.4131 101.905 62.9871L101.898 62.9937C101.966 66.5357 103.351 66.9088 104.576 65.9628C107.192 63.9278 108.815 58.0982 107.413 55.3778ZM50.4581 149.531C51.2881 148.714 52.043 147.824 52.714 146.873L52.7074 146.879C53.0831 146.338 53.0792 146.324 52.7047 145.817C49.4361 141.494 48.5751 138.095 48.0925 136.191C47.9047 135.45 47.7743 134.934 47.5816 134.679C46.3483 136.556 45.3319 138.566 44.5517 140.673C45.0435 143.616 46.3011 146.38 48.1982 148.685C48.5107 149.048 48.8703 149.365 49.2673 149.633C49.4459 149.76 49.6634 149.818 49.8813 149.799C50.0992 149.781 50.3037 149.686 50.4581 149.531ZM51.5099 116.651C48.9923 121.836 47.9444 127.612 48.48 133.352L48.4681 133.358C49.0847 141.133 56.5722 150.364 57.2893 147.73C57.2548 146.017 57.6227 144.318 58.3637 142.772C59.9057 140.178 61.1576 139.57 61.6937 139.31C61.9921 139.165 62.0687 139.128 61.8501 138.915C61.4549 138.513 61.203 137.993 61.1334 137.434C61.0638 136.874 61.1803 136.308 61.4651 135.821C61.8555 134.906 62.1957 134.093 62.4982 133.369C64.4025 128.811 64.8163 127.821 66.9216 127.893C67.2524 127.903 67.2493 127.738 67.2403 127.261C67.2337 126.912 67.2239 126.396 67.3397 125.662C67.75 123.077 68.6017 121.817 69.2285 120.891C69.6628 120.249 69.9893 119.766 69.9859 119.112C69.9419 116.557 70.4103 114.019 71.3633 111.647C71.6377 110.778 72.0647 109.965 72.6242 109.246C72.7923 109.064 72.9112 108.842 72.9701 108.601C73.0288 108.36 73.0255 108.108 72.9603 107.868C72.636 105.909 73.2085 104.805 73.6369 103.979C73.9321 103.41 74.1589 102.973 73.9765 102.478C73.6156 101.362 73.55 100.171 73.7861 99.022C74.0221 97.8729 74.5518 96.8045 75.3234 95.9208C75.8491 95.3891 75.8342 95.1962 75.7894 94.6131C75.7542 94.1557 75.7006 93.458 75.8751 92.1684C75.9789 91.4081 76.2801 90.6882 76.7488 90.0807C77.2176 89.4731 77.8374 88.999 78.5465 88.7058C79.0687 88.4657 79.0765 88.2811 79.1004 87.7161C79.112 87.4409 79.1275 87.0753 79.2081 86.569C79.2818 85.6992 79.6099 84.8701 80.1516 84.1855C80.6931 83.5008 81.4243 82.9906 82.2539 82.7187C82.8169 82.4622 83.2684 82.0807 83.7334 81.6881C84.6156 80.943 85.546 80.1572 87.377 80.1069C87.8082 80.1677 88.2467 80.152 88.6723 80.0606C89.0577 79.8207 89.4019 79.5199 89.6911 79.1701C90.945 78.025 92.2234 78.1415 93.3163 78.2411C94.1908 78.3208 94.9465 78.3897 95.4758 77.7927C96.5065 76.6377 99.0826 76.7594 100.395 77.3548C100.979 77.6181 101.077 77.4597 101.209 77.2439C101.242 77.1907 101.277 77.1342 101.321 77.0796C101.627 76.7078 102.016 76.4141 102.458 76.2226C102.9 76.0313 103.38 75.9477 103.86 75.9788C104.309 76.0055 104.288 75.9617 104.032 75.4324C103.757 74.8626 103.211 73.7297 102.687 71.5159C102.171 69.338 102.138 69.2785 101.761 69.252C101.123 69.2053 100.487 69.149 99.7968 69.0877L99.5761 69.0681C92.9579 69.7231 87.3664 71.8295 86.939 72.3481C87.3193 72.4704 87.716 72.5343 88.1153 72.5373C91.382 72.5717 95.4969 74.4572 95.6928 75.218C95.0946 75.0346 94.5162 74.7922 93.9661 74.4942C92.1693 73.7718 85.8025 72.6194 84.2888 73.7004C80.5207 76.139 77.0946 79.069 74.1008 82.4131C66.354 90.9326 56.3684 105.454 51.5099 116.651ZM73.8366 120.211C73.5158 119.639 73.0407 118.794 72.8002 117.097C72.6005 115.092 72.9161 113.068 73.7171 111.219C73.6604 110.779 73.4968 110.36 73.2408 109.999C71.6246 112.803 70.8282 116.005 70.9426 119.239C70.9474 119.954 70.69 120.646 70.2188 121.184C68.8888 123.207 68.1889 125.578 68.2077 127.998C68.0886 128.88 67.6921 129.329 67.4098 129.65C67.1277 129.97 66.96 130.16 67.2987 130.522C70.0202 133.61 73.1174 136.345 76.5182 138.664C76.5493 138.685 76.5801 138.716 76.6114 138.747C76.703 138.837 76.7988 138.933 76.9151 138.82C77.3599 138.395 76.2083 137.309 75.6743 136.805C75.638 136.771 75.6047 136.739 75.5748 136.711C74.8844 136.054 74.9057 135.56 74.9282 135.036C74.9485 134.564 74.97 134.068 74.4726 133.403C74.1245 132.787 73.9341 132.093 73.9186 131.386C73.9032 130.678 74.0631 129.976 74.384 129.345C74.7047 128.674 74.6358 128.546 74.5172 128.323L74.5163 128.321C73.3361 126.092 72.5448 124.28 74.0188 121.556C74.3001 121.036 74.135 120.742 73.8366 120.211ZM93.3605 158.748C93.3715 158.61 93.383 158.464 93.4223 158.341V158.337C95.2813 152.661 96.6242 151.527 96.4207 151.042C96.2875 150.724 95.4911 150.685 93.7425 149.83C86.4709 146.269 86.1327 145.804 85.7009 145.688C85.6167 145.666 85.529 145.657 85.3857 145.641C84.88 145.653 84.3788 145.544 83.9232 145.325C83.4678 145.105 83.0712 144.779 82.7659 144.376C82.1421 143.75 81.5682 143.602 80.971 143.447C80.1584 143.237 79.3027 143.016 78.2184 141.567C77.4459 140.534 76.8786 140.113 75.8189 139.327C74.6532 138.462 72.8918 137.156 69.6062 134.106C66.1191 130.867 66.2282 129.975 66.2934 129.443C66.3138 129.275 66.33 129.144 66.2283 128.985C66.0604 129.009 65.9002 129.071 65.7598 129.167C65.6195 129.262 65.5028 129.389 65.4185 129.536C64.9316 130.36 64.5134 131.224 64.1682 132.117C62.8995 135.498 62.0999 136.689 62.2977 137.682C62.4975 138.684 63.7138 139.484 66.4903 142.129C74.3647 149.159 83.2856 154.92 92.9327 159.205C93.3122 159.359 93.3347 159.074 93.3605 158.748ZM111.177 156.025C111.014 155.58 108.785 155.895 97.6179 151.375V151.366C97.2306 151.212 96.8838 152.152 96.3353 153.639C95.7762 155.154 95.0076 157.238 93.7729 159.311C93.6763 159.473 93.6565 159.6 93.8642 159.686C98.2591 161.555 102.774 163.128 107.38 164.395C107.703 164.397 107.76 164.249 108.031 163.54C108.218 163.049 108.509 162.288 109.063 161.12C109.764 159.638 110.443 158.148 111.012 156.608C111.125 156.301 111.219 156.138 111.177 156.025ZM81.4182 142.464C82.0784 142.652 82.7047 142.832 83.229 143.436L83.225 143.43C83.9792 144.303 84.8591 144.887 87.4286 144.435C87.5662 144.413 87.6932 144.347 87.7918 144.249C87.8905 144.15 87.9558 144.023 87.979 143.885C88.2595 142.852 88.4195 141.788 88.4553 140.717C88.3581 138.811 87.9745 136.931 87.3174 135.139C86.7076 133.509 85.7001 132.056 84.3866 130.915C83.073 129.771 81.4949 128.976 79.7955 128.598C78.7992 128.321 75.9598 128.096 75.6859 128.85C75.622 129.026 75.5518 129.205 75.4808 129.385C75.0344 130.519 74.559 131.727 75.4517 132.983C75.6933 133.3 75.8669 133.663 75.9619 134.05C76.0568 134.437 76.0709 134.839 76.0035 135.232C75.9688 135.635 76.0729 135.749 76.9361 136.689C77.1249 136.894 77.3499 137.138 77.6177 137.435C77.9567 137.809 77.9479 137.977 77.9346 138.238C77.9183 138.553 77.8951 139.003 78.4658 140.113C79.3749 141.878 80.4342 142.181 81.4182 142.464ZM21.2199 205.464C20.3744 205.484 15.369 212.119 15.16 217.752C15.725 221.793 18.2362 223.137 20.516 222.351C20.4522 222.161 20.3445 222.166 20.188 222.172C20.0685 222.178 19.9206 222.184 19.7419 222.106C17.097 220.958 16.1801 218.548 16.4566 215.736C16.8046 212.215 18.7369 209.263 20.5764 206.453C20.7932 206.12 21.0086 205.792 21.2199 205.464ZM62.1002 198.098C62.7125 197.922 63.396 197.725 64.237 196.979C64.6071 196.65 64.2776 196.626 63.4474 196.562C61.4782 196.411 56.6913 196.048 51.7388 190.905C47.6795 186.701 46.1945 183.936 45.0583 181.82C44.5414 180.857 44.0965 180.029 43.5144 179.261C43.2788 178.949 41.7255 179.546 41.2254 180.988C40.8837 181.968 40.3652 182.238 39.719 182.574C39.0916 182.901 38.3439 183.29 37.5206 184.453C37.4942 184.482 29.9974 193.884 28.3647 196.229C27.2694 197.805 26.6206 199.006 26.0347 200.091C25.5221 201.041 25.0577 201.901 24.3848 202.844C24.3562 202.884 24.2774 202.985 24.1577 203.138C23.0054 204.608 18.0562 210.922 17.4569 214.885C16.97 218.112 17.8843 221.11 21.0928 221.385C24.7314 221.256 30.5386 216.766 32.6344 214.946C33.7682 213.96 34.353 213.738 35.5988 213.264C37.6809 212.474 41.6095 210.982 53.0329 204.051L53.3668 203.849C59.0799 200.385 59.7117 200.002 60.2465 199.279C60.8541 198.457 61.4352 198.29 62.1002 198.098ZM77.5304 242.817C79.0758 245.393 82.5741 250.408 85.559 250.724C86.2358 250.573 86.5561 250.537 86.5733 250.445C86.6473 250.048 81.0742 248.599 74.1326 232.289C72.9483 229.497 72.8215 228.543 72.5839 228.514C72.4853 228.502 72.3677 228.649 72.1479 228.891C71.5446 229.559 71.5313 229.854 71.6769 230.284C73.1054 234.686 75.0715 238.897 77.5304 242.817ZM91.2747 236.839C91.2898 236.827 91.3053 236.814 91.3212 236.801H91.3238C91.3983 236.74 91.583 236.59 91.8638 236.366C95.9013 233.116 119.789 213.89 120.827 209.011C118.699 209.545 116.468 209.5 114.365 208.879C109.672 207.743 105.846 205.66 102.853 204.03C101.584 203.338 100.464 202.729 99.4914 202.307C96.8445 201.16 95.5641 200.315 94.8464 199.841C93.9596 199.256 93.9316 199.238 93.2463 199.916C80.0191 213.015 78.8083 218.236 78.1981 220.868C77.9273 222.036 77.7749 222.694 76.7431 223.304C75.0982 224.305 73.8602 225.855 73.2474 227.681C73.4843 228.674 76.5909 235.742 77.2406 236.919C79.7598 241.479 81.5725 244.695 85.2838 248.319C85.9608 249.054 86.8836 249.519 87.8784 249.622C88.5201 249.524 90.5167 244.972 90.4479 238.861C90.4348 237.699 90.0883 237.482 89.7627 237.278C89.6624 237.216 89.5641 237.154 89.4781 237.067C88.9065 236.483 86.7564 233.914 87.4683 233.517C87.7641 233.351 88.0788 233.804 88.506 234.419C88.6785 234.667 88.8696 234.942 89.0851 235.213C90.7309 237.289 90.7698 237.257 91.2747 236.839ZM127.315 183.627C129.067 181.73 130.062 178.639 127.964 177.086L127.927 177.079C126.859 176.289 127.397 175.208 128.028 173.938C128.749 172.491 129.592 170.799 128.323 169.008C127.999 168.552 127.97 168.356 127.86 168.281C127.582 168.093 126.791 168.667 119.575 167.845C100.709 165.697 81.112 156.406 67.5765 144.558C65.7213 142.935 64.6326 141.866 63.9423 141.19C62.7609 140.031 62.7461 140.016 62.0512 140.317C60.57 141.158 59.4424 142.506 58.8757 144.113C58.3689 145.547 58.2977 146.538 58.2463 147.255C58.1818 148.155 58.1484 148.62 57.3184 148.984C56.2569 149.471 55.2988 150.158 54.4962 151.006C53.2737 152.26 53.2002 153.574 53.1174 155.055C53.0945 155.464 53.071 155.886 53.0223 156.322C52.9151 157.279 52.6783 157.645 51.0442 158.439C48.4762 159.694 48.4726 161.784 48.4694 163.59C48.4668 165.048 48.4647 166.32 47.1106 166.812C46.6773 166.96 46.2868 167.212 45.9734 167.545C45.6599 167.88 45.433 168.285 45.3125 168.727C44.7408 170.297 44.6608 172.005 45.0836 173.622C45.2671 174.211 45.3542 174.442 45.2947 174.628C45.2349 174.813 45.0276 174.95 44.6218 175.355C43.1095 176.864 44.1501 178.596 45.527 180.889C45.8004 181.344 46.087 181.821 46.3696 182.323C48.2419 185.648 52.6664 191.042 55.818 193.027C60.5058 195.976 64.7318 195.853 65.0798 195.506C65.3537 195.229 65.6825 195.165 66.1898 195.066C66.7362 194.96 67.4896 194.813 68.6046 194.316C69.5786 193.88 69.5152 193.247 69.4535 192.629C69.4453 192.548 69.4372 192.467 69.4316 192.386C69.3694 191.533 69.7213 191.511 70.5021 191.459C70.8004 191.439 71.1613 191.415 71.5856 191.34C73.9761 190.915 73.9013 189.677 73.8404 188.671C73.7964 187.941 73.7596 187.332 74.6804 187.247C75.0215 187.216 75.334 187.195 75.6225 187.176C77.0822 187.078 77.9273 187.023 78.7437 185.842C79.2628 185.092 79.3872 184.338 79.499 183.659C79.6764 182.582 79.8226 181.696 81.4653 181.315C82.3225 181.116 82.9775 181.042 83.5282 180.979C85.2012 180.787 85.9135 180.706 88.4169 177.61C90.7933 174.67 94.2069 174.602 94.0825 175.448C94.0304 175.805 93.7774 175.803 93.4318 175.8C93.2512 175.797 93.0453 175.796 92.8295 175.845C90.5096 176.375 89.7051 177.475 88.8459 178.65C88.3217 179.367 87.7771 180.112 86.8557 180.772C86.6493 180.92 86.3727 181.197 86.3727 181.401C86.3793 183.298 87.7182 184.343 88.8038 185.193C89.6873 185.883 90.4029 186.443 90.0973 187.222C90.0318 187.388 89.9821 187.574 89.9072 187.854C89.8008 188.252 89.6436 188.838 89.318 189.828C89.1896 190.219 89.3206 191.016 90.3236 191.757C91.8521 192.887 92.7257 192.992 92.9309 193.421C93.105 193.784 92.7987 194.376 92.0039 196.02C91.99 196.049 91.9763 196.075 91.9629 196.102C91.7599 196.497 91.6833 196.647 93.7134 197.863C98.507 200.727 107.902 205.909 113.295 207.503C118.671 209.092 121.063 207.829 122.759 206.931L122.856 206.88C123.993 206.093 124.779 204.894 125.043 203.536C125.252 203.11 125.292 202.619 125.155 202.164C125.017 201.71 124.713 201.324 124.302 201.085C123.428 200.463 124.072 199.904 124.971 199.126C125.64 198.546 126.451 197.843 126.877 196.901C127.528 195.463 126.846 194.72 126.062 193.87C125.911 193.704 125.757 193.535 125.606 193.356C125.103 192.76 125.604 192.339 126.314 191.746C127.04 191.139 127.982 190.349 128.282 189.002C128.468 188.444 128.443 187.836 128.211 187.296C127.978 186.755 127.556 186.319 127.024 186.069C125.562 185.441 126.062 184.927 126.913 184.05C127.04 183.919 127.176 183.778 127.315 183.627ZM130.713 166.116C131.639 163.893 132.445 161.621 133.124 159.31H133.101C133.222 158.757 133.285 158.193 133.292 157.627C133.296 157.578 133.265 157.525 133.236 157.472C133.222 157.446 133.206 157.419 133.195 157.393C132.982 157.553 132.858 157.725 132.74 157.888C132.628 158.045 132.522 158.192 132.35 158.307C131.139 159.113 130.271 159.055 128.145 158.909C127.973 158.897 127.792 158.884 127.601 158.872C122.506 158.266 117.449 157.379 112.451 156.216C112.267 156.171 112.169 156.144 112.102 156.178C111.953 156.255 111.965 156.646 111.507 157.869C109.572 163.036 108.255 164.174 108.449 164.568C108.543 164.759 108.993 164.776 109.9 164.991C112.832 165.695 129.579 168.921 130.713 166.116ZM141.155 146.325C141.975 146.322 142.792 146.224 143.59 146.034L143.574 146.028C144.733 145.929 144.182 138.532 139.192 134.765C139.131 134.72 139.075 134.656 139.02 134.594C138.8 134.344 138.592 134.11 138.174 135.09C138.122 135.213 138.142 135.516 138.17 135.953C138.253 137.231 138.412 139.659 137.073 142.103C135.831 144.371 135.872 144.408 136.401 144.805C137.727 145.912 139.432 146.457 141.155 146.325ZM169.951 139.316C170.616 139.152 171.458 138.945 172.105 138.018L172.068 138.009C172.242 137.703 172.097 137.467 171.847 137.059C171.577 136.617 171.184 135.977 170.938 134.834C170.715 133.81 170.679 132.752 170.836 131.716C170.526 131.617 170.253 131.502 170.004 131.396C169.343 131.116 168.854 130.908 168.289 131.284C167.963 131.501 167.727 131.311 167.412 131.057C167.301 130.969 167.182 130.872 167.044 130.782C165.973 130.09 165.479 130.25 165.047 130.391C164.632 130.526 164.274 130.642 163.518 129.988C162.334 128.963 161.272 129.04 160.394 129.103C159.657 129.157 159.05 129.201 158.611 128.573C158.426 128.371 158.217 128.193 157.988 128.043C157.465 127.523 156.793 127.181 156.065 127.064C155.337 126.949 154.591 127.064 153.934 127.396C153.75 127.502 153.537 127.546 153.325 127.522C153.115 127.498 152.916 127.408 152.76 127.264C150.47 125.457 148.584 126.325 147.531 126.809C147.116 127.001 146.83 127.132 146.7 127.015C146.453 126.785 146.885 126.175 147.317 125.957C147.538 125.846 147.724 125.757 147.88 125.683C148.549 125.364 148.666 125.307 148.666 124.898C148.662 124.593 148.673 124.3 148.684 124.016C148.735 122.595 148.777 121.405 146.967 119.958C146.426 119.524 146.354 119.36 146.59 118.682C146.7 118.367 146.813 118.079 146.917 117.81C147.29 116.852 147.569 116.135 147.317 115.289C146.868 114.221 146.307 113.205 145.64 112.259C145.449 111.871 145.57 111.303 145.704 110.684C145.834 110.08 145.975 109.428 145.844 108.846C145.427 107.043 144.782 106.368 144.309 105.874C143.919 105.467 143.648 105.183 143.718 104.492C143.748 104.19 143.793 103.917 143.837 103.658C143.996 102.707 144.123 101.939 143.365 100.606C142.785 99.5857 142.084 99.2226 141.525 98.9336C140.946 98.6331 140.52 98.4128 140.546 97.617C140.586 96.2582 140.118 94.9332 139.233 93.9017C138.003 92.4505 137.196 92.2799 136.651 92.1648C136.195 92.0684 135.922 92.011 135.741 91.2713C135.483 90.4658 135.042 89.7306 134.455 89.1226C133.683 88.5114 132.741 88.157 131.758 88.1091C131.336 88.0495 131.315 88.1091 131.183 88.506C130 92.0295 127.025 93.129 123.354 92.9967C116.126 92.7426 107.229 89.8953 102.846 84.2231C101.166 82.0491 101.047 80.3907 100.976 79.3851C100.935 78.8098 100.909 78.4482 100.615 78.326C99.7361 77.9513 98.7915 77.7556 97.8362 77.7504C96.6365 77.7585 96.2008 78.1788 95.8309 78.5359C95.5373 78.8191 95.2851 79.0625 94.7256 79.0285C93.8479 78.9149 92.9601 78.9011 92.0793 78.9875C90.7884 79.1034 90.2762 79.675 89.836 80.166C89.4875 80.5548 89.1842 80.8931 88.5757 80.9153C87.6183 80.8109 86.6499 80.9385 85.7522 81.2871C84.9502 81.6164 84.5634 82.0348 84.2053 82.4219C83.8267 82.8314 83.4801 83.2063 82.709 83.4041C82.1687 83.5113 81.6671 83.7622 81.2576 84.1306C80.8479 84.499 80.5453 84.9712 80.3817 85.4972C80.0804 86.3536 80.0353 87.0389 79.9982 87.6011C79.9415 88.4635 79.9038 89.0358 78.9897 89.4891C76.6018 90.6735 76.7401 92.5499 76.8529 94.0796C76.9203 94.9935 76.9786 95.7837 76.4838 96.229C75.789 96.8873 75.2682 97.7075 74.968 98.6163C74.6679 99.5252 74.5977 100.494 74.7637 101.437C74.7986 101.637 74.8559 101.84 74.9138 102.044C75.0899 102.668 75.2699 103.307 74.8325 103.916C73.3731 105.949 73.954 108.201 74.5269 110.34C74.5462 110.412 74.5666 110.478 74.5863 110.541C74.7157 110.957 74.8129 111.269 74.3284 112.497C73.8354 113.747 73.6417 115.096 73.7628 116.435C73.8838 117.774 74.3164 119.066 75.0257 120.208C75.4172 120.838 75.1636 121.465 74.8537 122.229C74.3698 123.423 73.749 124.955 75.2347 127.37C75.4193 127.67 75.5389 127.641 75.9581 127.541C76.3141 127.456 76.8864 127.318 77.8982 127.287C79.9835 127.5 79.989 127.514 80.0031 127.551C80.0113 127.574 80.0224 127.603 80.4465 127.683C82.321 128.196 84.0369 129.171 85.4373 130.518C89.1222 134.09 89.8261 141.615 88.5757 144.158C88.5548 144.201 88.5429 144.25 88.5407 144.298C88.5384 144.347 88.5458 144.396 88.5626 144.442C88.5793 144.488 88.605 144.529 88.6382 144.566C88.6712 144.602 88.7112 144.631 88.7557 144.651C89.5215 145.233 90.4334 145.593 91.3905 145.69C92.3478 145.788 93.3133 145.618 94.1804 145.202C95.4506 144.67 96.2634 144.909 97.0538 145.142C97.901 145.392 98.7224 145.633 100.054 144.91C101.504 144.122 101.857 143.971 102.445 143.971C103.534 144.132 104.647 143.982 105.653 143.536C106.135 143.21 106.485 142.922 106.783 142.677C107.481 142.103 107.886 141.769 108.999 141.769C111.576 141.777 112.456 140.792 113.246 139.908C113.929 139.142 114.545 138.452 116.134 138.55C118.119 138.673 118.69 137.912 119.23 137.193C119.651 136.633 120.054 136.096 121.091 136.019C122.549 135.905 123.92 135.283 124.967 134.262C125.005 134.122 124.942 133.992 124.84 133.784C124.588 133.274 124.109 132.296 124.338 129.557C124.371 129.167 124.263 129.147 123.976 129.093C123.703 129.042 123.266 128.96 122.634 128.499C121.346 127.558 120.658 127.744 120.026 127.916C119.506 128.057 119.024 128.189 118.276 127.672C118.062 127.525 117.865 127.358 117.672 127.194C117.031 126.653 116.432 126.147 115.426 126.487C114.918 126.675 114.365 126.7 113.843 126.559C113.321 126.416 112.856 126.113 112.515 125.694C112.146 125.395 111.729 125.16 111.282 125C110.976 124.846 110.823 124.893 110.482 124.999C110.264 125.067 109.969 125.159 109.507 125.237C108.465 125.414 108.129 125.039 107.832 124.708C107.756 124.623 107.682 124.54 107.599 124.471C106.503 123.55 105.873 123.729 105.263 123.902C105.117 123.944 104.971 123.985 104.821 124.01C104.24 124.107 103.997 124 103.59 123.819C103.365 123.719 103.088 123.596 102.675 123.473C101.588 123.152 101.254 123.229 100.767 123.342C100.535 123.396 100.268 123.458 99.8685 123.488C99.7968 123.5 99.7234 123.484 99.6622 123.445C99.6011 123.406 99.5565 123.346 99.5369 123.276C99.5175 123.206 99.5245 123.131 99.5566 123.066C99.5887 123.001 99.6437 122.95 99.7111 122.923C100.084 122.678 100.505 122.514 100.945 122.443C101.385 122.371 101.836 122.393 102.267 122.507C102.821 122.596 102.952 122.235 103.187 121.585C103.26 121.384 103.343 121.155 103.452 120.904C103.661 120.417 103.373 120.02 103.041 119.623C102.628 119.126 102.873 118.764 103.329 118.09C103.44 117.926 103.563 117.744 103.692 117.538C104.631 116.03 103.588 114.808 103.029 114.154C102.945 114.056 102.873 113.971 102.819 113.899C102.471 113.435 102.73 112.917 103.067 112.243C103.614 111.149 104.367 109.643 103.074 107.284C102.391 106.036 102.727 105.306 103.134 104.419C103.375 103.895 103.641 103.317 103.736 102.546C104.028 100.179 102.86 99.0391 101.975 98.1769C101.427 97.642 100.988 97.2138 101.075 96.6657C101.131 96.3172 101.191 95.9882 101.248 95.6744C101.498 94.2961 101.696 93.207 101.271 92.0162C100.397 89.565 99.5081 89.1558 99.06 88.9494C98.8578 88.8562 98.7452 88.8044 98.7637 88.6251C98.8008 88.2784 99.5999 88.2718 99.8989 88.5232C100.871 89.2556 101.591 90.2732 101.956 91.4341C102.581 93.0829 102.487 93.6635 102.165 95.6551C102.125 95.901 102.082 96.1683 102.036 96.4619C101.959 96.9697 102.148 97.1147 102.497 97.3827C102.947 97.7275 103.662 98.276 104.417 100.065C105.169 101.842 104.619 103.204 104.158 104.348C103.794 105.25 103.485 106.017 103.908 106.746C104.491 107.756 104.825 108.89 104.88 110.054C104.747 111.096 104.386 112.096 103.822 112.982C103.654 113.307 103.821 113.486 104.032 113.714C104.043 113.725 104.053 113.737 104.064 113.748C104.699 114.419 105.063 115.301 105.086 116.224C105.108 117.148 104.788 118.047 104.186 118.747C103.997 119.008 104.078 119.178 104.193 119.418C104.355 119.757 104.584 120.235 104.211 121.303C104.084 121.668 103.953 121.936 103.853 122.142C103.657 122.545 103.577 122.71 103.863 122.891C104.269 123.148 104.685 123.074 105.163 122.99C105.794 122.879 106.532 122.749 107.491 123.334C107.875 123.569 108.116 123.784 108.307 123.953C108.613 124.225 108.789 124.382 109.211 124.319C109.873 124.183 110.547 124.117 111.222 124.12C111.962 124.338 112.652 124.697 113.254 125.179C113.882 125.892 114.506 125.777 115.192 125.65C115.866 125.525 116.601 125.39 117.458 126.022C118.837 127.036 119.234 127.31 119.84 127.124C120.399 126.952 120.993 126.925 121.565 127.046C122.137 127.167 122.669 127.433 123.11 127.817C123.816 128.432 125.455 128.578 125.864 127.727C125.878 127.697 127.995 123.587 128.158 123.381C131.504 119.141 136.29 122.674 134.582 123.577C134.436 123.653 134.287 123.682 134.161 123.706C133.929 123.75 133.777 123.779 133.874 124.069C134.125 124.823 133.992 125.253 133.133 125.375C132.847 125.417 132.654 125.388 132.467 125.36C132.131 125.311 131.815 125.264 131.016 125.639C130.573 125.847 130.561 125.991 130.517 126.503C130.492 126.813 130.455 127.255 130.305 127.924C130.287 128.075 130.287 128.229 130.305 128.379C130.873 128.358 130.938 128.313 131.054 128.233C131.197 128.132 131.418 127.977 132.768 127.748C133.724 127.587 134.672 128.61 133.746 129.217C133.158 129.603 132.675 129.867 132.262 130.092C131.394 130.564 130.839 130.866 130.28 131.792C129.989 132.334 129.574 132.8 129.068 133.151C128.562 133.501 127.979 133.726 127.369 133.808C126.839 133.771 126.253 134.259 125.538 134.856C124.566 135.667 123.353 136.678 121.709 136.838C121.326 136.835 120.95 136.939 120.622 137.137C120.294 137.334 120.027 137.619 119.85 137.959C119.389 138.541 118.777 138.987 118.081 139.248C117.385 139.508 116.631 139.574 115.901 139.438C115.496 139.438 115.1 139.547 114.751 139.75C114.402 139.955 114.114 140.249 113.916 140.601C112.311 142.543 110.988 142.619 109.79 142.688C108.881 142.741 108.044 142.788 107.212 143.644C105.91 144.986 104.637 144.975 102.774 144.928C102.292 144.916 101.783 145.179 101.196 145.483C100.067 146.068 98.6438 146.805 96.5435 146.03C95.7613 145.74 95.2868 145.909 94.0087 146.365C93.8233 146.431 93.621 146.502 93.3985 146.58C92.6206 146.76 91.8146 146.783 91.028 146.646C90.2412 146.51 89.4899 146.218 88.8178 145.786C88.6334 145.636 88.4193 145.526 88.1895 145.464C87.9597 145.401 87.7193 145.389 87.4841 145.426C85.6662 145.49 104.171 153.828 116.832 156.105C117.025 156.14 117.309 156.194 117.666 156.261C120.994 156.889 130.646 158.711 131.775 157.481C132.223 156.858 132.518 156.137 132.635 155.379C132.753 154.621 132.692 153.845 132.456 153.115C132.191 152.444 132.674 151.746 133.296 150.851C134.201 149.547 135.397 147.823 134.979 145.154C134.975 145.127 134.971 145.102 134.967 145.077C134.842 144.3 134.805 144.062 135.712 142.461C136.957 140.45 137.42 138.051 137.014 135.721C136.922 135.245 137.157 134.77 137.464 134.147C137.99 133.076 138.731 131.573 138.391 128.895C138.322 128.357 138.261 127.969 138.215 127.677C138.093 126.917 138.076 126.81 138.32 126.372C139.381 124.197 139.541 121.691 138.765 119.398C138.586 118.985 138.534 118.527 138.617 118.084C139.181 116.253 139.345 114.322 139.099 112.421C138.892 111.807 139.935 111.575 140.025 113.559C140.119 115.606 139.869 116.646 139.69 117.387C139.522 118.085 139.418 118.519 139.725 119.28C140.843 122.045 139.787 125.195 139.329 126.556C139.21 126.912 139.132 127.146 139.144 127.219C139.66 129.168 139.607 131.224 138.99 133.144C138.947 133.276 138.911 133.354 138.918 133.428C138.935 133.636 139.283 133.816 140.692 135.072C143.658 137.717 145.322 143.386 144.618 145.643C144.375 146.417 149.005 147.28 150.887 145.33C151.298 144.903 151.62 145.004 152.14 145.17C152.67 145.338 153.408 145.572 154.66 145.379C156.109 145.155 156.817 144.766 157.342 144.478C157.771 144.242 158.078 144.073 158.566 144.115C159.148 144.22 159.741 144.254 160.331 144.217C161.89 143.886 162.567 143.312 163.102 142.86C163.549 142.48 163.894 142.186 164.573 142.195C166.06 142.215 168.442 141.507 168.902 139.946C169.02 139.547 169.431 139.445 169.951 139.316ZM131.589 123.056C131.768 123.039 131.95 123.023 132.133 123.001C132.137 123.04 132.126 123.07 132.135 123.089C132.166 123.149 132.393 123.109 133.845 122.931C134.66 122.824 130.725 120.537 128.714 123.857C128.212 124.683 127.79 125.485 127.417 126.195C126.765 127.432 126.259 128.393 125.733 128.729C124.656 129.418 125.141 132.355 125.48 133.304C125.602 133.648 125.835 133.714 126.188 133.551C126.684 133.324 127.055 133.263 127.391 133.207C127.827 133.135 128.206 133.073 128.73 132.665C129.345 132.186 129.657 131.731 129.955 131.298C130.352 130.717 130.722 130.178 131.76 129.679C132.286 129.463 132.777 129.168 133.215 128.805C133.243 128.784 133.196 128.599 133.166 128.599C132.63 128.5 131.558 128.977 130.765 129.331C130.432 129.478 130.149 129.605 129.973 129.658C129.619 129.766 129.252 130.138 128.921 130.473C128.514 130.887 128.163 131.243 127.957 130.981C127.825 130.811 127.961 130.678 128.087 130.556L128.122 130.52C129.115 129.356 129.723 127.912 129.866 126.389C129.849 126.15 129.893 125.91 129.992 125.691C130.091 125.472 130.242 125.282 130.434 125.136C130.939 124.777 131.545 124.584 132.166 124.585C132.194 124.587 133.1 124.626 133.1 124.519C133.106 123.935 130.876 123.284 129.882 124.21C129.746 124.339 129.689 124.397 129.621 124.416C129.539 124.439 129.441 124.407 129.169 124.378C129.476 123.252 130.477 123.159 131.589 123.056Z" clip-rule="evenodd"/>
    <path fill="white" d="M190.713 126.227C189.663 124.79 188.529 123.417 187.316 122.115C183.823 118.771 184.383 118.807 177.841 124.257C171.031 129.929 170.432 129.962 170.517 130.945C170.612 131.992 174.709 137.799 175.665 138.429C176.271 138.826 176.651 138.826 177.661 138.343C178.458 137.851 179.229 137.318 179.97 136.746C182.175 135.066 188.609 130.75 189.924 129.433C190.945 128.405 191.477 127.309 190.713 126.227ZM182.758 133.355C181.531 134.301 179.899 135.485 177.799 136.807C177.005 137.306 176.271 137.765 175.596 137.082C174.187 135.457 172.933 133.705 171.848 131.849C171.351 130.932 171.512 130.705 171.797 130.394C172.348 129.788 173.914 128.566 178.667 124.69C183.973 120.36 184.129 120.059 185.773 121.836C185.808 121.915 185.82 122.002 185.81 122.087C185.8 122.173 185.768 122.254 185.718 122.324C185.019 123.15 186.018 123.746 187.357 125.354C187.487 125.512 187.663 125.626 187.86 125.679C188.058 125.732 188.267 125.723 188.459 125.652C189.081 125.477 189.075 125.493 189.465 126.012C190.727 127.683 190.689 127.231 182.758 133.35V133.355Z"/>
    <path fill="white" d="M186.44 110.53C186.652 110.576 186.659 110.398 186.715 110.232C190.003 100.317 191.293 98.6813 190.659 98.5014C189.775 98.2513 185.743 110.378 186.44 110.53Z"/>
    <path fill="white" d="M190.335 138.267C190.062 138.52 190.694 138.868 193.104 143.879C196.044 149.993 195.773 149.902 196.216 149.323C195.422 146.526 190.885 137.758 190.335 138.267Z"/>
    <path fill="white" d="M208.035 131.883C205.587 131.177 194.96 128.412 196.877 129.957C197.206 129.918 199.093 130.173 207.497 132.375C208.265 132.577 208.793 132.831 208.953 132.576C209.162 132.256 208.405 131.988 208.035 131.883Z"/>
    <path fill="white" d="M171.798 121.672C171.754 121.594 171.738 121.517 171.69 121.487C171.385 121.255 171.055 121.056 170.707 120.893C169.88 120.587 159.9 117.036 159.637 117.863C159.532 118.195 160.599 118.274 161.566 118.571C172.184 121.822 171.204 122.068 171.798 121.672Z"/>
    <path fill="white" d="M174.153 107.11C177.126 113.92 176.667 113.991 177.247 113.28C176.225 109.889 173.277 103.136 172.096 101.95C172.06 101.914 171.831 101.981 171.864 102.083C171.992 102.565 171.539 101.119 174.153 107.11Z"/>
    <path fill="white" d="M200.272 113.946C202.963 111.972 204.386 111.154 204.679 110.755C206.2 108.691 194.263 117.153 194.466 118.266C195.568 117.742 194.084 118.488 200.272 113.946Z"/>
    <path fill="white" d="M185.909 125.552C185.256 125.412 183.948 125.241 183.262 125.155C182.741 125.155 182.674 125.251 182.827 125.706C183.109 126.545 183.294 126.492 182.797 126.67C176.657 128.875 176.738 128.71 177.748 129.344C179.403 130.384 178.98 129.741 174.809 131.901C174.076 132.28 174.611 133.054 174.985 133.24C175.202 133.347 175.566 133.107 175.685 133.041C181.929 129.814 181.992 130.227 180.202 129.245C180.045 129.159 180.019 129.006 180.386 128.832C181.321 128.311 182.298 127.868 183.306 127.509C184.177 127.254 183.995 129.455 184.894 128.021C186.331 125.716 186.512 125.682 185.909 125.552Z"/>
    <path fill="white" d="M207.663 0.00240412C226.319 0.174409 245.527 16.4686 245.703 39.6959C245.744 45.0224 244.717 50.303 242.681 55.2252C240.644 60.1474 237.642 64.6111 233.85 68.3519C230.058 72.0928 225.554 75.0346 220.604 77.0035C215.655 78.9723 210.361 79.928 205.035 79.8141C172.001 79.2398 154.867 41.5535 173.748 16.2013C181.528 5.75134 192.538 -0.136523 207.663 0.00240412ZM230.208 70.1619C235.894 65.6083 240.18 59.5416 242.572 52.6599C244.963 45.7783 245.364 38.3613 243.726 31.2623C239.227 9.78024 215.566 -5.19876 191.921 3.56423C174.929 9.86095 165.505 27.4822 166.903 42.1503C170.237 77.1401 208.286 88.3866 230.208 70.1619Z"/>
    <path fill="white" d="M207.305 51.8333C212.237 51.1017 214.53 58.228 210.437 63.7546C206.97 68.4358 201.724 66.8917 201.058 62.5929C200.214 57.1496 203.818 52.352 207.305 51.8333ZM210.216 53.7042C209.759 53.22 209.157 52.8986 208.501 52.789C207.845 52.6796 207.171 52.7882 206.582 53.0982C209.033 53.9027 209.337 56.4881 209.013 59.0695C208.676 61.3209 207.835 63.4674 206.553 65.349C208.873 65.8703 214.095 57.8787 210.213 53.7042H210.216Z"/>
    <path fill="white" d="M187.936 46.0461C188.015 47.7552 187.569 49.4475 186.659 50.8958C185.747 52.3439 184.415 53.4787 182.84 54.1476C179.673 55.1439 176.957 52.6379 176.754 49.043C176.18 38.9344 188.014 36.4205 187.936 46.0461ZM182.047 41.0448C176.396 43.1618 176.147 53.4066 181.606 53.4066C181.689 53.3922 181.77 53.3631 181.843 53.3206C181.811 53.242 181.769 53.1681 181.717 53.101C178.909 50.3661 180.684 42.8574 184.549 41.3253C184.602 41.2966 184.652 41.2634 184.699 41.226C184.296 41.0072 183.851 40.8775 183.394 40.8458C182.936 40.814 182.477 40.881 182.047 41.0421V41.0448Z"/>
    <path fill="white" d="M193.781 28.9205C188.523 29.1295 186.26 24.9074 191.731 21.3099C198.501 16.8589 206.924 18.7708 204.883 23.3515C203.371 26.7453 197.413 29.0276 193.781 28.9205ZM189.455 25.6127C190.392 28.3806 188.946 25.098 194.764 23.0022C202.255 20.3017 203.45 23.9283 203.773 23.448C205.22 21.3231 203.382 19.0447 197.575 19.9471C194.478 20.4261 189.712 22.85 189.455 25.61V25.6127Z"/>
    <path fill="white" d="M222.765 33.8179C222.836 39.4424 218.828 41.1122 216.98 36.2775C215.354 32.0224 216.93 25.7654 220.156 27.4629C222.075 28.4685 222.742 31.6334 222.765 33.8179ZM218.663 28.3283C219.412 29.1481 219.935 30.1483 220.181 31.2312C220.788 33.4375 220.666 35.7812 219.834 37.9129C219.644 38.376 220.477 37.9976 220.586 37.864C223.139 34.6951 221.255 27.279 218.663 28.3283Z"/>
    <path fill="white" d="M181.763 18.3934C181.46 24.5552 174.839 29.2562 173.875 25.1942C173.134 22.0756 177.093 15.9787 180.49 16.4273C181.249 16.5278 181.849 17.9449 181.763 18.3934ZM175.171 25.5872C175.271 25.675 175.4 25.7223 175.533 25.7195C175.808 25.6507 175.453 25.4774 175.571 25.0579C175.948 23.1732 176.815 21.4211 178.085 19.9785C178.798 19.0744 179.687 18.3246 180.699 17.7742C180.652 17.6583 180.582 17.5531 180.493 17.4648C180.404 17.3766 180.299 17.3071 180.183 17.2604C180.067 17.2139 179.943 17.191 179.817 17.1933C179.693 17.1956 179.568 17.2231 179.454 17.2741C178.391 17.8262 177.452 18.5915 176.697 19.522C175.943 20.4526 175.387 21.5285 175.066 22.683C174.801 23.502 174.452 25.1016 175.171 25.5872Z"/>
    <path fill="white" d="M234.722 51.3164C234.303 56.4369 228.825 58.9296 227.56 55.5768C227.362 54.8002 227.326 53.9911 227.454 53.1999C227.583 52.4087 227.872 51.6524 228.305 50.9778C228.738 50.3033 229.305 49.7251 229.971 49.2792C230.638 48.8333 231.388 48.5291 232.176 48.3857C233.195 48.1952 234.716 49.2219 234.722 51.3164ZM230.43 55.3122C230.108 55.602 229.844 55.7396 229.546 56.0095C231.983 56.8365 235.716 50.3413 232.505 49.4522C232.603 50.5202 232.468 51.5967 232.109 52.6075C231.75 53.6185 231.178 54.5398 230.43 55.3083V55.3122Z"/>
    <path fill="white" d="M235.303 38.0044C235.001 36.7706 235.04 35.4778 235.417 34.2646C235.793 33.0514 236.493 31.9636 237.44 31.1176C238.926 29.9585 240.748 31.2062 241.186 33.3378C242.56 39.9825 236.372 43.2678 235.303 38.0044ZM239.708 32.2753C239.55 32.0103 239.299 31.8143 239.004 31.7265C238.708 31.6386 238.39 31.6655 238.113 31.8016C237.818 31.9604 237.825 31.9803 238.004 32.3031C238.641 33.7003 238.772 35.2757 238.375 36.7593C237.673 39.3209 236.649 39.3672 237.477 39.5736C239.894 40.177 241.273 34.2534 239.708 32.2753Z"/>
    <path fill="white" d="M224.862 11.7406C227.261 13.9092 226.741 15.8727 224.915 15.964C221.282 16.1453 216.033 11.0592 218.639 9.65408C220.369 8.72129 223.396 10.4162 224.862 11.7406ZM219.702 10.3249C219.236 10.4466 218.908 10.4493 218.908 10.8766C218.908 11.4271 219.218 10.8197 220.784 11.7023C224.71 13.9158 224.288 15.3501 225.15 14.9413C226.788 14.1593 222.562 10.3646 219.7 10.3223L219.702 10.3249Z"/>
    <path fill="white" d="M187.306 63.7549C192.183 65.3056 192.73 70.4671 190.168 69.873C189.104 69.565 188.143 68.9736 187.39 68.1617C186.636 67.35 186.117 66.3485 185.89 65.2646C185.863 65.0681 185.881 64.8681 185.94 64.6791C186.001 64.4902 186.103 64.3171 186.238 64.1725C186.374 64.0277 186.54 63.9153 186.725 63.843C186.91 63.7708 187.108 63.7406 187.306 63.7549ZM186.98 64.7764C186.935 64.7987 186.897 64.8329 186.87 64.8752C186.844 64.9174 186.828 64.9664 186.827 65.0165C186.825 65.0667 186.837 65.1163 186.862 65.1599C186.888 65.2037 186.923 65.2399 186.967 65.2646C188.258 66.0876 189.282 67.2699 189.911 68.6663C189.933 68.7223 189.965 68.7735 190.007 68.8169C190.048 68.8603 190.099 68.8951 190.154 68.9192C190.209 68.9434 190.268 68.9564 190.329 68.9577C190.388 68.9589 190.448 68.9481 190.505 68.9263C190.56 68.9045 190.612 68.8717 190.654 68.83C190.698 68.7883 190.732 68.7386 190.758 68.6834C190.781 68.6284 190.795 68.5691 190.796 68.5089C190.797 68.4487 190.787 68.389 190.764 68.3329C190.033 65.8124 187.635 64.4456 186.983 64.7764H186.98Z"/>
    <path fill="white" d="M216.887 68.2754C217.518 67.7155 218.287 67.3333 219.114 67.1678C219.941 67.0023 220.797 67.0594 221.595 67.3333C223.214 67.7792 223.455 69.2664 222.697 69.9888C220.232 72.336 214.855 70.5101 216.887 68.2754ZM220.195 68.02C217.267 68.0438 217.121 69.7004 217.681 69.3669C218.303 69.0864 218.976 68.9394 219.658 68.9356C220.339 68.9318 221.014 69.0709 221.638 69.3444C222.305 69.6435 222.898 68.2423 220.196 68.02H220.195Z"/>
    <path fill="white" d="M200.947 6.55111C200.641 5.65403 201.609 4.83106 202.476 4.53865C207.703 2.73921 210.059 6.72842 204.787 7.84645C203.411 8.13357 201.403 7.88747 200.947 6.55111ZM206.714 5.62493C204.404 4.06365 201.568 5.85383 201.859 6.22033C202.15 6.58683 202.576 7.04464 202.872 6.63845C203.208 6.33402 203.617 6.12299 204.06 6.0264C204.503 5.92982 204.964 5.95106 205.395 6.08802C205.566 6.14888 205.719 6.25341 205.889 6.31956C206.181 6.43467 206.755 6.01128 206.714 5.62625V5.62493Z"/>
    <path fill="white" d="M204.232 41.7473C203.905 41.7143 203.595 41.5888 203.338 41.3854C203.08 41.1822 202.887 40.9095 202.779 40.5997C202.672 40.2899 202.656 39.9558 202.731 39.6369C202.808 39.3179 202.973 39.0273 203.209 38.7994C203.599 38.2914 204.118 37.8959 204.711 37.6535C205.483 36.8928 207.542 36.8597 208.051 38.1828C208.687 39.8274 206.522 41.6613 204.232 41.7473ZM206.702 39.0097C207.252 39.2598 207.399 38.544 206.916 38.2847C205.085 37.3003 203.002 40.0193 203.794 40.5485C204.023 40.702 204.214 39.1659 206.702 39.0097Z"/>
    <path fill="white" d="M79.6987 32.3366C80.8471 27.6541 80.7783 29.1466 77.972 30.1323C77.62 30.2567 77.3978 29.8584 77.7404 29.6401C80.8405 27.6554 80.8299 28.5816 79.2117 26.6922C78.7989 26.2106 77.9548 25.2725 78.529 24.9933C78.7262 24.8967 78.8294 25.0502 78.926 25.164C81.1951 27.7613 80.6857 27.8023 81.2454 25.5689C81.7746 23.4704 82.0167 21.8866 82.5063 22.2611C82.9257 22.5866 81.5616 26.5612 81.6674 27.2453C81.7376 27.707 85.4357 25.1494 85.9014 26.237C85.9213 26.2807 85.7876 26.4011 85.7096 26.4712C85.2637 26.8682 86.7681 25.7832 82.2165 28.0166C81.2361 28.4983 82.0485 28.3779 83.6376 31.0929C83.6722 31.1575 83.682 31.2325 83.6652 31.3038C83.6483 31.3751 83.6061 31.4378 83.5461 31.4802C83.4863 31.5224 83.413 31.5414 83.3403 31.5334C83.2674 31.5254 83.1999 31.4911 83.1507 31.4369C82.6346 30.9434 81.5153 29.1413 81.2692 29.2577C80.9 29.4403 80.6023 33.7987 79.6987 32.3366Z"/>
    <path fill="white" d="M21.5677 105.799C21.5042 105.988 20.0475 110.329 20.0779 110.508C21.5902 109.988 24.3119 108.997 24.3886 109.751C24.3886 109.858 24.2722 110.059 23.907 110.112C22.6821 110.366 21.4893 110.756 20.3505 111.274C20.0303 111.395 20.021 111.507 20.2181 111.824C21.6034 114.133 21.708 114.235 21.659 114.579C21.4883 115.778 20.1493 112.888 19.5262 112.249C18.9757 113.031 18.4584 115.829 17.8061 115.602C17.1538 115.374 19.1372 111.95 18.5206 112.05C17.6553 112.192 16.3361 113.186 16.0913 112.508C16.0053 112.274 15.9299 112.31 18.3102 111.26C18.94 110.983 18.8871 111.238 17.2425 108.819C16.79 108.158 16.8892 108.104 17.0241 107.938C17.212 107.709 17.5031 107.986 17.6606 108.203C19.7498 111.041 18.8514 111.151 20.8149 106.033C20.9247 105.743 21.1099 105.333 21.3653 105.468C21.4632 105.518 21.4989 105.677 21.5677 105.799Z"/>
    <path fill="white" d="M232.334 185.482C231.56 185.603 230.401 186.733 230.085 186.276C229.856 185.95 230.232 185.795 231.87 184.796C232.501 184.411 232.636 184.521 232.399 184.086C230.554 180.736 230.565 181.089 230.662 180.389C231.487 180.695 232.399 182.81 232.958 183.337C233.193 182.97 232.843 183.766 234.061 180.078C234.166 179.755 234.319 179.447 234.443 179.128C234.456 179.067 234.493 179.014 234.545 178.981C234.596 178.947 234.66 178.935 234.721 178.948C235.177 179.047 234.931 179.434 234.52 180.77C233.594 183.799 233.432 183.946 234.245 183.623C236.328 182.8 236.362 182.697 236.928 182.662C237.302 182.638 237.202 183.017 237.06 183.141C236.974 183.218 235.487 183.874 234.086 184.518C233.469 184.802 233.729 184.722 234.733 186.469C234.901 186.76 235.011 187.081 235.176 187.383C235.296 187.604 235.283 187.792 235.044 187.895C234.634 188.075 234.476 187.233 233.281 185.611C232.454 187.052 232.779 187.538 232.011 188.873C231.978 188.931 231.733 189.066 231.695 188.791C231.555 187.797 232.411 186.174 232.334 185.482Z"/>
    <path fill="white" d="M196.038 171.624C181.441 157.644 156.758 167.794 156.651 188.295C156.599 191.386 157.171 194.455 158.328 197.321C159.487 200.187 161.21 202.791 163.395 204.978C165.579 207.165 168.182 208.89 171.046 210.052C173.911 211.214 176.979 211.788 180.07 211.74C200.97 211.662 211.162 186.108 196.038 171.624ZM160.297 199.572C158.743 196.833 157.779 193.799 157.47 190.666C157.161 187.531 157.512 184.368 158.502 181.379C159.491 178.389 161.096 175.641 163.213 173.309C165.332 170.979 167.914 169.118 170.795 167.847C173.677 166.577 176.792 165.925 179.941 165.933C183.089 165.941 186.202 166.609 189.076 167.895C191.951 169.181 194.524 171.055 196.63 173.397C198.735 175.738 200.325 178.496 201.299 181.49C209.599 207.465 173.796 222.864 160.299 199.572H160.297Z"/>
    <path fill="white" d="M167.539 213.815C158.542 230.313 160.394 229.817 158.576 228.708C157.782 228.224 157.872 227.963 158.301 227.238C161.777 221.347 166.791 211.956 166.826 211.75C166.852 211.59 166.577 211.353 166.429 211.541C165.531 212.658 157.653 227.793 157.224 227.307C155.32 225.15 156.809 222.441 158.248 222.9C158.593 223.01 158.566 222.745 158.645 222.594C158.882 222.172 157.285 221.925 156.528 222.817C155.968 223.53 155.664 224.41 155.664 225.316C155.664 226.224 155.968 227.103 156.528 227.817C157 228.419 156.925 228.249 153.609 234.482C152.194 237.146 150.807 239.635 150.687 239.907C150.459 240.421 150.951 240.733 151.298 240.243C151.644 239.754 153.313 236.151 157.342 229.071C157.569 228.674 157.505 229.236 159.01 229.807C159.509 229.996 159.18 230.186 158.735 231.13C152.63 243.997 152.708 243.087 153.124 243.444C153.761 243.992 155.279 238.986 159.856 230.639C160.291 229.845 161.409 230.798 163.362 230.444C165.214 230.108 166.318 228.506 165.979 228.296C165.704 228.125 165.568 228.337 165.411 228.505C164.448 229.545 163.459 230.092 160.781 229.592C160.527 229.546 160.431 229.473 160.486 229.317C160.628 228.905 168.325 213.704 168.027 213.551C167.899 213.486 167.738 213.457 167.539 213.815Z"/>
    <path fill="white" d="M157.535 241.571C157.472 241.515 157.439 241.487 157.334 241.642C157.296 241.711 157.304 241.813 157.428 242.03C158.082 243.181 158.133 243.843 157.72 244.509C157.441 244.959 156.778 245.358 155.663 244.947C155.318 244.815 155.08 244.996 155.213 245.369C155.826 247.074 155.031 250.327 152.699 249.949C151.702 249.787 150.954 248.902 150.592 247.231C150.4 246.341 150.179 246.702 149.995 246.895C149.566 247.529 149.008 248.065 148.358 248.468C146.687 249.504 144.439 248.049 144.373 245.639C144.426 244.888 144.641 244.156 145.004 243.496C145.367 242.834 145.868 242.261 146.474 241.813C147.145 241.331 147.589 241.724 147.973 241.741C148.025 241.749 148.078 241.742 148.125 241.72C148.173 241.699 148.214 241.665 148.243 241.621C148.272 241.577 148.288 241.527 148.288 241.474C148.289 241.423 148.276 241.371 148.248 241.326C148.08 240.981 146.823 240.4 147.146 238.812C147.534 236.912 148.999 236.249 149.934 236.625C150.68 236.927 150.418 237.358 150.589 237.49C150.76 237.623 150.864 237.554 150.864 237.435C151.195 235.979 149.151 235.482 148.022 236.284C147.333 236.741 146.826 237.428 146.592 238.223C146.358 239.017 146.412 239.869 146.744 240.627C147.027 241.174 146.13 240.667 144.816 242.501C141.949 246.501 145.25 250.467 148.18 249.328C148.852 249.046 149.431 248.585 149.856 247.993C150.48 247.397 150.262 250.8 153.242 250.639C155.388 250.528 156.04 248.59 155.979 246.087C155.979 245.88 155.869 245.65 156.048 245.643C156.526 245.765 157.031 245.706 157.468 245.475C157.903 245.245 158.238 244.861 158.406 244.398C158.525 243.892 158.508 243.364 158.354 242.866C158.202 242.369 157.919 241.921 157.535 241.571Z"/>
    <path fill="white" d="M177.353 169.616C173.621 170.19 170.11 171.761 167.195 174.162C154.524 186.749 162.317 204.158 175.593 206.857C178.277 207.437 181.054 207.424 183.732 206.822C186.41 206.218 188.925 205.04 191.1 203.366C193.277 201.692 195.063 199.564 196.333 197.131C197.603 194.698 198.33 192.017 198.458 189.276C198.588 186.533 198.119 183.796 197.083 181.254C196.047 178.712 194.47 176.426 192.462 174.555C190.453 172.683 188.061 171.272 185.452 170.419C182.843 169.567 180.079 169.293 177.353 169.616ZM179.848 206.502C176.195 206.536 172.618 205.467 169.584 203.433C166.548 201.4 164.2 198.497 162.844 195.106C161.488 191.713 161.187 187.991 161.984 184.425C162.779 180.861 164.634 177.619 167.304 175.127C176.646 166.018 194.108 169.592 197.519 185.08C199.814 195.509 190.959 206.574 179.848 206.502Z"/>
    <path fill="white" d="M187.197 173.875C181.775 176.165 176.637 179.075 171.883 182.545C171.431 182.901 171.23 183.121 171.883 184.473C173.278 187.355 174.895 190.123 176.719 192.753C176.832 192.941 176.995 193.092 177.19 193.19C177.385 193.287 177.605 193.326 177.822 193.303C180.071 193.274 182.306 193.326 184.548 193.171C187.363 192.977 188.433 193.27 188.478 192.457C188.88 185.345 188.384 173.462 187.197 173.875ZM186.723 174.707C186.364 175.441 184.606 178.271 183.237 180.893C181.67 183.891 181.774 184.154 181.27 183.989C177.697 182.814 172.018 183.228 172.337 182.947C176.909 179.827 181.719 177.071 186.723 174.707ZM177.257 192.312C175.413 189.816 173.809 187.152 172.464 184.355C171.935 183.364 172.087 183.507 172.528 183.515C177.896 184.137 178.003 183.985 181.066 184.556C181.463 184.63 181.289 184.658 179.808 187.599C176.733 193.721 177.627 192.189 177.257 192.312ZM184.333 192.621C177.122 192.753 177.736 192.932 178.15 192.131C179.315 189.882 179.134 190.101 181.73 185.267C182.044 184.682 181.73 184.654 187.206 191.421C188.092 192.515 188.17 192.373 184.347 192.611L184.333 192.621ZM187.64 190.993C186.21 188.716 184.514 186.615 182.589 184.738C182.149 184.281 181.935 184.857 184.458 180.141C187.396 174.651 187.053 175.288 187.196 175.158C187.472 175.484 187.939 189.315 187.913 189.315C187.922 191.279 188.02 191.618 187.644 190.993H187.64Z"/>
    <path fill="white" d="M186.777 194.137C181.186 194.566 176.475 194.732 176.34 194.689C175.943 194.557 176.142 194.964 173.975 190.97C170.04 183.718 170.179 183.109 170.179 187.445C170.14 187.445 170.321 190.475 170.325 190.516C171.585 204.238 171.803 202.576 173.418 201.941C177.003 200.619 180.442 198.927 183.676 196.89C184.025 196.67 186.88 194.8 187.157 194.499C187.368 194.271 186.923 194.127 186.777 194.137ZM172.429 201.084C172.236 200.643 170.709 186.516 170.794 186.265C171.222 186.721 173.468 192.122 175.557 194.865C175.733 195.097 175.815 194.747 172.764 200.569C172.501 201.09 172.518 201.01 172.432 201.084H172.429ZM173.025 201.198C176.23 195.445 176.096 195.334 176.473 195.376C176.547 195.376 180.654 195.359 181.183 195.318C183.22 195.159 183.953 194.935 185.59 194.933C185.818 194.8 185.761 194.811 185.824 194.861C185.794 194.87 172.407 202.305 173.027 201.198H173.025Z"/>
</svg>
