<svg xmlns="http://www.w3.org/2000/svg" width="32" height="33" fill="none" viewBox="0 0 32 33">
    <path fill="currentColor" fill-rule="evenodd" d="M7.05703 7.33724C7.57773 6.81654 8.42195 6.81654 8.94265 7.33724L15.9998 14.3944L23.057 7.33724C23.5777 6.81654 24.4219 6.81654 24.9426 7.33724C25.4633 7.85794 25.4633 8.70216 24.9426 9.22286L17.8855 16.2801L24.9426 23.3372C25.4633 23.8579 25.4633 24.7022 24.9426 25.2229C24.4219 25.7436 23.5777 25.7436 23.057 25.2229L15.9998 18.1657L8.94265 25.2229C8.42195 25.7436 7.57773 25.7436 7.05703 25.2229C6.53633 24.7022 6.53633 23.8579 7.05703 23.3372L14.1142 16.2801L7.05703 9.22286C6.53633 8.70216 6.53633 7.85794 7.05703 7.33724Z" clip-rule="evenodd"/>
</svg>
