<svg width="32" height="33" viewBox="0 0 32 33" fill="none" xmlns="http://www.w3.org/2000/svg">
<path fill-rule="evenodd" clip-rule="evenodd" d="M7.05752 7.33724C7.57822 6.81654 8.42244 6.81654 8.94313 7.33724L16.0003 14.3944L23.0575 7.33724C23.5782 6.81654 24.4224 6.81654 24.9431 7.33724C25.4638 7.85794 25.4638 8.70216 24.9431 9.22286L17.8859 16.2801L24.9431 23.3372C25.4638 23.8579 25.4638 24.7022 24.9431 25.2229C24.4224 25.7436 23.5782 25.7436 23.0575 25.2229L16.0003 18.1657L8.94314 25.2229C8.42244 25.7436 7.57822 25.7436 7.05752 25.2229C6.53682 24.7022 6.53682 23.8579 7.05752 23.3372L14.1147 16.2801L7.05752 9.22286C6.53682 8.70216 6.53682 7.85794 7.05752 7.33724Z" fill="#B1B5C3"/>
</svg>
