<svg width="18" height="18" viewBox="0 0 18 18" fill="none" xmlns="http://www.w3.org/2000/svg">
<path fill-rule="evenodd" clip-rule="evenodd" d="M0 3C0 1.34315 1.34315 0 3 0H9C10.6569 0 12 1.34315 12 3V10C12 11.6569 10.6569 13 9 13H3C1.34315 13 0 11.6569 0 10V3ZM3 2C2.44772 2 2 2.44772 2 3V10C2 10.5523 2.44772 11 3 11H9C9.55228 11 10 10.5523 10 10V3C10 2.44772 9.55229 2 9 2H3Z" fill="#B1B5C3"/>
<path fill-rule="evenodd" clip-rule="evenodd" d="M6 7C6 5.34315 7.34315 4 9 4H15C16.6569 4 18 5.34315 18 7V14C18 15.6569 16.6569 17 15 17H9C7.34315 17 6 15.6569 6 14V7ZM9 6C8.44772 6 8 6.44772 8 7V14C8 14.5523 8.44772 15 9 15H15C15.5523 15 16 14.5523 16 14V7C16 6.44772 15.5523 6 15 6H9Z" fill="#B1B5C3"/>
<path fill-rule="evenodd" clip-rule="evenodd" d="M1 13C1.55228 13 2 13.4477 2 14C2 15.1046 2.89543 16 4 16C4.55228 16 5 16.4477 5 17C5 17.5523 4.55228 18 4 18C1.79086 18 0 16.2091 0 14C0 13.4477 0.447715 13 1 13Z" fill="#B1B5C3"/>
</svg>
