<svg fill="none" height="36" viewBox="0 0 36 36" width="36" xmlns="http://www.w3.org/2000/svg"><path d="m29.4409 31.6062h-22.90641c-.74109 0-1.34754-.6065-1.34754-1.3476s.60645-1.3475 1.34754-1.3475h22.90641c.7411 0 1.3475.6064 1.3475 1.3475-.0003.7411-.6064 1.3476-1.3475 1.3476z" fill="#f9b212"/><path d="m29.263 31.1006h-22.88283c-.60223 0-1.09477-.4925-1.09477-1.0948 0-.6022.49254-1.0947 1.09477-1.0947h22.88283c.6022 0 1.0948.4925 1.0948 1.0947 0 .6023-.4926 1.0948-1.0948 1.0948z" fill="#fcc860" opacity=".46"/><path d="m24.2216 30.4741h-18.15468c-.43171 0-.78152-.3498-.78152-.7815s.34981-.7815.78152-.7815h18.15468c.4317 0 .7815.3498.7815.7815s-.3498.7815-.7815.7815z" fill="#fcd797" opacity=".46"/><path d="m30.6401 13.507-11.61 11.6097c-.868.868-2.2757.868-3.1441 0l-11.19722-11.1973 11.61002-11.61001c.868-.86801 2.2756-.86801 3.144 0z" fill="#fcb61a"/><path d="m30.5698 13.5773-11.6473-11.6476c-.6198-.61981-1.6242-.61981-2.244 0l-12.06003 12.06s1.20129 2.2707 3.59684-1.023c1.76624-2.4286 6.12279-6.48919 8.28949-8.45442.7355-.66727 1.8443-.70735 2.6258-.09457 2.5278 1.98105 7.7938 6.36079 8.922 9.29569 0-.0004 1.7409 2.7949 2.5172-.1361z" fill="#fcab08"/><path d="m31.2465 28.3872h-26.48003c-.66691 0-1.20727-.5407-1.20727-1.2072l-1.05468-14.8008c0-1.0199 1.18652-1.5803 1.97437-.9323l12.76071 9.6282c.4457.3667 1.0884.3667 1.5338 0l12.7607-9.6282c.7878-.648 1.9744-.0876 1.9744.9323l-1.0547 14.8008c0 .6665-.5404 1.2072-1.2073 1.2072z" fill="#fec00d"/><path d="m4.45745 11.5256 12.14195 9.2412c.4564.2068.9573.2964 1.4571.2607.4999-.0358.9829-.1957 1.4053-.4653l.2478-.1582 11.9359-8.8671s.7928.3136 0 .9211c-2.579 1.9761-11.3871 9.8641-13.8234 9.8641s-13.87933-9.8817-13.87933-9.8817-.55758-1.7458.51468-.9148z" fill="#ffd576" opacity=".51"/><path d="m2.66345 14.6081.89578 12.5719.22149.6964.98613.5108h26.48005l1.0371-.5892 1.2248-15.4192s-1.7841-.9843-2.2524 8.4477c0 0 .6736 4.7489-2.6947 4.5805l-20.37977-.1121-1.34754-.0211s-1.6098.6616-1.64707-3.2685c-.03762-3.9297-1.64215-8.2824-2.52387-7.3972z" fill="#fca110" opacity=".3"/><path d="m2.66345 14.6081.89578 12.5719.22149.6964.98613.5109h26.48005l1.0371-.5893 1.2248-15.4191s-1.1105-1.0407-1.5785 8.3914c0 0 0 6.5981-3.3686 6.4297l-20.37977-.1121-1.34754-.0211s-2.48906-1.1876-2.52633-5.1174c-.03762-3.9297-.76289-8.2265-1.64461-7.3413z" fill="#fca110" opacity=".3"/><g fill="#ff3803"><path d="m22.037 11.3921-3.6348 6.2026c-.2201.3754-.7629.3754-.9833 0l-3.6348-6.2026c-.0638-.1088-.0896-.2356-.0736-.3606s.0731-.2411.1622-.3303l3.6351-3.63513c.2226-.22253.5833-.22253.8058 0l3.6348 3.63483c.1832.1835.2197.4676.0886.6912z" opacity=".34"/><path d="m20.983 11.6466-2.7063 4.6184c-.1639.2795-.5682.2795-.732 0l-2.7063-4.6184c-.0977-.1667-.0703-.378.0661-.5144l2.7063-2.70631c.1656-.16559.4342-.16559.6001 0l2.7064 2.70631c.1364.1364.1634.3477.0657.5144z"/><path d="m29.0848 18.9921 4.2679-3.5691-.701 8.8232-3.638-3.6236c-.4605-.4584-.4275-1.2136.0711-1.6305z" opacity=".2"/><path d="m29.6722 19.1707 3.5431-3.0965-.5717 7.5202-3.0245-3.1479c-.3448-.3586-.3202-.9495.0531-1.2758z"/><path d="m7.17612 19.6436-4.38504-3.5694.72 8.8231 3.73746-3.6232c.47355-.4584.4398-1.2136-.07242-1.6305z" opacity=".2"/><path d="m6.32567 19.8221-3.39293-3.0965.54738 7.5203 2.89617-3.1479c.33012-.3586.30657-.9496-.05062-1.2759z"/></g></svg>