<svg width="36" height="36" viewBox="0 0 36 36" fill="none" xmlns="http://www.w3.org/2000/svg">
<path d="M29.441 31.6052H6.53455C5.79346 31.6052 5.18701 30.9988 5.18701 30.2577C5.18701 29.5166 5.79346 28.9102 6.53455 28.9102H29.441C30.1821 28.9102 30.7885 29.5166 30.7885 30.2577C30.7881 30.9988 30.1821 31.6052 29.441 31.6052Z" fill="#F9B212"/>
<path opacity="0.46" d="M29.2628 31.0997H6.37992C5.7777 31.0997 5.28516 30.6071 5.28516 30.0049C5.28516 29.4027 5.7777 28.9102 6.37992 28.9102H29.2628C29.865 28.9102 30.3575 29.4027 30.3575 30.0049C30.3575 30.6071 29.865 31.0997 29.2628 31.0997Z" fill="#FCC860"/>
<path opacity="0.46" d="M24.2214 30.4732H6.06668C5.63496 30.4732 5.28516 30.1234 5.28516 29.6917C5.28516 29.26 5.63496 28.9102 6.06668 28.9102H24.2214C24.6531 28.9102 25.0029 29.26 25.0029 29.6917C25.0029 30.1234 24.6531 30.4732 24.2214 30.4732Z" fill="#FCD797"/>
<path d="M30.6403 13.5068L19.0303 25.1165C18.1622 25.9845 16.7546 25.9845 15.8862 25.1165L4.68896 13.9192L16.299 2.30921C17.167 1.4412 18.5746 1.4412 19.443 2.30921L30.6403 13.5068Z" fill="#FCB61A"/>
<path d="M30.5699 13.5773L18.9227 1.9297C18.3029 1.30989 17.2985 1.30989 16.6787 1.9297L4.61865 13.9897C4.61865 13.9897 5.81994 16.2604 8.21549 12.9667C9.98174 10.5381 14.3383 6.47751 16.505 4.51228C17.2404 3.84501 18.3493 3.80493 19.1308 4.41771C21.6585 6.39876 26.9246 10.7785 28.0528 13.7134C28.0528 13.713 29.7937 16.5083 30.5699 13.5773Z" fill="#FCAB08"/>
<path d="M31.2464 28.3875H4.76635C4.09943 28.3875 3.55908 27.8468 3.55908 27.1802L2.50439 12.3794C2.50439 11.3596 3.69092 10.7992 4.47877 11.4471L17.2394 21.0753C17.6852 21.442 18.3279 21.442 18.7733 21.0753L31.534 11.4471C32.3218 10.7992 33.5083 11.3596 33.5083 12.3794L32.4537 27.1802C32.4537 27.8468 31.9133 28.3875 31.2464 28.3875Z" fill="#FEC00D"/>
<path opacity="0.51" d="M4.45745 11.5251L16.5994 20.7663C17.0558 20.9731 17.5567 21.0626 18.0565 21.0269C18.5564 20.9912 19.0394 20.8313 19.4618 20.5617L19.7096 20.4035L31.6455 11.5363C31.6455 11.5363 32.4383 11.8499 31.6455 12.4574C29.0665 14.4336 20.2584 22.3216 17.8221 22.3216C15.3858 22.3216 3.94277 12.4399 3.94277 12.4399C3.94277 12.4399 3.38519 10.694 4.45745 11.5251Z" fill="#FFD576"/>
<path opacity="0.3" d="M2.66357 14.6082L3.55936 27.1801L3.78084 27.8765L4.76697 28.3874H31.247L32.2841 27.7981L33.509 12.379C33.509 12.379 31.7248 11.3946 31.2565 20.8267C31.2565 20.8267 31.9301 25.5756 28.5618 25.4072L8.18205 25.295L6.83451 25.2739C6.83451 25.2739 5.22471 25.9356 5.18744 22.0054C5.14982 18.0757 3.54529 13.723 2.66357 14.6082Z" fill="#FCA110"/>
<path opacity="0.3" d="M2.66357 14.609L3.55936 27.1808L3.78084 27.8773L4.76697 28.3881H31.247L32.2841 27.7989L33.509 12.3797C33.509 12.3797 32.3984 11.3391 31.9305 20.7712C31.9305 20.7712 31.9305 27.3693 28.5618 27.2009L8.18205 27.0887L6.83451 27.0676C6.83451 27.0676 4.34545 25.8801 4.30818 21.9503C4.27057 18.0205 3.54529 13.7237 2.66357 14.609Z" fill="#FCA110"/>
<path opacity="0.34" d="M22.0372 11.3913L18.4024 17.5939C18.1823 17.9694 17.6395 17.9694 17.4191 17.5939L13.7843 11.3913C13.7205 11.2826 13.6947 11.1558 13.7107 11.0308C13.7267 10.9058 13.7837 10.7896 13.8728 10.7005L17.508 7.06534C17.7305 6.8428 18.0912 6.8428 18.3138 7.06534L21.9486 10.7001C22.1318 10.8837 22.1683 11.1677 22.0372 11.3913Z" fill="#FF3803"/>
<path d="M20.9831 11.6456L18.2768 16.2641C18.113 16.5436 17.7087 16.5436 17.5448 16.2641L14.8385 11.6456C14.7408 11.479 14.7682 11.2677 14.9046 11.1313L17.6109 8.42497C17.7765 8.25938 18.0451 8.25938 18.2111 8.42497L20.9174 11.1313C21.0538 11.2677 21.0809 11.479 20.9831 11.6456Z" fill="#FF3803"/>
<path opacity="0.2" d="M29.0847 18.9929L33.3527 15.4238L32.6516 24.247L29.0137 20.6234C28.5531 20.165 28.5862 19.4098 29.0847 18.9929Z" fill="#FF3803"/>
<path d="M29.6722 19.1708L33.2152 16.0742L32.6436 23.5945L29.6191 20.4466C29.2742 20.088 29.2988 19.497 29.6722 19.1708Z" fill="#FF3803"/>
<path opacity="0.2" d="M7.17605 19.6436L2.79102 16.0742L3.51102 24.8974L7.24848 21.2742C7.72203 20.8157 7.68828 20.0606 7.17605 19.6436Z" fill="#FF3803"/>
<path d="M6.32555 19.8231L2.93262 16.7266L3.48 24.2468L6.37617 21.0989C6.70629 20.7404 6.68273 20.1494 6.32555 19.8231Z" fill="#FF3803"/>
</svg>
