<svg fill="none" viewBox="0 0 64 64" xmlns="http://www.w3.org/2000/svg" xmlns:xlink="http://www.w3.org/1999/xlink"><linearGradient id="a" gradientUnits="userSpaceOnUse" x1="32" x2="32" y1="0" y2="64"><stop offset="0" stop-color="#fff" stop-opacity=".5"/><stop offset="1" stop-color="#fff" stop-opacity=".2"/></linearGradient><rect fill="#141414" height="62" rx="29" stroke="url(#a)" stroke-width="2" width="62" x="1" y="1"/><path clip-rule="evenodd" d="m50.5445 24.7408v10.3704h-30.9095l-1.3298.0001c1.4075 6.2923 6.9935 10.9924 13.6702 10.9924 5.5198 0 10.2942-3.2124 12.5783-7.8812l5.9908-.0001v8.711c0 2.0618-1.6606 3.7333-3.7091 3.7333h-29.6731c-2.0485 0-3.7092-1.6715-3.7092-3.7333v-22.1926zm-9.5483 13.4816c-1.967 2.8947-5.2735 4.7943-9.0208 4.7943s-7.0538-1.8996-9.0208-4.7943zm-16.9308-10.9927c-2.9067 0-5.3114 2.1634-5.7114 4.9778h3.1617c.3477-1.0832 1.3578-1.8667 2.5497-1.8667s2.202.7835 2.5496 1.8667h3.1617c-.3999-2.8144-2.8046-4.9778-5.7113-4.9778zm15.8669 0c-2.9068 0-5.3115 2.1634-5.7114 4.9778h3.1617c.3476-1.0832 1.3577-1.8667 2.5497-1.8667 1.1919 0 2.202.7835 2.5496 1.8667h3.1617c-.3999-2.8144-2.8046-4.9778-5.7113-4.9778zm6.9031-13.8963c2.0485 0 3.7091 1.6714 3.7091 3.7333v4.563h-37.0914v-4.563c0-2.0619 1.6607-3.7333 3.7092-3.7333z" fill="#23262f" fill-rule="evenodd"/></svg>