<svg xmlns="http://www.w3.org/2000/svg" fill="none" viewBox="0 0 18 18">
    <g clip-path="url(#clip0_7523_3122)">
        <path fill="#214CFF" d="M9.00152 1.00623C13.4185 1.00623 16.9984 4.58608 16.9984 9.0031C16.9984 13.4201 13.4185 17 9.00152 17C4.58449 17 1.00464 13.4201 1.00464 9.0031C1.00464 4.58608 4.58605 1.00623 9.00152 1.00623Z"/>
        <path fill="white" d="M9.00283 3.30066V11.2694L12.5046 9.17024L9.00283 3.30066ZM9.00283 14.7056L12.5046 9.67786L9.00283 11.7958V14.7056ZM9.00283 3.30066V11.2694L5.49951 9.17024L9.00283 3.30066Z"/>
        <path fill="white" d="M9.00283 11.7958V14.7056L5.49951 9.67792L9.00283 11.7958Z"/>
    </g>
    <rect width="17" height="17" x="0.5" y="0.5" stroke="#B9BEFE" rx="8.5"/>
    <defs>
        <clipPath id="clip0_7523_3122">
            <rect width="16" height="16" x="1" y="1" fill="white" rx="8"/>
        </clipPath>
    </defs>
</svg>
