<svg fill="none" height="20" viewBox="0 0 20 20" width="20" xmlns="http://www.w3.org/2000/svg" xmlns:xlink="http://www.w3.org/1999/xlink"><clipPath id="a"><path d="m0 0h20v20h-20z"/></clipPath><g clip-path="url(#a)" fill="#fcfcfd"><path d="m17.7619 2.23793c-2.1392-2.1391804-5.623-2.1391804-7.76217 0l-2.13918 2.13918c-1.16127 1.16127-1.65022 2.75038-1.34463 4.33948l.6112 3.23931c.12224.6723.73343 1.1002 1.40574.9779.67232-.1222 1.10015-.7334.97791-1.4057l-.61119-3.23934c-.12224-.79456.12224-1.58911.67231-2.13918l2.13921-2.13919c1.2224-1.22238 3.1171-1.22238 4.3395 0 1.2223 1.22239 1.2223 3.1171 0 4.33949l-.489.48895c-.489.48896-.489 1.22237 0 1.71137.489.4889 1.2224.4889 1.7113 0l.489-.489c2.1392-2.20028 2.1392-5.68409 0-7.82327z"/><path d="m12.9339 8.04389c-.1222-.67231-.7334-1.10015-1.4057-.97791s-1.1001.73343-.9779 1.40575l.6112 3.23937c.1222.7945-.1223 1.5891-.6723 2.1391l-2.13921 2.1392c-1.22239 1.2224-3.11709 1.2224-4.33948 0-1.22238-1.2224-1.22238-3.1171 0-4.3395l.48896-.4889c.48895-.489.48895-1.22241 0-1.71136-.48896-.48896-1.22239-.48896-1.71134 0l-.55008.55007c-2.1391779 2.13919-2.1391779 5.62299 0 7.76219 2.13918 2.1392 5.62299 2.1392 7.76215 0l2.1392-2.1392c1.1613-1.1613 1.6502-2.7504 1.3446-4.3395z"/></g></svg>