<svg fill="none" height="36" viewBox="0 0 164 36" width="164" xmlns="http://www.w3.org/2000/svg" xmlns:xlink="http://www.w3.org/1999/xlink"><linearGradient id="a" gradientUnits="userSpaceOnUse" x1="153.055" x2="122.563" y1="-11.206" y2="-2.58959"><stop offset="0" stop-color="#d0d0ff"/><stop offset=".303907" stop-color="#a996f7"/><stop offset=".505226" stop-color="#7280fe"/><stop offset="1" stop-color="#d3d6fe"/></linearGradient><clipPath id="b"><path d="m0 .719971h120v34.56h-120z"/></clipPath><g clip-path="url(#b)" fill="#fff"><path d="m93.5054 13.6524c3.1673 0 6.7656 1.2171 6.9806 5.1116h-4.4283c-.0922-1.1257-1.1377-1.643-2.5215-1.643-1.2915 0-1.8758.4869-1.8758 1.0649 0 .4869.369.9433 1.5375 1.1562l2.7983.4564c2.7983.5173 4.6438 1.856 4.6438 4.4727 0 3.4077-3.1063 4.9899-6.9808 4.9899-3.9053 0-7.0726-1.6126-7.3801-5.5376l4.428.0305c.2153 1.2779 1.2916 1.856 2.8598 1.856 1.3223 0 2.1218-.3956 2.1218-1.0345 0-.4869-.4612-.8824-1.4453-1.0345l-3.0135-.5173c-2.583-.4259-4.3666-1.856-4.3666-4.4422 0-3.1035 2.6753-4.9291 6.6421-4.9291zm-18.6656.0574c1.6269 0 2.9776.4255 4.0827 1.1246v-.7902h4.9729v14.7408h-4.9729v-.8206c-1.1051.699-2.4558 1.1245-4.0827 1.1245-4.0213 0-7.3979-3.3128-7.3979-7.6895 0-4.4071 3.3766-7.6896 7.3979-7.6896zm-29.1278-5.62369 7.4566 11.05869 7.4258-11.05869h3.8824v20.71589h-5.2073v-10.3884l-4.6527 7.0983v.0304h-2.8964v-.0304l-4.6834-7.1592.0308 10.4493h-5.2073v-20.71589zm62.648-.86077v12.36856l5.204-5.5309h5.943l-5.665 6.0172 6.158 8.7218h-5.974l-3.572-5.1054-2.094 2.2184v2.887h-4.988v-21.57666zm-32.5379 10.49646c-2.026 0-3.4994 1.6412-3.4994 3.6776s1.4734 3.6472 3.4994 3.6472c1.1051 0 2.1795-.3039 3.1004-1.3677v-4.559c-.9209-1.0638-1.9953-1.3981-3.1004-1.3981z"/><g clip-rule="evenodd" fill-rule="evenodd"><path d="m17.28 34.32c9.0133 0 16.32-7.3067 16.32-16.32 0-9.01332-7.3067-16.32003-16.32-16.32003-9.01329 0-16.32 7.30671-16.32 16.32003 0 9.0133 7.30671 16.32 16.32 16.32zm17.28-16.32c0 9.5435-7.7365 17.28-17.28 17.28-9.54348 0-17.28-7.7365-17.28-17.28 0-9.54351 7.73652-17.280029 17.28-17.280029 9.5435 0 17.28 7.736519 17.28 17.280029z"/><path d="m27.7098 13.7523v5.7384h-17.4915l-.75259.0001c.79649 3.4819 3.95759 6.0827 7.73589 6.0827 3.1237 0 5.8255-1.7776 7.118-4.3611l3.3902-.0001v4.8203c0 1.141-.9397 2.0659-2.099 2.0659h-16.79185c-1.15923 0-2.09898-.9249-2.09898-2.0659v-12.2803zm-5.4033 7.4601c-1.1132 1.6017-2.9843 2.6529-5.1049 2.6529-2.1205 0-3.9917-1.0512-5.1048-2.6529zm-9.5811-6.0829c-1.6449 0-3.00571 1.1972-3.23203 2.7545h1.78923c.1967-.5994.7683-1.033 1.4428-1.033s1.2461.4336 1.4428 1.033h1.7892c-.2263-1.5573-1.5871-2.7545-3.232-2.7545zm8.979 0c-1.6449 0-3.0057 1.1972-3.232 2.7545h1.7891c.1968-.5994.7684-1.033 1.4429-1.033s1.2461.4336 1.4428 1.033h1.7892c-.2263-1.5573-1.5871-2.7545-3.232-2.7545zm3.9064-7.68956c1.1593 0 2.099.92492 2.099 2.06585v2.52491h-20.98983v-2.52491c0-1.14093.93975-2.06585 2.09898-2.06585z"/></g></g><path d="m124 12.72c0-6.62745 5.373-12.000029 12-12.000029h28v7.999999c0 6.62743-5.373 12.00003-12 12.00003h-28z" fill="#05050a"/><path d="m133.69 7.43997c.84 0 1.5.17 1.97.52.5.37.79.95.86 1.73h-1.16c-.1-.44-.29-.76-.55-.95-.26-.2-.66-.29-1.18-.29-.45 0-.79.06-1.03.19-.3.15-.44.4-.44.74 0 .3.16.55.5.73003.15.08.56.23 1.22.44.97.3 1.59.54 1.87.7.62.37.93.88.93 1.54 0 .64-.25 1.15-.75 1.52-.5.36-1.21.55-2.12.55-.88 0-1.57-.17-2.06-.51-.6-.42-.93-1.08-.98-1.99h1.16c.08.54.27.93.58 1.16.28.2.71.31 1.3.31.52 0 .94-.09 1.24-.26.3-.18.46-.41.46-.71 0-.38-.23-.68-.67-.9-.14-.07-.6-.23-1.39-.47-.88-.28-1.43-.48-1.64-.6-.55-.33-.82-.81-.82-1.44003 0-.63.26-1.13.8-1.49.5-.35 1.13-.52 1.9-.52zm5.513.44v1.67h1.15v.94003h-1.15v2.92c0 .12.02.21.08.28.06.06.14.09.26.09h.68v.94h-.87c-.45 0-.78-.12-.99-.36-.2-.22-.3-.53-.3-.95v-2.92h-.93v-.94003h.93v-1.2zm4.353 1.53c.76 0 1.33.19 1.69.57.32.33003.48.81003.48 1.44003v3.3h-1.06v-.68c-.2.26-.45.45-.74.59-.33.15-.72.23-1.17.23-.54 0-.96-.14-1.27-.41-.32-.28-.48-.63-.48-1.06 0-.58.22-1.03.68-1.34.42-.3 1.01-.46 1.77-.48l1.13-.03v-.2c0-.68-.37-1.01-1.11-1.01-.32 0-.57.05-.76.17-.22.13-.37.33-.43.6l-1.13-.09c.11-.57.39-.99.84-1.25003.38-.24.9-.35 1.56-.35zm1.03 2.95003-1.05.03c-.91.02-1.36.34-1.36.96 0 .18.07.33.23.45s.36.19.61.19c.44 0 .81-.13 1.11-.38.3-.26.46-.59.46-.99zm2.343-4.92003h1.14v4.16003l2.12-2.05003h1.47l-2.29 2.14003 2.49 3.03h-1.46l-1.81-2.3-.52.49v1.81h-1.14zm7.727 1.97c.85 0 1.5.28 1.95.86003.41.52.62 1.25.62 2.18h-3.87c.04.48.17.85.39 1.1s.54.38.95.38c.35 0 .63-.08.85-.24.17-.13.32-.34.46-.63h1.14c-.12.48-.36.89-.72 1.21-.46.39-1.03.59-1.72.59-.77 0-1.38-.24-1.83-.71-.48-.49-.72-1.16-.72-2.02 0-.77.22-1.41.68-1.93.44-.53003 1.05-.79003 1.82-.79003zm.03.93003c-.38 0-.67.1-.89.32-.21.21-.35.52-.42.93h2.66c-.1-.84-.55-1.25-1.35-1.25z" fill="url(#a)"/></svg>