<svg fill="none" viewBox="0 0 36 36" xmlns="http://www.w3.org/2000/svg"><rect fill="#1c68f3" height="36" rx="18" width="36"/><path clip-rule="evenodd" d="m28.4313 13.9167v5.8333h-17.3866l-.748.0001c.7917 3.5394 3.9338 6.1832 7.6895 6.1832 3.1049 0 5.7904-1.807 7.0753-4.4332h3.3698v4.8999c0 1.1598-.9341 2.1-2.0864 2.1h-16.69113c-1.15228 0-2.08639-.9402-2.08639-2.1v-12.4833zm-5.3709 7.5834c-1.1065 1.6282-2.9664 2.6967-5.0742 2.6967-2.1079 0-3.9678-1.0685-5.0743-2.6967zm-9.5236-6.1834c-1.6351 0-2.9877 1.2169-3.2127 2.8h1.7785c.1956-.6093.7637-1.05 1.4342-1.05.6704 0 1.2386.4407 1.4342 1.05h1.7784c-.225-1.5831-1.5776-2.8-3.2126-2.8zm8.9251 0c-1.635 0-2.9877 1.2169-3.2126 2.8h1.7784c.1956-.6093.7637-1.05 1.4342-1.05.6704 0 1.2386.4407 1.4342 1.05h1.7784c-.2249-1.5831-1.5776-2.8-3.2126-2.8zm3.883-7.8167c1.1523 0 2.0864.9402 2.0864 2.1v2.5667h-20.86392v-2.5667c0-1.1598.93411-2.1 2.08639-2.1z" fill="#fcfcfd" fill-rule="evenodd"/></svg>