<svg width="32" height="33" viewBox="0 0 32 33" fill="none" xmlns="http://www.w3.org/2000/svg">
    <path d="M6.6661 15.2596C5.92972 15.2596 5.33276 15.8566 5.33276 16.5929C5.33276 17.3293 5.92972 17.9263 6.6661 17.9263H25.3328C26.0691 17.9263 26.6661 17.3293 26.6661 16.5929C26.6661 15.8566 26.0691 15.2596 25.3328 15.2596H6.6661Z" fill="currentColor"/>
    <path d="M6.66653 21.9111C5.93015 21.9111 5.3332 22.508 5.3332 23.2444C5.3332 23.9808 5.93015 24.5777 6.66653 24.5777H25.3332C26.0696 24.5777 26.6665 23.9808 26.6665 23.2444C26.6665 22.508 26.0696 21.9111 25.3332 21.9111H6.66653Z" fill="currentColor"/>
    <path d="M6.66653 8.54242C5.93015 8.54242 5.3332 9.13937 5.3332 9.87575C5.3332 10.6121 5.93015 11.2091 6.66653 11.2091H25.3332C26.0696 11.2091 26.6665 10.6121 26.6665 9.87575C26.6665 9.13937 26.0696 8.54242 25.3332 8.54242H6.66653Z" fill="currentColor"/>
</svg>
