<svg width="32" height="33" viewBox="0 0 32 33" fill="none" xmlns="http://www.w3.org/2000/svg">
<g clip-path="url(#clip0_6755_12011)">
<path d="M6.66667 13.6133C5.2 13.6133 4 14.8133 4 16.2799C4 17.7466 5.2 18.9466 6.66667 18.9466C8.13333 18.9466 9.33333 17.7466 9.33333 16.2799C9.33333 14.8133 8.13333 13.6133 6.66667 13.6133ZM25.3333 13.6133C23.8667 13.6133 22.6667 14.8133 22.6667 16.2799C22.6667 17.7466 23.8667 18.9466 25.3333 18.9466C26.8 18.9466 28 17.7466 28 16.2799C28 14.8133 26.8 13.6133 25.3333 13.6133ZM16 13.6133C14.5333 13.6133 13.3333 14.8133 13.3333 16.2799C13.3333 17.7466 14.5333 18.9466 16 18.9466C17.4667 18.9466 18.6667 17.7466 18.6667 16.2799C18.6667 14.8133 17.4667 13.6133 16 13.6133Z" fill="#B1B5C3"/>
</g>
<defs>
<clipPath id="clip0_6755_12011">
<rect width="32" height="32" fill="white" transform="translate(0 0.279297)"/>
</clipPath>
</defs>
</svg>
