<svg width="32" height="33" viewBox="0 0 32 33" fill="none" xmlns="http://www.w3.org/2000/svg">
    <g clip-path="url(#clip0_7361_15713)">
        <path d="M6.66667 13.6133C5.2 13.6133 4 14.8133 4 16.28C4 17.7467 5.2 18.9467 6.66667 18.9467C8.13333 18.9467 9.33333 17.7467 9.33333 16.28C9.33333 14.8133 8.13333 13.6133 6.66667 13.6133ZM25.3333 13.6133C23.8667 13.6133 22.6667 14.8133 22.6667 16.28C22.6667 17.7467 23.8667 18.9467 25.3333 18.9467C26.8 18.9467 28 17.7467 28 16.28C28 14.8133 26.8 13.6133 25.3333 13.6133ZM16 13.6133C14.5333 13.6133 13.3333 14.8133 13.3333 16.28C13.3333 17.7467 14.5333 18.9467 16 18.9467C17.4667 18.9467 18.6667 17.7467 18.6667 16.28C18.6667 14.8133 17.4667 13.6133 16 13.6133Z" fill="currentColor"/>
    </g>
    <defs>
        <clipPath id="clip0_7361_15713">
            <rect width="32" height="32" fill="white" transform="translate(0 0.280029)"/>
        </clipPath>
    </defs>
</svg>
