<svg xmlns="http://www.w3.org/2000/svg" fill="none" viewBox="0 0 101 100">
    <rect width="100" height="100" x="0.0186768" fill="#141414" rx="50"/>
    <path fill="#F4F5F6" fill-rule="evenodd" d="M78.9945 38.6574V54.8611H30.6984L28.6205 54.8613C30.8198 64.6931 39.5479 72.037 49.9802 72.037C58.605 72.037 66.0649 67.0175 69.6338 59.7225L78.9945 59.7224V73.3333C78.9945 76.555 76.3997 79.1667 73.1989 79.1667H26.8347C23.6339 79.1667 21.0392 76.555 21.0392 73.3333V38.6574H78.9945ZM64.0753 59.7225C61.0017 64.2454 55.8353 67.2134 49.9802 67.2134C44.1251 67.2134 38.9587 64.2454 35.8852 59.7225H64.0753ZM37.6208 42.5463C33.0791 42.5463 29.3218 45.9267 28.6969 50.3241L33.637 50.3242C34.1802 48.6316 35.7585 47.4074 37.6208 47.4074C39.4832 47.4074 41.0615 48.6316 41.6047 50.3242L46.5448 50.3241C45.9199 45.9267 42.1626 42.5463 37.6208 42.5463ZM62.4128 42.5463C57.8711 42.5463 54.1138 45.9267 53.4888 50.3241L58.429 50.3242C58.9722 48.6316 60.5505 47.4074 62.4128 47.4074C64.2752 47.4074 65.8535 48.6316 66.3966 50.3242L71.3368 50.3241C70.7119 45.9267 66.9546 42.5463 62.4128 42.5463ZM73.1989 20.8333C76.3997 20.8333 78.9945 23.445 78.9945 26.6667V33.7963H21.0392V26.6667C21.0392 23.445 23.6339 20.8333 26.8347 20.8333H73.1989Z" clip-rule="evenodd"/>
</svg>
