<svg fill="none" height="22" viewBox="0 0 41 22" width="41" xmlns="http://www.w3.org/2000/svg" xmlns:xlink="http://www.w3.org/1999/xlink"><linearGradient id="a" gradientUnits="userSpaceOnUse" x1="29.8787" x2="-.792817" y1="-8.18519" y2="2.07376"><stop offset="0" stop-color="#d0d0ff"/><stop offset=".303907" stop-color="#a996f7"/><stop offset=".505226" stop-color="#7280fe"/><stop offset="1" stop-color="#d3d6fe"/></linearGradient><rect fill="#05050a" height="22" rx="4" width="41"/><path d="m15.4013 5.81818v10.18182h-1.8594l-4.42968-6.40838h-.07458v6.40838h-2.1527v-10.18182h1.88921l4.39485 6.40342h.0895v-6.40342zm5.1891 10.33092c-.7723 0-1.4401-.164-2.0036-.4921-.5601-.3315-.9926-.7922-1.2976-1.3821-.3049-.5933-.4573-1.2811-.4573-2.0633 0-.7888.1524-1.4782.4573-2.0681.305-.59331.7375-1.05401 1.2976-1.38214.5635-.33144 1.2313-.49716 2.0036-.49716.7722 0 1.4384.16572 1.9986.49716.5634.32813.9976.78883 1.3025 1.38214.3049.5899.4574 1.2793.4574 2.0681 0 .7822-.1525 1.47-.4574 2.0633-.3049.5899-.7391 1.0506-1.3025 1.3821-.5602.3281-1.2264.4921-1.9986.4921zm.0099-1.6406c.3513 0 .6447-.0994.88-.2983.2353-.2022.4126-.4772.532-.8253.1226-.348.1839-.744.1839-1.1882 0-.4441-.0613-.8402-.1839-1.1882-.1194-.348-.2967-.6231-.532-.8253-.2353-.20214-.5287-.30323-.88-.30323-.3546 0-.6529.10109-.8949.30323-.2386.2022-.4192.4773-.5419.8253-.1193.348-.1789.7441-.1789 1.1882 0 .4442.0596.8402.1789 1.1882.1227.3481.3033.6231.5419.8253.242.1989.5403.2983.8949.2983zm6.3637 1.6208c-.3282 0-.6099-.116-.8452-.3481-.232-.2353-.348-.517-.348-.8451 0-.3248.116-.6032.348-.8352.2353-.2321.517-.3481.8452-.3481.3181 0 .5965.116.8352.3481.2386.232.3579.5104.3579.8352 0 .2187-.0563.4193-.169.6015-.1094.179-.2535.3232-.4325.4326-.179.106-.3762.1591-.5916.1591zm6.0703-10.31112v10.18182h-2.1527v-8.13849h-.0597l-2.3317 1.46164v-1.90909l2.5206-1.59588z" fill="url(#a)"/></svg>