<svg width="24" height="24" viewBox="0 0 24 25" fill="none" xmlns="http://www.w3.org/2000/svg">
    <path fill-rule="evenodd" clip-rule="evenodd" d="M12.0002 5.35922C8.02375 5.35922 4.8002 8.58277 4.8002 12.5592C4.8002 16.5357 8.02375 19.7592 12.0002 19.7592C15.9766 19.7592 19.2002 16.5357 19.2002 12.5592C19.2002 8.58277 15.9766 5.35922 12.0002 5.35922ZM3.2002 12.5592C3.2002 7.69911 7.14009 3.75922 12.0002 3.75922C16.8603 3.75922 20.8002 7.69911 20.8002 12.5592C20.8002 17.4193 16.8603 21.3592 12.0002 21.3592C7.14009 21.3592 3.2002 17.4193 3.2002 12.5592Z" fill="currentColor"/>
    <path d="M11.8993 17.3465C11.8063 17.3503 11.7135 17.3353 11.6264 17.3023C11.5394 17.2694 11.4599 17.2192 11.3928 17.1547C11.3256 17.0903 11.2722 17.0129 11.2357 16.9273C11.1992 16.8417 11.1804 16.7496 11.1804 16.6565C11.1804 16.5634 11.1992 16.4713 11.2357 16.3857C11.2722 16.3001 11.3256 16.2227 11.3928 16.1583C11.4599 16.0939 11.5394 16.0437 11.6264 16.0107C11.7135 15.9777 11.8063 15.9627 11.8993 15.9666C12.0774 15.9739 12.2457 16.0498 12.3691 16.1784C12.4925 16.3069 12.5615 16.4783 12.5615 16.6565C12.5615 16.8347 12.4925 17.0061 12.3691 17.1347C12.2457 17.2633 12.0774 17.3391 11.8993 17.3465ZM14.8559 10.6344C14.8151 11.3715 14.5892 11.9514 13.4585 13.0821C12.8879 13.6551 12.5269 14.0859 12.4897 14.4621C12.4823 14.537 12.4603 14.6097 12.4248 14.6762C12.3894 14.7426 12.3412 14.8014 12.283 14.8492C12.2248 14.8969 12.1578 14.9328 12.0858 14.9547C12.0137 14.9766 11.9381 14.9841 11.8632 14.9767C11.7882 14.9694 11.7155 14.9474 11.6491 14.9119C11.5826 14.8765 11.5239 14.8283 11.4761 14.7701C11.4283 14.7119 11.3924 14.6449 11.3705 14.5729C11.3486 14.5008 11.3411 14.4252 11.3485 14.3503C11.4253 13.5549 12.0087 12.9133 12.6492 12.2705C13.6763 11.2458 13.6949 10.9197 13.7124 10.5727C13.7215 10.3702 13.6889 10.1679 13.6163 9.97854C13.5438 9.7892 13.433 9.61685 13.2908 9.47227C13.1236 9.29823 12.9228 9.15982 12.7007 9.06537C12.4786 8.97091 12.2396 8.92236 11.9982 8.92264H11.9948C11.0515 8.92614 10.2888 9.6912 10.2876 10.6344C10.2876 10.7865 10.2272 10.9324 10.1197 11.0399C10.0121 11.1475 9.86623 11.2079 9.71413 11.2079C9.56203 11.2079 9.41615 11.1475 9.3086 11.0399C9.20105 10.9324 9.14063 10.7865 9.14062 10.6344C9.14063 9.87169 9.4364 9.15554 9.97439 8.61522C10.2387 8.34904 10.5531 8.13788 10.8995 7.99397C11.2459 7.85006 11.6173 7.77625 11.9924 7.7768C12.7959 7.77563 13.5656 8.10285 14.1223 8.68276C14.6346 9.21958 14.8943 9.91245 14.8559 10.6344Z" fill="currentColor"/>
    <path fill-rule="evenodd" clip-rule="evenodd" d="M14.0517 8.75024C13.5135 8.18965 12.7694 7.87333 11.9926 7.87445H11.9923C11.6301 7.87392 11.2714 7.9452 10.9369 8.08415C10.6025 8.22311 10.2989 8.427 10.0437 8.68402L10.0436 8.68412C9.52383 9.20614 9.23828 9.89752 9.23828 10.6344C9.23828 10.7606 9.28842 10.8817 9.37765 10.9709C9.46689 11.0601 9.58793 11.1103 9.71413 11.1103C9.84033 11.1103 9.96137 11.0601 10.0506 10.9709C10.1398 10.8817 10.19 10.7606 10.19 10.6344L10.19 10.6343C10.1912 9.63736 10.9974 8.82868 11.9944 8.82499L11.9948 8.82498L11.9981 8.82499C11.9982 8.82499 11.9982 8.82499 11.9982 8.82499C11.9982 8.82499 11.9982 8.82499 11.9982 8.82499C12.2528 8.82471 12.5047 8.8759 12.7389 8.9755C12.973 9.07503 13.1845 9.22086 13.3608 9.4042C13.5122 9.55827 13.6302 9.74189 13.7075 9.9436C13.7849 10.1455 13.8197 10.3612 13.8099 10.5771L13.8099 10.5776C13.8009 10.7562 13.7908 10.9416 13.6455 11.2135C13.5034 11.4793 13.2338 11.8251 12.7182 12.3396C12.0739 12.9862 11.5187 13.6043 11.4457 14.3597L11.4457 14.3598C11.4396 14.422 11.4458 14.4847 11.464 14.5445C11.4821 14.6042 11.5119 14.6598 11.5515 14.7081C11.5912 14.7564 11.64 14.7964 11.6951 14.8258C11.7502 14.8552 11.8105 14.8735 11.8727 14.8796C11.9349 14.8856 11.9976 14.8794 12.0574 14.8613C12.1171 14.8431 12.1728 14.8133 12.221 14.7737C12.2693 14.734 12.3093 14.6853 12.3387 14.6302C12.3681 14.5751 12.3864 14.5147 12.3925 14.4525L12.3925 14.4524C12.4137 14.2385 12.5254 14.0196 12.6954 13.7881C12.8662 13.5555 13.1035 13.3003 13.3893 13.0132L13.3894 13.0131C13.9521 12.4505 14.2835 12.0307 14.4799 11.6645C14.6745 11.3015 14.7386 10.987 14.7584 10.6292C14.7953 9.93479 14.5459 9.26807 14.0517 8.75024ZM11.9924 7.67914C12.8225 7.67798 13.6177 8.01603 14.1927 8.61514L14.1929 8.61533C14.7234 9.17113 14.9933 9.89008 14.9534 10.6396L14.9534 10.6398C14.9324 11.0191 14.8631 11.363 14.652 11.7568C14.4425 12.1476 14.0957 12.5831 13.5277 13.1511C13.243 13.437 13.0144 13.6836 12.8528 13.9037C12.6903 14.1249 12.6029 14.3095 12.5868 14.4717C12.5782 14.5593 12.5525 14.6444 12.511 14.7221C12.4695 14.7999 12.4131 14.8687 12.345 14.9246C12.2769 14.9805 12.1985 15.0225 12.1142 15.0481C12.0299 15.0738 11.9413 15.0825 11.8536 15.0739C11.766 15.0654 11.6808 15.0396 11.6031 14.9981C11.5253 14.9566 11.4565 14.9002 11.4006 14.8321C11.3447 14.764 11.3027 14.6856 11.2771 14.6013M11.2513 14.3408C11.332 13.5056 11.9434 12.8405 12.58 12.2016L12.5802 12.2014C13.0916 11.6911 13.3449 11.3615 13.4732 11.1214C13.5983 10.8875 13.6063 10.7364 13.6148 10.5681C13.6234 10.379 13.5928 10.1902 13.5251 10.0135C13.4574 9.83667 13.3539 9.67574 13.2212 9.54074L13.2204 9.53995L13.2204 9.53994C13.0623 9.3754 12.8725 9.24454 12.6625 9.15523C12.4525 9.06593 12.2266 9.02003 11.9984 9.0203L11.9982 9.0203H11.9949C11.1056 9.02369 10.3864 9.74509 10.3853 10.6345C10.3853 10.8125 10.3146 10.9832 10.1887 11.109C10.0628 11.2349 9.89213 11.3056 9.71413 11.3056C9.53613 11.3056 9.36541 11.2349 9.23955 11.109C9.11368 10.9831 9.04297 10.8124 9.04297 10.6344C9.04297 9.84589 9.34895 9.10499 9.90512 8.54638C10.1785 8.27105 10.5037 8.05265 10.862 7.90379C11.2203 7.75494 11.6045 7.67859 11.9924 7.67914C11.9924 7.67914 11.9923 7.67914 11.9923 7.67914L11.9924 7.7768L11.9926 7.67914C11.9925 7.67914 11.9925 7.67914 11.9924 7.67914M11.2513 14.3408C11.2513 14.3408 11.2513 14.3408 11.2513 14.3407L11.3485 14.3503L11.2513 14.3409M11.8953 16.0641C11.8154 16.0608 11.7357 16.0737 11.661 16.102C11.5863 16.1303 11.518 16.1734 11.4604 16.2288C11.4027 16.2841 11.3569 16.3505 11.3255 16.424C11.2942 16.4975 11.278 16.5766 11.278 16.6565C11.278 16.7364 11.2942 16.8155 11.3255 16.889C11.3569 16.9625 11.4027 17.0289 11.4604 17.0843C11.518 17.1396 11.5863 17.1827 11.661 17.211C11.7357 17.2393 11.8154 17.2522 11.8953 17.2489C12.0482 17.2426 12.1927 17.1774 12.2987 17.067C12.4046 16.9566 12.4638 16.8095 12.4638 16.6565C12.4638 16.5035 12.4046 16.3564 12.2987 16.246C12.1927 16.1356 12.0482 16.0704 11.8953 16.0641ZM11.5919 15.9194C11.6912 15.8818 11.7971 15.8646 11.9033 15.869C12.1065 15.8773 12.2987 15.964 12.4396 16.1107C12.5804 16.2575 12.6591 16.4531 12.6591 16.6565C12.6591 16.8599 12.5804 17.0555 12.4396 17.2023C12.2987 17.3491 12.1065 17.4357 11.9033 17.444C11.7971 17.4484 11.6912 17.4313 11.5919 17.3936C11.4925 17.356 11.4018 17.2987 11.3251 17.2252C11.2485 17.1516 11.1875 17.0633 11.1459 16.9656C11.1042 16.8679 11.0827 16.7627 11.0827 16.6565C11.0827 16.5503 11.1042 16.4451 11.1459 16.3474C11.1875 16.2497 11.2485 16.1614 11.3251 16.0878C11.4018 16.0143 11.4925 15.957 11.5919 15.9194Z" fill="currentColor"/>
</svg>
