<svg fill="none" height="48" viewBox="0 0 48 48" width="48" xmlns="http://www.w3.org/2000/svg"><rect fill="#0072ff" height="48" rx="24" width="48"/><g fill="#fff"><path d="m32.0604 24.891c-.5627-.8355-1.9198-1.2803-2.891-1.5425-.1132-.0298-.231-.0596-.3561-.0907h-.0099c-.523-.1324-1.1168-.2787-1.5789-.5296-.5296-.2899-.7891-.6659-.7891-1.1492-.0006-.0784.0068-.1567.0218-.2337v-.0139c.0075-.0355.0168-.0706.0278-.1052.0013-.0048.0028-.0094.0047-.0139v-.0053c.0684-.2005.1832-.3819.335-.5296.3925-.3972 1.0188-.6203 1.7211-.6203h.0219c.5171.0114 1.0261.1311 1.4941.3515.4676.2123.8903.512 1.2452.8831l.0086 1.0069v.0106h.8739v-3.032h-.8719v.6872c0 .005-.0013.01-.0037.0144s-.0059.0081-.0102.0108c-.0079 0-.0185-.0053-.0238-.0106-.3692-.2807-.78-.5021-1.2174-.6561-.4691-.1606-.9607-.2459-1.4564-.2529-.5687 0-1.0334.0662-1.4213.1927-.3226.1075-.6224.2743-.8838.4918-.2841.2221-.5124.5075-.6666.8335-.1491.3141-.2273.6572-.2291 1.0049-.0042.2059.0214.4112.0762.6097.0675.2197.168.428.2979.6176.0112.0179.0245.0351.0364.0523.0119.0173.0125.0166.0185.0252l.008.0106c.5726.7911 1.8509 1.1413 2.7836 1.3988l.0259.0066.2072.0576.2244.0602c.4861.119.9617.2776 1.4219.474.2403.1058.4523.2666.619.4694.1543.188.2588.4118.3039.6507.0437.2383.0257.4837-.0523.713-.0915.264-.2432.5031-.4429.6984-.2191.1951-.4763.3425-.7553.433-.2714.0875-.5533.138-.8381.1502-.4559.022-.9124-.0296-1.3518-.1529-.7448-.2357-1.4246-.6905-1.8655-1.2459-.0147-.018-.0257-.0386-.0325-.0609l-.0086-.8659v-.0112h-.8738v3.1696h.8745v-.9268c.3652.3214.7885.57 1.2472.7322.5362.1978 1.1015.3056 1.6729.3191h.0708c.4852 0 1.6205 0 2.5109-.754.2465-.2134.4507-.4712.6018-.76.1453-.2781.2401-.5798.28-.8911.0407-.2981.0268-.6012-.041-.8943-.0641-.2853-.1882-.5536-.3641-.7871z"/><path d="m23.4299 24.8912c-.5514-.8314-1.9138-1.2783-2.8909-1.5418-.1112-.0291-.2264-.0575-.3489-.088-1.0592-.2615-2.3779-.5878-2.3931-1.6848 0-.1652.035-.3285.1026-.4793.073-.1583.1744-.3019.2993-.4236.3971-.3919 1.0201-.617 1.7172-.617h.0218c.5168.0112 1.0254.1309 1.4928.3515.4657.2119.886.5118 1.2379.8831l.0172 1.0069v.0113h.8739v-3.032h-.8719v.6872c0 .0049-.0012.0098-.0035.0141-.0023.0044-.0057.0082-.0097.011-.0066 0-.0146 0-.0245-.0106-.3692-.2806-.7799-.502-1.2174-.656-.4691-.1606-.9606-.2459-1.4564-.2529-.572 0-1.038.0662-1.4246.1927-.3215.1077-.6201.2746-.8805.4918-.2841.2221-.5124.5075-.6666.8335-.1499.3148-.2285.6588-.2304 1.0075-.0042.2056.021.4106.0748.6091.0661.2182.1638.4257.29.6156.5488.8553 1.8913 1.2227 2.8717 1.4915l.0232.0059.1946.0537.2052.0549.0192.0053c.4862.1189.9618.2774 1.422.474.2411.1075.4541.2692.6223.4727.1549.19.2598.4157.3052.6567.0431.2386.0244.4843-.0543.7136-.0923.2638-.2449.5025-.4455.6971-.2177.1945-.4739.3409-.7521.4296-.272.0871-.5546.1365-.84.147-.059 0-.1205.0039-.1828.0039-.3989.001-.7961-.0531-1.1803-.1608-.0443-.0139-.0894-.0292-.1324-.045h-.0066c-.0894-.0318-.1787-.0662-.2648-.1066-.432-.1894-.8271-.4536-1.1671-.7805l-.0172-.0166c-.053-.0529-.1066-.1092-.1582-.1681l-.0397-.0457c-.0232-.0271-.0457-.0536-.0662-.0814-.0143-.0179-.0251-.0384-.0318-.0603l-.0086-.8658v-.0113h-.8864v3.1696h.8831v-.9268c.3652.3215.7885.57 1.2472.7322.5362.1978 1.1014.3056 1.6728.3191h.0709c.4825 0 1.6126 0 2.5109-.754.2465-.2133.4506-.4711.6017-.76.1453-.2763.2406-.5762.2814-.8857.0407-.2982.0268-.6012-.041-.8944-.0639-.2874-.1885-.5578-.3655-.7931z"/><path d="m14.468 28.0984-2.3885-3.6112c.4047.0155.8075-.0626 1.177-.2284.5224-.2647.9421-.6004 1.1996-1.0969.2093-.4099.3178-.8638.3164-1.324-.0005-.7239-.2858-1.4185-.7944-1.9337-.5521-.5004-1.2412-.744-2.1078-.744h-4.62799v.9989h.9824v7.9512h-1.06846v.8355h3.10145v-.8355h-.99895v-3.6085h1.67155l2.3401 3.6085h-1.0631v.8355h3.3378v-.8355h-1.044c-.006.0004-.0121-.0004-.0178-.0025-.0057-.002-.0109-.0052-.0153-.0094zm-5.20925-7.9843h2.55995c.7864 0 1.3902.3125 1.696.8493.1473.2696.2222.5727.2173.8799-.0049.3071-.0893.6077-.2451.8724-.3138.5296-.6845.8222-1.5067.8222h-2.72145z"/><path d="m40.4399 26.0532c0-1.1988-.6057-2.0647-1.6106-2.4361.852-.4475 1.228-1.1836 1.228-1.9416 0-1.7497-1.4676-2.6765-3.3814-2.6765-1.0447.008-2.1581.3555-2.9188 1.4233l.7944.5184c.4257-.5727 1.0321-1.0149 2.1244-1.0149 1.3901 0 2.3765.5647 2.3765 1.6398 0 1.03-.989 1.604-2.0019 1.604h-1.3795v.993h1.4596c1.2916 0 2.3124.6957 2.2806 1.8794-.0722 1.2578-1.1803 1.9337-2.6314 1.9337-.9334 0-1.9701-.2939-2.744-1.1214l-.0397-.0153-.6779.7421.0318.008c.9731.9129 2.1296 1.3849 3.4298 1.3849 2.0018-.004 3.6601-1.087 3.6601-2.9208z"/><path d="m6.51426 23.5329h-2.51426v1.0268h2.51426z"/><path d="m44.0006 23.5332h-2.5143v1.0268h2.5143z"/></g></svg>