<svg fill="none" height="49" viewBox="0 0 50 49" width="50" xmlns="http://www.w3.org/2000/svg" xmlns:xlink="http://www.w3.org/1999/xlink"><clipPath id="a"><rect height="48" rx="24" width="48"/></clipPath><clipPath id="b"><rect height="16" rx="8" width="16" x="33" y="32"/></clipPath><g clip-path="url(#a)"><path d="m24 48c13.2555 0 24-10.7445 24-24s-10.7445-24-24-24-24 10.7445-24 24 10.7445 24 24 24z" fill="#0098ea"/><path d="m32.1945 13.395h-16.3905c-3.0135 0-4.923 3.2505-3.4065 5.88l10.1145 17.532c.66 1.1445 2.3145 1.1445 2.9745 0l10.1175-17.5335c1.515-2.6235-.396-5.8785-3.408-5.8785zm-9.69 18.153-2.2035-4.263-5.316-9.507c-.0808-.142-.1227-.3028-.1214-.4661.0012-.1634.0455-.3235.1285-.4643.0829-.1407.2015-.2571.3438-.3374.1423-.0802.3032-.1215.4666-.1197h6.6975v15.1605l.003-.003zm10.5045-13.7715-5.313 9.51-2.2035 4.2615v-15.1605h6.7005c.735 0 1.167.78.816 1.389z" fill="#fff"/></g><g clip-path="url(#b)"><path d="m41.0015 32.0062c4.417 0 7.9969 3.5799 7.9969 7.9969s-3.5799 7.9969-7.9969 7.9969-7.9969-3.5799-7.9969-7.9969 3.5815-7.9969 7.9969-7.9969z" fill="#214cff"/><g fill="#fff"><path d="m41.0028 34.3007v7.9687l3.5018-2.0992zm0 11.4049 3.5018-5.0277-3.5018 2.1179zm0-11.4049v7.9687l-3.5033-2.0992z"/><path d="m41.0028 42.7958v2.9098l-3.5033-5.0277z"/></g></g><rect height="17" rx="8.5" stroke="#b9befe" width="17" x="32.5" y="31.5"/></svg>