<svg fill="none" height="48" viewBox="0 0 48 48" width="48" xmlns="http://www.w3.org/2000/svg" xmlns:xlink="http://www.w3.org/1999/xlink"><clipPath id="a"><rect height="48" rx="24" width="48"/></clipPath><g clip-path="url(#a)"><path d="m24 48c13.2555 0 24-10.7445 24-24s-10.7445-24-24-24-24 10.7445-24 24 10.7445 24 24 24z" fill="#0098ea"/><path d="m32.1945 13.395h-16.3905c-3.0135 0-4.923 3.2505-3.4065 5.88l10.1145 17.532c.66 1.1445 2.3145 1.1445 2.9745 0l10.1175-17.5335c1.515-2.6235-.396-5.8785-3.408-5.8785zm-9.69 18.153-2.2035-4.263-5.316-9.507c-.0808-.142-.1226-.3028-.1214-.4661.0013-.1634.0456-.3235.1285-.4643.0829-.1407.2015-.2571.3438-.3374.1423-.0802.3033-.1215.4666-.1197h6.6975v15.1605l.003-.003zm10.5045-13.7715-5.313 9.51-2.2035 4.2615v-15.1605h6.7005c.735 0 1.167.78.816 1.389z" fill="#fff"/></g></svg>