<svg width="16" height="16" viewBox="0 0 16 16" fill="none" xmlns="http://www.w3.org/2000/svg">
    <path fill-rule="evenodd" clip-rule="evenodd" d="M12.6667 3.33333H3.33341C2.59703 3.33333 2.00008 3.93029 2.00008 4.66667V11.3333C2.00008 12.0697 2.59703 12.6667 3.33341 12.6667H12.6667C13.4031 12.6667 14.0001 12.0697 14.0001 11.3333V4.66667C14.0001 3.93029 13.4031 3.33333 12.6667 3.33333ZM3.33341 2C1.86066 2 0.666748 3.19391 0.666748 4.66667V11.3333C0.666748 12.8061 1.86066 14 3.33341 14H12.6667C14.1395 14 15.3334 12.8061 15.3334 11.3333V4.66667C15.3334 3.19391 14.1395 2 12.6667 2H3.33341Z" fill="currentColor"/>
    <path fill-rule="evenodd" clip-rule="evenodd" d="M8.66675 8.00002C8.66675 6.15907 10.1591 4.66669 12.0001 4.66669H14.6667C15.0349 4.66669 15.3334 4.96516 15.3334 5.33335C15.3334 5.70154 15.0349 6.00002 14.6667 6.00002H12.0001C10.8955 6.00002 10.0001 6.89545 10.0001 8.00002C10.0001 9.10459 10.8955 10 12.0001 10H14.6667C15.0349 10 15.3334 10.2985 15.3334 10.6667C15.3334 11.0349 15.0349 11.3334 14.6667 11.3334H12.0001C10.1591 11.3334 8.66675 9.84097 8.66675 8.00002Z" fill="currentColor"/>
    <path d="M12.6666 7.99998C12.6666 8.36817 12.3681 8.66665 11.9999 8.66665C11.6317 8.66665 11.3333 8.36817 11.3333 7.99998C11.3333 7.63179 11.6317 7.33331 11.9999 7.33331C12.3681 7.33331 12.6666 7.63179 12.6666 7.99998Z" fill="currentColor"/>
</svg>
